<svg width="723" height="136" viewBox="0 0 723 136" fill="none" xmlns="http://www.w3.org/2000/svg">
<g clip-path="url(#clip0_359_2513)">
<path d="M549.538 31.3593C545.801 37.0428 544.71 43.7138 542.952 50.0422C537.921 68.1406 533.133 86.2995 532.265 105.305C531.881 113.649 530.285 122.234 524.466 129.127C521.557 132.593 518.082 134.669 513.476 133.541C509.395 132.533 507.536 129.47 507.112 125.459C507.213 121.952 506.89 118.385 507.455 114.938C511.314 91.8822 517.254 69.3902 525.981 47.6237C530.871 35.4103 535.84 23.2775 542.568 11.9308L542.588 11.9106C542.891 11.5882 543.194 11.2455 543.497 10.9231C549.659 5.32022 557.074 4.25205 564.993 4.93729C570.771 5.42099 574.812 9.81459 575.943 16.143C577.014 22.2698 576.873 28.4168 576.933 34.584C576.933 36.9219 577.054 39.2598 577.115 41.5976C575.984 49.7802 574.852 57.9628 573.741 66.1454C578.489 54.8187 582.691 43.3914 588.045 32.488C593.176 22.0078 596.106 9.89521 607.924 4.0102C612.894 4.13113 617.945 3.18389 622.672 5.82408C630.895 10.4394 632.794 18.239 633.339 26.6433C633.643 31.319 633.461 36.0149 633.42 40.6907C633.218 62.9005 635.259 85.0096 636.511 107.159C636.734 110.968 637.299 114.757 637.905 118.546C638.592 122.758 639.905 126.426 645.441 125.802C646.512 125.681 647.684 126.326 648.795 126.628C649.078 126.95 649.36 127.253 649.643 127.575C644.734 137.954 632.37 137.048 623.885 133.924C621.925 133.198 619.561 133.057 618.127 131.142C617.379 127.374 614.813 124.35 614.005 120.521C612.51 113.427 612.652 106.192 612.369 99.0772C611.52 76.8472 611.44 54.5769 611.015 32.3469C610.995 30.8152 611.682 29.0013 609.823 27.8727C606.369 30.9764 605.702 35.3499 604.207 39.3202C598.409 47.5028 594.792 56.814 590.853 65.9237C585.701 77.8347 581.115 89.9675 577.095 102.302C574.691 109.638 572.044 110.968 564.529 108.489C559.377 101.496 556.508 93.7968 555.478 85.0298C554.205 74.1465 555.235 63.3036 554.67 52.4809C554.205 43.5727 554.063 34.6243 552.488 25.5146C549.942 27.0665 549.881 29.2835 549.558 31.3795L549.538 31.3593ZM568.771 29.9284C567.62 24.2852 567.216 17.977 562.448 13.2609C561.397 12.2331 560.205 11.5882 558.892 12.6362C557.276 13.926 558.548 14.9539 559.417 15.9616C563.114 20.2343 563.599 25.6759 564.832 30.8353C565.175 32.2461 563.902 34.8057 566.609 34.6646C569.195 34.5437 568.61 32.0647 568.771 29.9082V29.9284ZM627.218 28.4975C627.339 22.9752 622.289 14.4097 617.561 11.8502C616.207 11.1246 615.076 10.8021 614.026 12.0517C613.298 12.8982 613.884 13.5229 614.632 14.047C619.925 17.7352 622.066 23.2171 623.258 29.223C623.501 30.4726 623.379 32.2058 625.44 31.702C626.996 31.319 627.258 29.9284 627.218 28.5176V28.4975Z" fill="#BBD6C8"/>
<path d="M253.243 58.1247C254.879 51.1111 253.99 43.916 255 36.8218C256.293 27.7726 257.182 18.6428 257.708 9.51297C257.99 4.69613 263.041 4.07135 264.455 0.423458C264.738 -0.30209 266.334 -0.0400869 266.577 0.745924C268.031 5.38137 271.85 3.80935 274.84 3.84966C286.194 4.03104 286.214 4.45428 284.759 16.0227C283.385 27.0874 282.032 38.152 281.224 49.2972C280.678 56.9759 280.274 64.6546 280.456 72.3132C280.577 77.6339 281.486 82.8538 283.103 88.0133C285.224 94.8253 290.113 98.5539 296.638 98.9973C303.528 99.4608 309.952 97.2237 313.306 90.2101C317.326 81.7856 318.801 72.676 319.549 63.5462C320.922 46.7578 321.71 29.9291 322.64 13.1004C322.801 10.1781 323.912 8.7068 326.923 8.90834C329.266 9.06958 331.589 9.23081 333.933 9.4122C334.923 9.49281 335.913 9.71451 336.923 9.73466C339.509 9.79512 338.378 6.14723 340.883 5.84492C344.156 5.44183 341.994 10.0168 344.923 9.87574C346.903 9.77497 348.984 9.63389 350.782 10.8431C350.863 15.2166 350.944 19.59 351.025 23.9433C350.742 24.8906 350.176 25.858 350.196 26.8052C350.58 40.8526 347.974 54.6783 346.822 68.5847C345.812 80.6368 344.135 92.7293 338.741 103.915C330.923 120.099 316.963 126.85 300.073 128.483C292.477 129.208 284.658 129.37 277.345 126.064C261.708 119.01 254.091 106.555 253.182 89.8473C252.778 82.3298 253.041 74.7922 253.02 67.2545C253.101 64.1911 253.182 61.1277 253.263 58.0642L253.243 58.1247Z" fill="#BBD6C8"/>
<path d="M253.243 58.1249C253.162 61.1883 253.081 64.2517 253 67.3151C251.384 74.9132 249.646 82.4912 248.151 90.1095C243.828 112.319 225.524 129.874 198.755 130.982C170.754 132.131 149.743 107.704 147.056 83.0555C145.602 69.8546 146.794 57.1172 150.329 44.541C155.218 27.2286 166.532 15.7206 183.341 9.43251C196.735 4.43429 210.311 1.43133 224.494 5.98616C232.292 8.48527 237.828 12.9998 241.444 21.001C244.939 28.6998 249.667 35.8143 251.384 44.3193C252.313 48.8943 253.283 53.4491 253.222 58.145L253.243 58.1249ZM196.695 12.7982C197.18 11.8309 198.594 11.0247 197.422 9.77513C196.149 8.4248 194.654 8.96897 193.24 9.59374C185.603 12.9192 179.906 18.4616 175.441 25.3341C158.835 50.9701 162.168 88.9002 182.957 111.372C188.108 116.935 194.351 120.744 201.786 122.275C204.372 122.82 207.867 123.706 207.443 118.829C211.867 115.242 216.049 111.433 219.827 107.12C231.706 93.576 236.151 78.4805 230.999 60.7247C225.161 40.6512 213.847 24.7093 196.695 12.7982ZM224.999 16.9097C223.484 16.9097 221.342 17.5748 221.14 18.1592C220.514 19.9328 222.272 20.3762 223.1 21.2025C228.777 26.8457 233.201 33.2345 234.979 41.1752C235.565 43.755 236.898 44.8634 239.626 44.1984C242.697 43.4527 242.434 41.4574 241.767 39.1598C239.444 31.078 234.959 24.3264 228.858 18.6026C227.706 17.5345 226.514 16.688 224.979 16.9298L224.999 16.9097ZM245.929 54.8196C245.586 53.6506 245.646 50.95 242.293 51.1112C240.515 51.1918 237.828 51.4942 238.575 53.7514C239.262 55.8474 237.282 59.8984 241.606 59.9186C243.828 59.9186 246.374 59.1527 245.929 54.8196Z" fill="#ECC647"/>
<path d="M75.6395 8.94847C79.2962 4.51456 84.8924 4.43394 89.7411 3.62778C100.731 1.81391 111.883 1.87437 122.005 7.57799C144.107 20.0534 146.006 49.9419 122.914 63.022C121.601 63.7677 120.369 64.6141 118.47 65.7831C120.268 66.3272 121.641 66.9722 123.096 67.1737C135.46 68.907 146.935 80.415 146.269 95.0267C146.087 99.0172 146.309 102.988 145.259 106.958C141.541 121.005 132.793 127.817 118.247 129.813C104.368 131.727 90.529 131.707 76.6295 131.546C76.4274 129.732 76.0234 127.918 76.084 126.124C76.8517 103.108 76.9325 80.0925 75.882 57.0765C75.1547 41.054 75.6799 24.9911 75.6597 8.94847H75.6395ZM99.9032 12.7777C98.1051 14.1885 98.8324 16.1636 98.8324 17.8969C98.7718 32.2466 98.7718 46.6165 98.7718 60.9662C99.095 62.7196 98.0041 65.6017 101.459 65.0978C112.873 63.3847 123.258 56.1293 126.086 46.2336C130.571 30.5134 121.136 12.8785 100.934 9.15001C99.9638 8.96862 98.8122 8.64615 98.2061 9.69417C97.1556 11.5282 99.3779 11.7096 99.9234 12.7576L99.9032 12.7777ZM98.7516 76.4648C99.0344 91.1571 98.8122 105.849 97.7415 120.522C96.7717 125.681 98.893 127.414 104.004 126.749C109.136 126.064 114.348 126.104 119.48 125.439C122.207 125.076 125.217 124.774 127.056 122.114C133.561 112.702 136.228 102.302 133.4 91.1974C129.965 77.7143 119.803 71.2851 104.126 71.2045C100.045 71.1844 98.0647 72.1921 98.7516 76.4849V76.4648Z" fill="#BBD6C8"/>
<path d="M649.644 127.535C649.361 127.213 649.078 126.91 648.795 126.588C648.189 109.356 648.512 92.1444 650.351 74.9731C651.139 67.4959 651.301 59.9381 651.563 52.4206C652.008 39.1995 652.25 25.9784 652.654 12.7573C652.836 7.05368 655.018 4.95765 660.735 4.9375C679.888 4.9375 699.02 4.95765 718.172 5.01812C720.233 5.01812 722.859 4.39334 723.021 7.77923C723.182 11.3868 720.374 11.1853 718.111 11.2457C706.879 11.5481 695.646 11.8907 684.413 11.8101C680.453 11.7899 679.544 13.2007 679.766 16.8083C680.554 29.8278 681.261 42.8474 681.726 55.8871C681.847 59.2327 683.16 59.5955 686.029 59.5149C695.929 59.2528 705.848 59.273 715.748 59.1319C718.354 59.0916 720.435 59.3335 720.111 62.8806C719.768 66.73 717.061 65.3596 715.243 65.1177C705.525 63.7069 695.848 64.2914 686.15 65.2185C683.039 65.5208 681.766 66.8106 681.787 69.995C681.847 86.5818 681.827 103.169 681.625 119.735C681.585 122.98 683.362 122.799 685.464 122.617C695.686 121.751 705.909 121.65 716.152 121.529C718.92 121.489 720.839 121.952 720.758 125.076C720.677 128.22 718.152 127.575 716.293 127.555C695.989 127.515 675.706 129.288 655.381 128.583C653.422 128.523 651.321 129.127 649.664 127.515L649.644 127.535ZM671.806 69.2694C671.806 69.2694 671.766 69.2694 671.726 69.2694C671.726 53.0252 671.726 36.8012 671.726 20.5569C671.726 17.9974 670.574 15.7603 669.968 13.3821C669.14 10.2179 666.837 10.9636 664.756 10.9233C661.988 10.8628 662.675 12.9991 662.634 14.5107C662.25 30.5534 661.927 46.6162 661.483 62.6791C661.402 65.944 662.351 69.0074 662.17 72.3732C661.301 88.0732 661.058 103.793 660.594 119.494C660.553 120.602 660.21 121.972 661.766 122.436C664.372 123.242 666.958 123.665 669.604 122.496C672.271 121.328 671.786 119.07 671.786 116.934C671.786 101.032 671.786 85.1307 671.786 69.2291L671.806 69.2694Z" fill="#242424"/>
<path d="M351.004 24.0037C350.923 19.6302 350.843 15.2568 350.762 10.9035C351.045 4.29296 352.277 2.43878 359.51 3.02325C380.096 4.7162 400.784 2.41863 421.351 4.73635C422.017 4.81697 422.684 4.83712 423.351 4.85728C431.041 5.11256 434.819 9.12323 434.684 16.8893C434.664 18.4008 434.523 19.9124 434.624 21.4038C434.886 25.5152 432.644 27.1679 428.886 27.2687C423.856 27.4097 418.785 27.8733 413.795 27.4299C408.704 26.9663 407.451 29.1228 407.491 33.6374C407.572 48.2088 407.431 62.7601 407.39 77.3315C407.35 92.6285 408.017 107.925 406.703 123.202C406.421 126.447 405.289 127.616 401.774 127.878C396.784 128.241 391.794 128.563 386.804 128.825C383.026 129.027 382.096 127.354 382.197 124.149C382.399 117.458 383.228 110.707 382.581 104.096C381.551 93.6362 382.339 83.156 381.793 72.6759C381.288 63.0825 382.157 53.3078 382.218 43.5935C382.258 38.6557 380.541 33.8389 381.106 28.8205C381.349 26.7043 379.793 26.6842 378.076 26.664C371.55 26.5834 365.025 26.2005 358.479 26.1803C355.691 26.1803 353.186 25.7571 350.984 24.0238L351.004 24.0037ZM399.309 71.0837H399.006C399.006 56.6937 399.006 42.3036 399.006 27.9136C399.006 20.3356 399.249 20.0535 407.168 19.9527C413.047 19.8721 418.926 19.8318 424.805 19.9527C429.836 20.0736 427.775 16.204 428.341 13.9266C429.007 11.2663 427.654 10.8027 425.068 10.8632C416.684 11.1051 408.279 11.1051 399.875 10.9035C392.905 10.7423 385.975 11.2461 378.945 10.1578C373.248 9.27103 367.207 9.45242 361.388 10.5206C356.52 11.4275 359.53 15.3777 358.863 17.8567C358.156 20.4969 360.459 20.0938 362.096 20.0535C369.47 19.8923 376.864 19.8721 384.218 19.5093C387.612 19.3481 389.369 20.4767 389.289 23.9029C389.066 33.7784 390.703 43.5733 390.38 53.469C389.693 75.0339 391.47 96.6593 389.369 118.204C389.248 119.373 388.642 120.965 390.198 121.812C393.228 123.444 399.269 119.716 399.269 116.249C399.269 101.174 399.269 86.0985 399.269 71.0434L399.309 71.0837Z" fill="#242424"/>
<path d="M66.6088 127.394C66.8108 131.002 64.3461 130.72 61.9015 130.76C59.2145 130.8 58.5882 129.41 58.3458 127.031C56.7498 111.976 54.2648 97.0622 51.8203 82.128C51.3556 79.2661 50.4061 78.46 47.4363 78.3391C41.3754 78.0972 35.4762 79.7095 29.4557 79.3871C26.7283 79.246 26.7081 81.3017 26.2637 82.9745C22.5463 96.901 18.8694 110.848 15.2127 124.794C13.6571 130.72 10.8893 132.271 3.81828 130.639C-1.55569 129.389 0.100949 125.782 0.74744 121.993C7.41439 82.3094 19.2533 44.1174 34.264 6.8524C34.9711 5.09899 35.2135 2.51926 37.3146 2.03556C40.0824 1.39063 42.8906 1.26971 43.7593 5.4013C47.214 21.7261 51.1738 37.9502 54.4063 54.3355C58.1034 73.0385 61.4167 91.8222 63.9824 110.727C64.6289 115.523 65.2552 120.32 65.8815 125.117C66.1239 125.883 66.3866 126.648 66.629 127.414L66.6088 127.394ZM22.4453 66.4078C19.7381 68.4232 20.223 71.4464 20.5665 74.3888C21.1321 71.7084 21.718 69.0279 22.2635 66.3272C23.1928 65.6823 23.1524 64.7753 22.8898 63.8281C22.6474 63.9087 22.2029 63.9893 22.2029 64.0901C22.2029 64.8559 20.8897 65.8032 22.4453 66.3877V66.4078ZM50.3455 73.1998C47.1938 57.4191 44.123 42.0616 41.0522 26.6841C36.5873 41.457 32.9306 56.23 29.2537 71.003C28.4456 74.2679 30.6881 74.2276 32.7084 73.9052C38.345 72.9982 44.0422 73.361 50.3455 73.1998ZM18.9906 80.6568C18.5058 80.5359 18.0411 80.4351 17.5562 80.3142C15.7784 87.4286 13.6773 94.4825 13.4954 101.96C15.3339 94.8654 17.1724 87.751 18.9906 80.6568Z" fill="#242424"/>
<path d="M66.6088 127.394C66.3664 126.628 66.1038 125.862 65.8613 125.096C67.1139 123.101 66.6088 120.864 66.5886 118.728C66.124 84.4859 67.518 50.2843 68.5887 16.0828C68.7503 10.9032 72.8313 10.8629 75.6193 8.94824C75.6395 24.9909 75.1142 41.0538 75.8415 57.0763C76.8921 80.1124 76.7911 103.108 76.0436 126.124C75.983 127.918 76.4072 129.732 76.5891 131.546C72.7101 131.445 68.2251 132.815 66.5886 127.394H66.6088ZM72.3262 115.483V55.4639C72.7909 75.4165 69.0332 95.349 72.3262 115.483Z" fill="#E0714B"/>
<path d="M604.207 39.3001C605.722 35.3297 606.389 30.9361 609.823 27.8525C611.662 28.9812 610.975 30.795 611.015 32.3268C611.439 54.5769 611.54 76.8271 612.369 99.057C612.631 106.171 612.51 113.387 614.005 120.501C614.813 124.33 617.379 127.353 618.127 131.122C608.571 125.842 606.409 116.47 605.278 106.937C603.257 89.9877 602.591 72.9171 603.217 55.8466C603.419 50.3244 603.863 44.8223 604.207 39.3202V39.3001Z" fill="#8863D5"/>
<path d="M542.548 11.9316C535.82 23.2784 530.87 35.4112 525.961 47.6246C517.233 69.391 511.294 91.8629 507.435 114.939C506.869 118.366 507.193 121.953 507.092 125.46C503.415 123.444 503.435 119.857 503.192 116.35C502.283 103.008 504.667 90.2102 509.152 77.6945C515.233 60.7852 520.062 43.3721 529.194 27.7123C532.689 21.7265 536.103 15.5392 542.507 11.9316H542.548Z" fill="#8863D5"/>
<path d="M549.538 31.36C549.861 29.2639 549.922 27.0268 552.467 25.4951C554.043 34.6048 554.184 43.5532 554.649 52.4613C555.215 63.3042 554.184 74.1472 555.457 85.0102C556.488 93.7571 559.356 101.456 564.508 108.47C557.599 107.946 553.639 104.842 551.72 97.9693C549.659 90.5929 548.891 82.9545 548.689 75.3363C548.305 60.6842 547.942 45.9919 549.538 31.36Z" fill="#8863D5"/>
<path d="M607.904 3.97009C596.085 9.83494 593.156 21.9677 588.024 32.4479C582.671 43.3714 578.468 54.7786 573.721 66.1052C574.852 57.9227 575.983 49.7401 577.095 41.5575C581.378 32.7099 584.65 23.3584 590.125 15.1355C594.307 8.82723 599.358 3.54685 607.884 3.97009H607.904Z" fill="#8863D5"/>
<path d="M543.497 10.9238C543.194 11.2463 542.891 11.5889 542.588 11.9114C542.548 11.2463 542.911 10.9843 543.497 10.9238Z" fill="#8863D5"/>
<path d="M568.771 29.9289C568.63 32.0854 569.195 34.5644 566.609 34.6853C563.902 34.8264 565.155 32.2466 564.831 30.856C563.599 25.6764 563.114 20.2549 559.417 15.9823C558.548 14.9746 557.276 13.9467 558.892 12.6568C560.205 11.6088 561.397 12.2537 562.447 13.2816C567.215 17.9775 567.619 24.2858 568.771 29.9491V29.9289Z" fill="#FEFEFE"/>
<path d="M627.218 28.4975C627.259 29.9083 626.996 31.299 625.441 31.6819C623.38 32.1857 623.501 30.4726 623.259 29.2029C622.067 23.197 619.925 17.7151 614.632 14.0269C613.885 13.5029 613.299 12.8781 614.026 12.0316C615.097 10.8022 616.208 11.1045 617.561 11.8301C622.269 14.3897 627.34 22.9552 627.218 28.4774V28.4975Z" fill="#FEFEFE"/>
<path d="M196.695 12.7979C213.847 24.7089 225.181 40.6508 231 60.7243C236.151 78.46 231.707 93.5554 219.828 107.119C216.05 111.432 211.868 115.241 207.443 118.829C200.938 117.922 195.503 115.02 190.836 110.404C169.038 88.8595 165.34 49.7605 182.876 24.7089C186.452 19.6099 190.695 15.176 196.695 12.818V12.7979Z" fill="#FEFEFE"/>
<path d="M196.695 12.7977C190.695 15.1557 186.452 19.6098 182.876 24.6886C165.32 49.7402 169.037 88.8392 190.836 110.384C195.503 114.999 200.938 117.901 207.443 118.808C207.867 123.686 204.372 122.799 201.786 122.255C194.351 120.723 188.109 116.914 182.957 111.351C162.168 88.8795 158.835 50.9696 175.442 25.3134C179.906 18.4207 185.604 12.8985 193.24 9.57304C194.654 8.94827 196.17 8.40411 197.422 9.75443C198.594 11.004 197.18 11.8303 196.695 12.7775V12.7977Z" fill="#242424"/>
<path d="M224.999 16.9097C226.534 16.6679 227.726 17.5144 228.878 18.5825C234.979 24.3063 239.444 31.0579 241.788 39.1397C242.454 41.4373 242.717 43.4326 239.646 44.1783C236.939 44.8434 235.585 43.7349 234.999 41.1552C233.222 33.2144 228.797 26.8457 223.12 21.1824C222.292 20.3561 220.534 19.9329 221.16 18.1391C221.363 17.5547 223.484 16.8896 225.019 16.8896L224.999 16.9097Z" fill="#242424"/>
<path d="M245.93 54.8188C246.374 59.1721 243.829 59.9379 241.606 59.9178C237.283 59.8976 239.263 55.8466 238.576 53.7506C237.849 51.4934 240.515 51.191 242.293 51.1104C245.647 50.9492 245.586 53.6498 245.93 54.8188Z" fill="#242424"/>
<path d="M97.7419 120.502C98.8126 105.83 99.0349 91.1574 98.752 76.4449C105.237 75.5783 111.338 77.2712 117.44 79.1859C123.117 80.9796 126.369 84.8693 127.945 90.3311C128.632 92.7093 128.915 95.2084 129.44 97.647C131.44 106.938 126.632 114.899 117.419 117.62C110.995 119.514 104.308 119.696 97.7217 120.502H97.7419Z" fill="#FEFEFE"/>
<path d="M98.7518 60.9863C98.7518 46.6366 98.7518 32.2667 98.8124 17.917C98.8124 16.1636 98.0851 14.1885 99.8832 12.7979C108.389 17.4131 114.813 24.0438 119.359 32.5489C121.278 36.1162 121.419 39.7439 120.409 43.674C117.5 54.92 108.833 58.7896 98.7518 61.0065V60.9863Z" fill="#FEFEFE"/>
<path d="M97.7415 120.502C104.328 119.695 110.995 119.514 117.439 117.62C126.672 114.899 131.46 106.958 129.46 97.6469C128.935 95.2082 128.652 92.7091 127.965 90.3309C126.389 84.8692 123.137 80.9794 117.46 79.1857C111.358 77.2509 105.257 75.5781 98.7719 76.4447C98.085 72.1519 100.065 71.1442 104.146 71.1644C119.823 71.245 129.985 77.6741 133.42 91.1572C136.248 102.262 133.581 112.662 127.076 122.074C125.238 124.734 122.227 125.056 119.5 125.399C114.368 126.064 109.156 126.044 104.025 126.709C98.9133 127.374 96.7718 125.641 97.7617 120.481L97.7415 120.502Z" fill="#E0714B"/>
<path d="M98.7517 60.9863C108.833 58.7693 117.5 54.9199 120.409 43.6537C121.419 39.7237 121.278 36.0959 119.359 32.5287C114.813 24.0438 108.388 17.3929 99.883 12.7776C99.3375 11.7296 97.095 11.5281 98.1658 9.69404C98.7719 8.64602 99.9234 8.96849 100.893 9.14988C121.096 12.8784 130.511 30.5132 126.046 46.2335C123.217 56.1291 112.833 63.3645 101.418 65.0977C97.9839 65.6217 99.0547 62.7195 98.7314 60.9661L98.7517 60.9863Z" fill="#E0714B"/>
<path d="M671.806 69.2701C671.806 85.1717 671.806 101.073 671.806 116.975C671.806 119.111 672.291 121.369 669.624 122.537C666.958 123.706 664.372 123.283 661.786 122.477C660.25 121.993 660.594 120.623 660.614 119.535C661.058 103.814 661.321 88.0941 662.19 72.4142C662.372 69.0484 661.422 65.9649 661.503 62.7201C661.947 46.6774 662.25 30.6145 662.654 14.5517C662.695 13.02 661.988 10.9038 664.776 10.9643C666.836 11.0046 669.16 10.2589 669.988 13.4231C670.614 15.8013 671.766 18.0384 671.746 20.598C671.746 36.8422 671.746 53.0662 671.746 69.3105C671.766 69.3105 671.786 69.3105 671.827 69.3105L671.806 69.2701Z" fill="#FEFEFE"/>
<path d="M399.309 71.0833C399.309 86.1586 399.309 101.234 399.309 116.289C399.309 119.755 393.269 123.464 390.238 121.852C388.683 121.025 389.309 119.433 389.41 118.244C391.511 96.679 389.733 75.0738 390.42 53.5089C390.743 43.6132 389.107 33.8183 389.329 23.9428C389.41 20.4964 387.652 19.3678 384.258 19.5492C376.884 19.912 369.51 19.9321 362.136 20.0934C360.5 20.1337 358.196 20.5368 358.904 17.8966C359.55 15.4176 356.54 11.4674 361.429 10.5605C367.247 9.4923 373.288 9.31091 378.985 10.1977C386.016 11.286 392.945 10.7822 399.915 10.9434C408.3 11.1449 416.704 11.1248 425.108 10.9031C427.694 10.8225 429.048 11.286 428.381 13.9665C427.816 16.2439 429.856 20.1135 424.846 19.9926C418.967 19.8515 413.088 19.8918 407.209 19.9926C399.289 20.0934 399.047 20.3755 399.047 27.9535C399.047 42.3435 399.047 56.7336 399.047 71.1236H399.35L399.309 71.0833Z" fill="#FEFEFE"/>
<path d="M50.3459 73.1993C44.0224 73.3605 38.3454 72.9978 32.7088 73.9047C30.6885 74.2272 28.446 74.2675 29.2541 71.0025C32.931 56.2295 36.5877 41.4566 41.0525 26.6836C44.1234 42.041 47.1942 57.4186 50.3459 73.1993Z" fill="#FEFEFE"/>
<path d="M18.9903 80.6571C17.1518 87.7513 15.3134 94.8657 13.4951 101.96C13.6769 94.4828 15.778 87.4289 17.5559 80.3145C18.0408 80.4354 18.5054 80.5362 18.9903 80.6571Z" fill="#FEFEFE"/>
<path d="M22.2841 66.3477C21.7184 69.0282 21.1325 71.7087 20.5668 74.3892C20.2032 71.4467 19.7183 68.4034 22.4457 66.4081L22.3043 66.3477H22.2841Z" fill="#FEFEFE"/>
<path d="M22.4453 66.4082C20.9098 65.8036 22.1826 64.8765 22.2028 64.1106C22.2028 64.03 22.6473 63.9494 22.8897 63.8486C23.1524 64.7959 23.1928 65.6827 22.2836 66.3477L22.4453 66.4082Z" fill="#FEFEFE"/>
<path d="M72.3266 115.483C69.0335 95.3489 72.7913 75.3963 72.3266 55.4639V115.483Z" fill="#BBD6C8"/>
</g>
<defs>
<clipPath id="clip0_359_2513">
<rect width="723" height="136" fill="white"/>
</clipPath>
</defs>
</svg>
