<svg width="142" height="74" viewBox="0 0 142 74" fill="none" xmlns="http://www.w3.org/2000/svg">
<path d="M3.74738 33.9953C3.76408 33.9885 3.77909 33.9824 3.79427 33.9763C4.80752 33.5714 5.89104 33.3622 6.92786 33.2385C7.87692 33.1271 8.77978 33.0927 9.56561 33.0904C9.70252 33.0901 9.78551 33.1006 9.84006 33.116C9.99201 33.1592 9.92375 33.2394 10.1851 33.2464C10.8782 33.2659 11.5167 33.1847 12.1925 33.2384C12.4169 33.2571 12.1405 33.4697 12.3747 33.4848C12.4702 33.4909 12.5647 33.4964 12.6585 33.5014C13.5985 33.5512 14.4882 33.5487 15.4222 33.587C15.6524 33.5965 15.8963 33.6091 16.131 33.6254C16.7756 33.6692 17.553 33.7297 18.0342 33.7558C18.0343 33.7558 18.0342 33.7558 18.0343 33.7558C19.1483 33.7699 20.2568 33.7755 21.3699 33.7768C22.4836 33.7782 23.5982 33.7751 24.7151 33.772C25.8302 33.7688 26.9476 33.7655 28.0691 33.7663C29.1853 33.7671 30.3055 33.7719 31.4312 33.7851C32.5021 33.7978 33.5779 33.818 34.6599 33.8498C34.7066 33.8512 34.7534 33.8527 34.8005 33.8543C35.8492 33.8891 37.0157 33.9744 38.1722 34.0603C39.2756 34.1423 40.3832 34.2068 41.4086 34.2055C41.6583 34.2049 41.5166 34.0152 41.5646 34.0018C41.5833 33.9968 41.6013 33.9921 41.6188 33.9877C42.3055 33.8154 42.0682 34.1616 42.5406 34.2277C43.3499 34.3405 44.1986 34.4236 45.0496 34.4834C46.2206 34.5657 47.3951 34.6042 48.475 34.6136C48.4833 34.6137 48.4914 34.6137 48.4994 34.6137C49.2523 34.6121 48.4999 34.2194 49.2796 34.4606C49.3343 34.4772 49.1238 34.6628 49.34 34.6943C49.8301 34.765 50.7665 34.7791 51.1475 34.8161C51.5198 34.8523 51.7344 34.872 51.9465 34.8879C52.1529 34.9035 52.3563 34.9155 52.6997 34.9376C53.527 34.9924 54.4857 35.1305 55.3949 35.1884C55.5314 35.1971 55.6668 35.204 55.8007 35.2084C56.0195 35.2152 55.7462 34.9929 56.0968 34.9858C56.4476 34.9783 57.369 35.0718 57.6764 35.1471C57.9835 35.2217 57.8367 35.367 57.8885 35.4079C58.1034 35.5823 58.4926 35.5853 58.841 35.5475C59.1775 35.5106 59.4754 35.431 59.5422 35.4317C61.4118 35.4583 63.0551 35.6514 64.7623 35.7651C65.3063 35.8011 65.8551 35.8283 66.4162 35.8376C67.8208 35.8608 69.3047 35.8082 70.6993 35.7726C71.0521 35.7637 71.3991 35.7559 71.7379 35.7511C73.4844 35.7261 75.0033 35.7565 76.6574 35.6952C76.8969 35.6863 77.1392 35.6754 77.3855 35.6619C77.5909 35.651 77.3395 35.4262 77.5903 35.4123C79.2674 35.3188 80.94 35.2351 82.6166 35.1918C83.6035 35.1662 84.5919 35.1546 85.5828 35.1632C85.851 35.1657 85.517 35.39 85.7855 35.405C86.6046 35.4482 87.6629 35.5405 88.6339 35.5089C89.6118 35.4768 90.5015 35.3196 90.9743 34.8499C92.0882 34.8438 93.4452 34.8414 94.4414 35.0045C94.5218 35.0176 94.5826 35.0328 94.6286 35.0492C94.9491 35.1631 94.5649 35.3336 95.2472 35.2344C95.4226 35.2088 95.1896 35.0168 95.4527 34.9932C96.1694 34.9285 96.9332 34.9138 97.6802 34.8697C98.0856 34.8459 98.4857 34.8135 98.8708 34.7602C99.0937 34.7289 99.0245 34.5548 99.0864 34.5201C99.6061 34.2382 100.514 34.6199 100.71 34.6407C100.718 34.6416 100.727 34.6425 100.736 34.6434C101.896 34.762 102.806 34.6932 103.81 34.625C104.08 34.6066 104.357 34.5881 104.648 34.5734C104.967 34.5573 104.576 34.3406 104.884 34.3166C105.538 34.2668 106.204 34.2263 106.87 34.1988C107.826 34.1593 108.784 34.1469 109.712 34.172C110.063 34.1822 109.749 34.3972 109.917 34.4125C109.935 34.414 109.952 34.4153 109.969 34.4164C110.663 34.4601 110.822 34.0917 111.516 34.1512C111.666 34.1637 111.586 34.3395 111.614 34.3577C112.048 34.6441 112.407 34.2122 112.516 34.2004C112.704 34.1788 112.883 34.1683 113.055 34.1662C114.149 34.1539 114.976 34.475 116.13 34.4347C116.29 34.429 115.931 34.2046 116.382 34.202C116.748 34.2002 117.116 34.202 117.487 34.2073C118.946 34.2278 120.431 34.3025 121.897 34.417C123.111 34.5116 124.313 34.6332 125.479 34.7723C125.935 34.8265 125.599 34.9715 125.626 34.9935C125.882 35.1896 126.099 35.1428 126.266 35.0646C126.393 35.0053 126.491 34.9279 126.556 34.9249C127.739 34.8802 128.818 35.3003 129.644 34.8377C129.985 34.8684 130.326 34.8964 130.667 34.9218C132.124 35.0306 133.58 35.0937 135.031 35.1291C136.49 35.1646 137.932 35.1723 139.388 35.1716C139.581 35.1714 139.762 35.1722 139.955 35.1746C140.066 35.7072 140.538 33.717 140.373 36.7862C140.161 36.7935 139.976 36.7927 139.783 36.7912C139.592 36.7893 139.4 36.7851 139.209 36.7781C139.017 36.7711 138.825 36.7616 138.629 36.7474C138.435 36.732 138.229 36.7176 137.989 36.6737C137.718 36.6175 137.437 36.549 137.172 36.4755C136.904 36.4015 136.64 36.3206 136.379 36.2342C136.332 36.2186 136.284 36.2028 136.237 36.1867C136.176 36.1665 136.337 35.99 136.216 35.9506C135.991 35.8768 135.807 35.8216 135.651 35.7827C135.244 35.6801 135.033 35.6918 134.822 35.7445C134.599 35.8001 134.376 35.9005 133.926 35.9511C133.915 35.9523 133.905 35.9534 133.894 35.9546C133.726 35.9719 133.429 35.72 133.215 35.5153C133.086 35.3913 132.986 35.2855 132.965 35.2662C132.763 35.0795 133.087 34.8416 133.015 34.7968C132.397 34.439 132.265 35.4627 131.392 35.2776C131.365 35.2703 131.519 35.1082 131.449 35.0745C131.427 35.0642 131.405 35.0552 131.384 35.0472C131.181 34.9735 130.964 34.9885 130.769 34.8932C130.333 34.6796 130.196 34.2429 129.577 34.2606C129.496 34.2631 129.407 34.2738 129.308 34.2941C129.201 34.3188 129.275 34.9136 128.478 34.7858C128.337 34.7635 127.983 34.7209 127.596 34.6796C127.105 34.6262 126.561 34.5768 126.339 34.5397C125.942 34.4736 126.229 34.3051 126.201 34.2949C125.99 34.2306 125.837 34.1773 125.722 34.1292C125.26 33.9363 125.445 33.821 125.019 33.5045C124.482 33.1139 124.6 33.9968 124.376 34.0865C124.269 34.1288 124.039 34.1006 123.803 34.0528C123.537 33.9988 123.266 33.9204 123.161 33.8818C122.965 33.8088 123.211 33.6909 123.036 33.6492C121.869 33.3853 122.53 34.0848 122.15 34.2261C122.061 34.2603 121.973 34.2848 121.888 34.3013C121.11 34.4497 120.456 33.9336 119.708 33.8974C119.484 33.8867 119.671 34.0293 119.472 34.049C118.939 34.1007 118.546 34.0322 118.07 34.05C117.844 34.0586 117.598 34.0869 117.31 34.1578C117.164 34.1934 116.454 34.6117 115.972 34.3447C115.904 34.3062 116.086 34.1365 115.748 34.1142C115.369 34.089 114.762 34.085 114.255 34.1183C114.087 34.1292 113.93 34.1443 113.797 34.1638C113.399 34.2221 113.869 34.4677 113.363 34.4079C113.138 34.3813 113.544 34.2062 113.122 34.1692C112.702 34.1319 111.635 34.1895 111.229 34.2145C110.824 34.2394 111.056 34.431 111.023 34.4462C110.926 34.4901 110.683 34.5459 110.456 34.591C110.23 34.6359 110.021 34.6702 109.987 34.6717C108.849 34.7345 107.738 34.7562 106.64 34.7638C105.355 34.7727 104.088 34.7624 102.814 34.776C101.856 34.7863 100.894 34.8101 99.9176 34.8652C99.652 34.8798 99.8335 35.0892 99.7931 35.0936C98.8991 35.2006 99.5683 34.6387 98.9823 34.4515C98.9727 34.4484 98.9627 34.4454 98.9524 34.4426C99.052 34.8748 98.6762 34.7989 98.0455 34.8738C97.7422 34.9111 97.9156 35.0711 97.8885 35.0895C97.455 35.3656 97.124 35.0594 97.0369 34.9977C96.7195 34.7712 96.4158 35.0894 96.1986 34.9423C96.0013 34.8111 96.3477 34.5671 95.9705 34.5624C95.9292 34.5619 95.8792 34.5644 95.8188 34.5704C95.6631 34.7409 96.151 35.1016 95.6977 35.2108C95.0025 35.3794 94.0529 35.4977 93.0727 35.6048C92.0136 35.7193 90.9188 35.8169 90.0851 35.9058C89.7965 35.9365 89.5392 35.9662 89.3258 35.9956C88.1961 36.1513 87.6872 36.2465 87.0992 36.3145C86.9598 36.3306 86.8159 36.3451 86.6581 36.3584C85.1704 36.4787 85.7546 36.6954 84.8531 36.9601C83.9451 37.2187 84.3015 36.4249 84.1487 36.2848C84.1118 36.2499 84.0767 36.2346 84.0422 36.2303C83.9369 36.2173 83.8362 36.3068 83.7071 36.2561C83.5366 36.1886 83.8699 36.0399 83.4901 36.0521C83.1115 36.0668 82.1117 36.4517 81.9886 36.6269C81.7329 37.0016 82.2337 37.3347 81.2087 37.284C81.15 37.2805 81.3249 37.073 81.101 37.0693C81.0972 37.0692 81.0934 37.0692 81.0897 37.0691C79.3248 37.0431 77.4997 37.1521 75.7385 37.1242C75.5149 37.1204 75.67 36.9257 75.585 36.8915C75.5778 36.8886 75.5688 36.8868 75.5578 36.8864C74.0858 36.8336 74.6305 37.1671 73.8496 37.6169C73.9999 37.0682 73.5379 36.7645 72.4272 36.8198C71.7594 36.8524 71.8864 37.0816 71.4625 37.2692C71.3353 37.3258 70.8544 37.1875 70.7741 37.3023C70.5387 37.6353 70.8787 37.975 70.1508 37.9727C70.0583 37.9724 69.9486 37.9665 69.8184 37.9543C69.7677 37.949 69.9189 37.7435 69.7443 37.7396C68.6163 37.712 68.4984 38.0965 67.283 38.192C66.6202 38.2437 65.5928 38.1781 64.6633 38.1304C64.2567 38.1096 63.8688 38.0924 63.538 38.091C63.5421 37.4845 62.5227 37.6533 62.1173 38.0817C61.412 38.0832 60.6511 38.1245 59.9685 38.0804C59.7336 38.0654 59.8842 37.8868 59.8542 37.8684C59.5615 37.6844 59.3343 37.7853 59.1684 37.8874C59.0742 37.9454 58.9999 38.0037 58.9449 38.0104C57.2977 38.1931 55.9515 37.8982 54.3789 38.2045C54.3232 38.2155 54.2333 38.6372 53.8116 38.3301C53.7861 38.3102 54.2434 38.1393 53.6842 38.1071C53.6483 38.105 53.6082 38.1035 53.5636 38.1026C52.8222 38.0885 51.4288 37.8573 50.3986 38.0407C50.1495 38.0851 49.5141 38.4194 49.0132 38.1442C48.9466 38.1069 49.0222 37.9873 48.9262 37.9185C48.654 37.726 48.4829 38.0285 48.2002 37.8555C48.1608 37.8315 48.1194 37.7983 48.0753 37.7534C47.7121 37.3842 46.9576 37.0966 45.9186 37.3016C45.8858 37.3074 45.6269 37.6342 45.3012 37.6129C44.7818 37.5792 44.0489 37.467 43.5072 37.4338C43.2478 37.418 43.4 37.6379 43.3548 37.6388C43.024 37.6392 42.7119 37.6288 42.4106 37.61C41.1138 37.5283 40.0222 37.299 38.5163 37.0884C38.1982 37.0437 37.2929 37.2044 36.6549 36.9841C36.611 36.969 36.5685 36.9521 36.5275 36.9332C35.8277 36.6108 36.6803 35.6679 34.9906 35.7331C34.3095 35.7581 33.3153 36.9616 32.1814 36.1559C31.7602 36.1394 31.3464 36.1074 30.9373 36.0659C29.053 35.8754 27.2631 35.4844 25.3084 35.5023C25.2799 35.5026 25.2327 35.5264 25.1741 35.5608C25.0134 35.6551 24.7678 35.8285 24.586 35.8089C24.2177 35.7686 24.0294 35.5819 23.7663 35.5488C22.6641 35.4065 21.6406 35.4788 20.5753 35.3935C20.1706 35.3621 20.322 35.194 19.8384 35.1584C19.6826 35.1472 19.5422 35.1623 19.4019 35.183C19.1064 35.2268 18.8124 35.2955 18.371 35.2029C17.8795 35.0992 17.3978 34.6097 16.735 34.541C16.7006 35.0082 16.2473 34.987 15.4437 35.106C15.2894 35.1292 15.4548 35.2926 15.3819 35.312C15.0861 35.3946 14.8104 35.2602 14.5299 35.3533C14.4617 35.3756 14.4603 35.5353 14.4048 35.5626C14.1824 35.6752 13.8901 35.6576 13.6279 35.6026C13.3331 35.5408 13.0777 35.4296 13.0057 35.3979C12.4839 35.17 12.2459 35.382 11.8473 35.2959C11.4493 35.2097 12.0396 35.082 11.5757 35.0338C11.5008 35.026 11.4243 35.0192 11.3464 35.0131C10.6417 34.9584 9.82307 34.9699 9.07522 34.9828C8.84398 34.9867 8.6195 34.9908 8.40725 34.9932C8.01842 34.9984 8.2876 35.2065 8.23204 35.2122C7.73155 35.2551 7.22555 35.189 6.80929 35.2379C6.55771 35.2674 6.33891 35.3389 6.17393 35.5018C5.59703 34.4164 5.69085 35.6143 4.542 35.4194C4.54062 35.4192 4.53925 35.4189 4.53787 35.4187C4.4622 35.4053 4.36305 35.0446 4.53202 34.8768C4.56592 34.8431 4.61061 34.8172 4.66845 34.8034C5.01457 34.7209 5.54454 34.8734 6.02452 34.7458C6.11995 34.7206 6.58993 34.3655 6.79082 34.2338C6.82923 34.2086 6.85781 34.1916 6.87205 34.1866C7.56688 33.9436 7.6802 34.717 7.71798 34.7589C8.10454 35.1671 8.78645 34.767 9.06922 34.6564C9.09943 34.6446 9.12508 34.6361 9.14533 34.6322C9.94966 34.4784 10.6559 34.5195 11.3362 34.4585C11.4678 34.4467 11.5984 34.4311 11.7285 34.4095C12.2539 34.3233 12.2961 33.8146 12.71 33.8225C13.0516 33.829 13.3388 33.877 13.5973 33.9357C14.3882 34.1148 14.9022 34.3962 15.8934 33.9429C16.1764 33.816 15.9042 33.2539 16.913 33.7095C16.9778 33.7379 17.7147 34.1555 18.1544 33.9191C18.2098 33.8892 18.2139 33.7275 18.2861 33.7165C18.7257 33.6528 19.0255 33.7642 19.47 33.7581C19.5155 33.7575 19.5625 33.7557 19.6114 33.7524C20.137 33.7162 20.7718 33.6598 21.3642 33.753C21.7218 33.8087 22.1606 34.1416 22.3261 34.2276C22.7934 34.4742 23.3375 34.1673 23.6159 34.4483C23.8952 34.7308 23.2772 35.0739 24.049 35.3057C24.1134 34.8893 24.2168 34.4651 24.2998 34.048C24.6352 34.0794 24.9692 34.1163 25.3018 34.1565C26.687 34.3241 28.0516 34.5492 29.4447 34.6831C29.6589 34.7033 29.4642 34.4552 29.6945 34.4711C30.1829 34.5054 30.6346 34.5865 31.091 34.6646C31.5425 34.7419 31.9987 34.8162 32.4996 34.8395C33.2794 34.8749 34.1534 34.7308 34.9667 34.7584C35.3032 35.164 36.0907 35.2408 36.8282 35.3122C37.0574 35.3344 37.2818 35.3562 37.4866 35.3874C37.7892 35.4333 37.7561 35.559 37.9683 35.6223C38.7698 35.8571 38.4284 35.3962 38.6584 35.3515C39.643 35.1584 39.6358 36.1249 40.7721 36.1994C40.8328 36.2041 41.6072 35.7533 41.7097 35.7288C42.3651 35.571 41.8016 35.9152 42.1993 35.9837C42.3127 36.003 42.4205 36.0232 42.5251 36.043C43.0906 36.1499 43.5625 36.25 44.2943 36.1664C44.5478 36.1369 45.1633 35.8509 45.6331 36.1198C45.6952 36.155 45.6525 36.3227 45.7034 36.335C46.6258 36.5408 46.6689 36.0071 47.2029 35.8442C47.5129 35.749 47.9166 35.839 48.2356 35.951C48.4674 36.0321 48.6531 36.1258 48.7231 36.1715C49.1602 36.4529 48.3825 36.283 48.358 36.3092C48.0708 36.624 48.6776 36.5804 49.1399 36.6143C49.1983 37.1377 49.8465 37.1152 49.6188 36.6472C49.5929 36.5961 49.2325 36.6397 49.1399 36.6143C49.5548 36.1083 50.2619 36.0523 51.0409 36.5377C51.4063 36.7647 51.0568 37.0249 52.1748 36.9353C52.6821 36.8942 52.4874 36.5339 52.9344 36.437C53.1702 36.3858 53.4222 36.3642 53.6832 36.3604C54.5526 36.3477 55.5251 36.5316 56.3346 36.4834C56.7164 36.4606 56.3425 36.2674 56.6032 36.2449C57.2949 36.1845 57.9076 36.3241 58.6022 36.2373C58.665 36.2292 58.5078 36.0257 58.7239 36.0195C58.8623 36.0152 58.9992 36.0119 59.1349 36.0095C60.6055 35.9834 61.9367 36.0625 63.504 36.0186C63.802 36.0102 64.184 35.9839 64.5909 35.9528C65.3135 35.8977 66.1144 35.8271 66.6628 35.8204C67.7253 35.807 68.9689 35.9148 70.0546 35.9266C70.487 35.9313 70.8942 35.921 71.2546 35.8823C72.0796 35.7942 71.8877 35.5973 72.2347 35.4388C72.9036 35.132 74.1398 35.5516 74.3077 35.6174C74.3129 35.6197 73.6035 35.708 73.9893 35.7924C74.2227 36.0001 74.2997 35.6188 74.3077 35.6174C74.3789 35.6451 75.0031 35.6404 75.5096 35.6173C75.784 35.6049 76.0239 35.5873 76.1224 35.5674C76.2745 35.5367 76.1769 35.347 76.2564 35.3346C77.8068 35.097 79.3577 34.9362 80.9356 34.8598C81.2765 34.8435 81.6135 34.8278 81.948 34.8135C81.9809 34.8144 81.9511 35.0365 82.0286 35.0359C82.7561 35.0331 83.3069 34.8685 83.8475 34.6796C84.1112 34.5875 84.3746 34.4889 84.6609 34.3973C85.5054 34.1269 86.2058 34.0637 86.7882 34.3179C86.8091 34.327 86.8299 34.3365 86.8505 34.3464C87.5262 34.1936 88.5381 34.1973 89.1242 34.2046C89.6145 34.2108 89.7034 33.9088 89.748 33.8006C89.7567 33.7796 89.7637 33.7659 89.7717 33.7632C90.9031 33.3808 91.7245 33.3368 92.7489 33.266C93.1077 33.2415 93.492 33.2141 93.9255 33.1705C94.3894 33.1239 95.1185 33.0236 95.8224 32.9352C96.3244 32.8715 96.8127 32.8134 97.1776 32.7715C97.8771 32.6918 98.3095 32.7744 98.9371 32.6976C98.942 32.697 98.9462 32.6958 98.95 32.6942C99.0105 32.6667 98.9344 32.4994 98.9581 32.4921C99.6356 32.2524 99.3168 32.7213 99.4593 32.8011C99.9757 33.0905 100.295 33.2438 101.163 33.0777C101.364 33.0397 101.93 32.3558 102.295 32.3044C102.575 32.2658 102.63 32.3348 102.73 32.3827C102.8 32.4161 102.891 32.4392 103.096 32.408C103.138 32.4017 103.124 32.2549 103.432 32.2499C104.422 32.2325 105.476 32.2352 106.525 32.2103C106.994 32.1993 107.462 32.1827 107.923 32.1565C108.127 32.1455 107.855 31.9243 108.149 31.9046C108.851 31.8574 109.588 31.8173 110.321 31.7951C111.032 31.7736 111.739 31.7691 112.407 31.7916C112.741 31.8035 112.54 31.9768 112.615 32.0219C113.072 32.2947 113.682 31.8392 113.786 31.8264C113.908 31.8106 114.03 31.7964 114.15 31.7836C115.516 31.6382 116.726 31.6746 117.988 31.6775C118.849 31.6796 119.733 31.6661 120.716 31.5716C120.812 31.5617 121.352 31.3258 121.833 31.3132C122.047 31.3075 122.256 31.3458 122.408 31.4647C122.443 31.4904 122.934 31.8894 123.361 31.6205C123.389 31.6039 123.088 31.3926 123.616 31.4212C123.692 31.4255 123.772 31.4268 123.859 31.4268C124.384 31.4258 125.104 31.378 125.716 31.609C125.757 31.6245 125.808 31.6518 125.869 31.6843C126.138 31.829 126.581 32.0771 127.158 31.8649C127.184 31.8547 127.537 31.6574 127.908 31.5787C128.207 31.5146 128.517 31.5281 128.66 31.7692C128.713 31.8594 128.585 32.3698 129.431 32.2082C129.594 32.1777 129.326 32.0216 129.748 32.0064C129.8 32.0046 129.853 32.0047 129.907 32.0065C130.508 32.0252 131.226 32.2399 131.96 32.1953C131.985 32.1938 132.009 32.1921 132.033 32.19C132.177 32.1762 132.834 31.9486 133.254 32.3327C133.318 32.3925 133.134 32.5281 133.38 32.6097C133.578 32.6761 133.775 32.7384 133.966 32.7976C134.224 32.8775 134.489 32.9528 134.747 33.0244C135.005 33.096 135.261 33.1653 135.513 33.2367C135.766 33.3083 136.015 33.382 136.257 33.4622C136.385 33.5045 136.511 33.5486 136.636 33.5951C136.892 33.6907 136.83 33.8372 136.915 33.9743C136.947 34.0266 137 34.0773 137.101 34.1219C137.232 34.1799 137.412 34.2473 137.608 34.3043C137.85 34.3744 138.089 34.4238 138.32 34.4341C138.374 34.4289 138.407 34.4123 138.485 34.3897C138.702 34.3199 138.654 34.119 138.697 33.9689C138.727 33.8708 138.793 33.7944 139.024 33.781C139.08 33.7777 139.136 33.7743 139.193 33.771C139.362 33.7609 139.536 33.7508 139.706 33.7407C139.872 33.7308 140.065 33.7199 140.173 33.7104C140.477 42.4736 140.103 36.7529 139.985 38.2759C139.811 38.2778 139.636 38.2796 139.445 38.2811C137.959 38.293 136.438 38.2029 134.958 38.1129C134.384 38.0782 133.809 38.0434 133.235 38.0146C132.808 37.9926 133.156 38.1688 132.527 38.1468C131.94 38.1259 131.246 38.1062 130.506 38.0793C129.066 38.0272 127.452 37.9466 126.103 37.8004C125.405 37.7247 124.777 37.6317 124.278 37.5147C122.71 37.148 124.715 37.052 123.511 36.8707C122.929 36.784 122.271 37.2772 122.129 37.2866C121.999 37.2957 121.873 37.3015 121.751 37.3046C120.57 37.3352 119.693 37.1108 118.576 37.1381C118.322 37.1447 118.564 37.3664 118.348 37.3698C118.038 37.3756 117.724 37.3589 117.41 37.3383C116.977 37.3098 116.547 37.2737 116.14 37.2784C115.825 37.2828 115.881 37.4467 115.593 37.4315C114.905 37.3977 114.304 37.3299 113.624 37.1851C113.562 37.1719 113.975 36.9636 113.461 36.9627C113.346 36.9627 113.228 36.9604 113.106 36.957C113.106 36.957 113.106 36.957 113.106 36.957C112.337 36.9351 111.458 36.8655 110.629 37.0299C110.414 37.0732 110.363 37.2979 110.081 37.3027C109.991 37.3042 109.876 37.2833 109.725 37.2269C109.594 37.1786 109.74 36.7234 109.04 37.141C108.922 37.2099 107.744 37.7871 107.136 37.4818C107.109 37.4683 107.074 37.4471 107.034 37.4218C106.837 37.2966 106.5 37.0684 106.215 37.1314C106.169 37.1431 106.367 37.3333 106.082 37.368C105.396 37.4492 104.684 37.4926 103.971 37.5501C103.639 37.5769 103.307 37.6067 102.977 37.6448C102.7 37.6771 103.126 37.8616 102.712 37.9032C102.158 37.959 101.534 37.9932 100.909 38.0116C100.251 38.0311 99.5916 38.0329 99.0135 38.0256C98.5979 38.0197 98.8768 37.8353 98.8458 37.818C98.3479 37.5356 98.0787 37.9571 97.9178 37.9875C97.8794 37.9946 97.8412 38.0011 97.8034 38.0072C96.8608 38.1576 96.1085 38.0053 95.215 38.0749C94.9591 38.0941 95.1447 38.2858 95.0941 38.3044C94.6083 38.4723 94.9036 38.1766 94.6849 38.1063C94.6677 38.1006 94.6472 38.0964 94.6229 38.094C93.7021 38.0013 92.6851 38.0447 91.7638 38.1009C91.4249 38.1219 91.8137 38.3357 91.5097 38.352C90.6079 38.403 89.6851 38.4448 88.7661 38.4696C87.8491 38.4943 86.9351 38.502 86.0471 38.4843C85.7122 38.4773 85.9132 38.2921 85.8417 38.2558C85.348 38.0012 84.664 38.4183 84.504 38.463C83.7765 38.6669 83.4821 38.5278 82.8325 38.5909C82.8203 38.5921 82.8081 38.5933 82.7959 38.5945C80.9474 38.7743 78.8371 38.8847 76.796 38.9444C75.3401 38.9874 73.9199 39.0039 72.6585 39.0095C71.9997 39.0127 71.3646 39.0095 70.7464 39.0017C68.6186 38.9739 66.691 38.8942 64.6663 38.8048C63.7401 38.7634 62.795 38.7192 61.7965 38.6712C61.5532 38.6591 61.7844 38.906 61.5739 38.8983C60.5493 38.8562 59.5351 38.7774 58.5415 38.678C57.4095 38.5647 56.2957 38.4604 55.1571 38.3838C54.6719 38.3512 54.185 38.3239 53.6959 38.3038C53.4811 38.2946 53.7755 38.535 53.4305 38.5278C52.9183 38.5184 52.3083 38.481 51.7406 38.4196C51.5239 38.3962 51.3137 38.3692 51.1171 38.3388C50.7697 38.2855 51.2487 38.1226 50.8987 38.073C50.0836 37.9571 49.2048 37.897 48.3595 37.8927C48.3547 37.8927 48.35 37.8927 48.3455 37.8928C48.014 37.8981 48.5245 38.1416 48.0643 38.1228C47.0094 38.0814 45.9592 38.0464 44.9087 38.0027C43.7666 37.9551 42.6242 37.8974 41.475 37.8103C40.4969 37.7362 39.5127 37.6407 38.5209 37.5122C38.3763 37.4934 38.2508 37.288 38.0488 37.1673C37.9427 37.1034 37.815 37.0633 37.6524 37.0879C37.6125 37.2136 37.6088 37.3632 37.5884 37.4984C36.6388 37.4794 35.6963 37.4615 34.7458 37.4455C33.6463 37.427 32.546 37.4113 31.4432 37.4003C30.3405 37.3893 29.2354 37.3829 28.1267 37.3831C27.021 37.3833 25.9116 37.39 24.7974 37.4051C24.4586 37.4097 24.1193 37.4151 23.7796 37.4213C23.5829 37.425 23.9285 37.6596 23.5477 37.6679C22.8489 37.6833 22.1559 37.706 21.4625 37.7233C20.3539 37.7509 19.2395 37.7649 18.107 37.7123C17.582 37.6873 17.2121 37.631 16.8136 37.5758C16.5915 37.544 16.7196 37.1207 16.0623 37.1621C16.0065 37.1669 15.641 37.1758 15.3205 37.2011C15.0572 37.2196 14.8292 37.2476 14.714 37.2851C14.6788 37.2983 14.8552 37.5014 14.536 37.5005C13.9206 37.4983 13.3004 37.4937 12.6749 37.4891C11.8037 37.4827 10.9276 37.4765 10.0751 37.4782C9.73589 37.479 9.40145 37.4809 9.07068 37.4849C8.78836 37.4884 9.06953 37.2516 8.86777 37.2527C8.41549 37.2568 7.95815 37.2979 7.51062 37.3604C6.67481 37.4766 5.86091 37.6705 5.2112 37.8319C5.0916 37.8619 4.97846 37.8906 4.87669 37.9148C4.25401 38.0954 4.29388 37.656 3.77538 37.6041C3.68245 37.6011 3.47887 37.8714 3.29272 37.8224C2.75438 37.7267 2.39184 37.137 1.81961 37.0286C1.58696 36.9722 1.46497 38.5889 1.32765 37.5956C1.25159 37.5086 1.6768 36.3275 1.83212 36.1119C1.91307 35.9177 1.50609 36.0472 1.72471 35.6806C1.95158 35.3254 2.38077 35.2097 2.77953 34.8588C3.15931 34.54 2.88849 34.373 3.74738 33.9953ZM91.7693 34.2444C92.3302 34.3678 92.3023 33.6164 91.7506 33.8785C91.7241 33.8921 91.7404 34.2386 91.7693 34.2444ZM27.6483 35.0811C28.3101 35.4801 28.836 35.0483 28.3717 34.7435C27.9064 34.4393 27.4462 34.9602 27.6483 35.0811ZM20.3922 34.7255C21.1928 35.0329 21.3901 33.9831 20.4963 34.1445C20.4442 34.1536 20.3451 34.7077 20.3922 34.7255ZM5.57224 36.6615C5.55904 36.6524 5.17677 36.7534 5.1661 36.7698C5.0388 37.0537 5.7939 36.8516 5.57224 36.6615ZM13.1823 34.8489C13.2839 34.9037 13.4593 34.9089 13.6147 34.8845C13.8527 34.8471 14.0442 34.7416 13.8505 34.6364C13.7898 34.6036 13.7027 34.5883 13.6092 34.5867C13.3068 34.5812 12.9375 34.7169 13.1823 34.8489ZM119.676 33.5332C119.684 33.5441 119.994 33.5455 119.986 33.4827C119.96 33.2804 119.53 33.3499 119.676 33.5332ZM0.986338 35.0854C1.48284 35.0872 1.9267 35.1535 2.2682 35.2472C3.08556 35.4716 3.31662 35.8533 2.27995 35.8861C2.17716 35.8893 2.06191 35.8891 1.93354 35.885C1.70004 35.8776 2.10096 35.7535 2.27559 35.6491C2.35992 35.5987 2.39148 35.5529 2.27335 35.5271C2.26347 35.525 2.25255 35.5229 2.24052 35.5211C1.41029 35.3924 0.870867 35.9524 0.0209114 35.6733C-0.132966 35.6222 0.88347 35.083 0.989514 35.0841C0.988459 35.0845 0.987394 35.0849 0.986338 35.0854ZM92.2058 35.0877C92.2178 35.0957 92.6429 35.0438 92.6517 35.0329C92.8484 34.7646 91.9898 34.8692 92.2058 35.0877ZM137.422 36.2363C137.432 36.2502 137.751 36.3226 138.034 36.3681C138.291 36.4054 138.501 36.4044 138.514 36.398C138.773 36.2172 138.444 36.1179 138.08 36.0581C137.688 35.9825 137.233 35.9808 137.422 36.2363ZM63.5204 38.0754C63.0599 38.3282 62.5002 38.372 62.1195 38.082C62.5847 38.0857 63.0526 38.0748 63.5204 38.0754Z" fill="#F76B1C"/>
<path d="M139.166 39.651C139.096 39.7319 138.973 39.8305 138.825 39.9369C138.666 40.0516 138.479 40.174 138.299 40.2843C138.246 40.317 138.192 40.3488 138.141 40.3791C138.019 40.4508 137.981 40.3061 137.892 40.3524C137.786 40.4079 137.713 40.493 137.63 40.5713C137.576 40.6225 137.52 40.6702 137.447 40.7062C137.385 40.736 137.299 40.5281 137.238 40.5629C137.103 40.6399 136.987 40.7328 136.872 40.8338C136.698 40.9869 136.544 41.1488 136.293 41.3356C136.273 41.3499 136.254 41.3634 136.236 41.376C135.948 41.5616 135.739 41.7286 135.468 42.0069C135.211 42.2701 134.962 42.5725 134.72 42.8964C134.48 43.2191 134.246 43.5637 134.016 43.9209C133.787 44.2756 133.561 44.6436 133.33 45.0201C133.264 45.1281 133.198 45.2352 133.131 45.3447C132.976 45.5972 132.777 45.8607 132.575 46.1363C132.339 46.4583 132.099 46.7974 131.923 47.1532C131.886 47.2289 132.067 47.288 132.071 47.3097C132.09 47.4214 132.074 47.4648 132.039 47.4775C131.971 47.5006 131.824 47.4012 131.741 47.466C131.25 47.8508 130.878 48.3865 130.63 48.9021C130.525 49.1214 130.964 49.1167 130.66 49.2091C130.639 49.2157 130.508 49.0585 130.454 49.1028C130.391 49.1559 130.326 49.2526 130.269 49.3458C130.217 49.4292 130.17 49.5092 130.135 49.5515C129.989 49.7237 129.971 49.7564 129.856 49.934C129.698 50.1762 129.434 50.4167 129.309 50.7043C129.283 50.7659 129.499 50.7965 129.473 50.904C129.447 51.0117 129.287 51.2405 129.198 51.2963C129.109 51.3522 128.995 51.2363 128.955 51.2318C128.817 51.2149 128.77 51.2917 128.761 51.3896C128.75 51.5262 128.814 51.7036 128.806 51.7275C128.572 52.4675 128.041 52.906 127.694 53.5264C127.671 53.5673 127.649 53.6087 127.627 53.6506C127.396 54.0909 127.206 54.5789 126.98 54.987C126.802 55.3064 126.612 55.5817 126.435 55.8676C126.317 56.0587 126.206 56.2535 126.108 56.4697C126.082 56.5266 126.326 56.565 126.294 56.6343C126.054 57.1708 125.798 57.695 125.495 58.2001C125.382 58.3886 125.262 58.5745 125.135 58.7576C125.088 58.8251 124.94 58.6466 124.881 58.7092C124.526 59.0923 123.843 59.6687 124.569 60.2806C124.535 60.3456 124.499 60.4141 124.461 60.4837C124.317 60.7607 124.094 61.0915 123.849 61.2429C123.662 61.3629 123.566 61.1357 123.517 61.2924C123.512 61.309 123.507 61.33 123.503 61.3563C123.492 61.4175 123.701 61.4507 123.672 61.5358C123.565 61.838 123.355 62.0989 123.22 62.3806C123.195 62.4347 123.172 62.4896 123.152 62.5462C123.129 62.618 123.285 62.7027 123.3 62.7379C123.411 63.0305 122.896 63.0155 122.836 63.0456C122.736 63.0987 122.651 63.1547 122.578 63.214C122.315 63.4267 122.194 63.6808 121.996 63.9427C121.938 64.0201 122.197 64.0681 122.148 64.1475C122.147 64.1502 122.145 64.153 122.143 64.1557C121.967 64.435 121.774 64.7007 121.566 64.9414C121.471 65.0506 121.374 65.155 121.273 65.2531C121.202 65.3224 121.077 65.1396 121.034 65.1677C120.844 65.2964 121.153 65.5247 120.983 65.6589C120.979 65.6617 120.975 65.6633 120.969 65.6638C120.922 65.6673 120.805 65.5824 120.787 65.5799C120.466 65.5433 120.799 65.8266 120.797 65.8516C120.783 65.9885 120.704 66.0896 120.607 66.1775C120.442 66.328 120.221 66.4517 120.166 66.7021C120.158 66.7441 120.345 66.7318 120.363 66.816C120.365 66.8276 120.365 66.8411 120.36 66.8568C120.295 67.0668 120.222 67.2825 120.138 67.5009C120.05 67.7292 119.95 67.9609 119.833 68.1919C119.715 68.4238 119.581 68.6554 119.422 68.8804C119.272 69.0926 119.081 69.3252 118.875 69.5071C118.864 69.5173 118.853 69.5245 118.843 69.5295C118.843 69.5295 118.843 69.5295 118.843 69.5295C118.766 69.5525 118.697 69.4187 118.68 69.4107C118.352 69.314 118.675 69.6077 118.68 69.6316C118.677 69.683 118.66 69.7267 118.638 69.77C118.577 69.8836 118.471 70.0038 118.502 70.1503C118.519 70.2283 118.576 70.3121 118.702 70.4027C118.674 70.483 118.647 70.5685 118.622 70.6583C118.576 70.8206 118.533 70.9967 118.482 71.185C118.431 71.3736 118.372 71.5753 118.286 71.7881C118.209 71.9846 118.06 72.2612 117.919 72.4354C118.785 73.6679 115.367 70.5801 116.568 71.3575C116.648 71.2277 116.727 71.1059 116.808 70.9842C116.889 70.8627 116.971 70.7449 117.055 70.6279C117.14 70.5112 117.226 70.3966 117.315 70.2844C117.405 70.1719 117.497 70.0634 117.592 69.9565C117.688 69.8481 117.782 69.7509 117.879 69.6536C117.922 69.6103 117.965 69.566 118.008 69.5246C118.021 69.511 118.191 69.6377 118.216 69.6096C118.458 69.3368 118.297 69.2308 118.1 68.9905C118.049 68.9275 117.995 68.855 117.944 68.7669C117.882 68.6614 118.413 68.6406 118.454 68.6337C118.603 68.6152 118.86 68.8083 118.893 68.7949C119.055 68.7229 118.754 68.5563 118.523 68.379C118.377 68.2671 118.259 68.1513 118.301 68.0494C118.306 68.0419 118.467 68.1493 118.494 68.1345C118.577 68.0887 118.536 67.9912 118.624 67.9488C118.774 67.8778 119.075 67.9342 119.158 67.8325C119.188 67.7954 119.19 67.7372 119.146 67.6433C119.125 67.5979 118.567 67.4116 118.702 67.1781C118.73 67.1304 118.794 66.9907 118.866 66.8513C118.933 66.721 119.008 66.5914 119.056 66.5408C119.155 66.4364 119.275 66.6099 119.288 66.6046C119.67 66.413 119.704 66.5707 120.076 66.6187C120.086 66.6202 120.097 66.6216 120.108 66.623C120.504 66.6819 119.743 66.2473 119.704 66.1291C119.662 66.0104 119.999 65.8984 120.096 65.8979C120.192 65.8937 120.232 66.0324 120.299 66.0156C120.363 65.9991 120.404 65.9808 120.426 65.9587C120.554 65.8315 120.076 65.5784 120.053 65.4254C119.987 65.0034 120.611 65.2732 120.823 65.1171C120.879 65.0755 120.73 65.024 120.758 64.9686C120.867 64.7512 121.117 64.7636 121.139 64.4337C121.143 64.3847 121.001 64.0441 121.203 64.0239C121.225 64.0216 121.251 64.023 121.281 64.0288C121.326 64.0376 121.42 64.1815 121.511 64.1213C121.648 64.0318 121.841 63.8294 121.895 63.6637C121.934 63.5414 121.636 63.4978 121.793 63.4225C121.863 63.3889 121.915 63.5829 122.036 63.5117C122.157 63.4414 122.341 63.1695 122.408 63.0645C122.474 62.9593 122.269 62.8994 122.264 62.8834C122.235 62.7889 122.289 62.5385 122.301 62.5213C122.323 62.4874 122.346 62.4539 122.368 62.4206C122.755 61.8574 123.234 61.3894 123.645 60.8662C123.841 60.6161 124.021 60.3536 124.168 60.0625C124.205 59.9892 123.996 59.919 124 59.9067C124.077 59.6232 124.434 60.1166 124.699 60.0556C124.32 59.8442 124.449 59.7897 124.516 59.5985C124.548 59.5061 124.379 59.4583 124.37 59.4417C124.233 59.1845 124.562 59.2811 124.632 59.2966C124.78 59.329 124.781 59.263 124.788 59.2071C124.793 59.1654 124.8 59.1296 124.875 59.1454C125.047 59.182 125.171 59.4372 125.272 59.2773C125.171 59.1481 124.755 59.0443 124.778 58.888C124.854 58.3864 125.462 57.8242 125.818 57.4598C125.881 57.3943 125.936 57.3355 125.978 57.2835C126.256 56.9428 126.316 56.8111 126.512 56.636C126.867 56.3228 126.526 56.2795 126.59 55.9644C126.658 55.6482 127.158 56.2129 127.309 56.2766C127.459 56.3419 127.357 56.2072 127.456 56.2214C127.555 56.2359 127.575 56.3847 127.67 56.3165C127.671 56.316 127.672 56.3156 127.672 56.3152C127.769 56.2433 127.744 55.8174 127.639 55.6821C127.417 55.3954 127.036 55.281 127.332 55.116C127.349 55.1067 127.465 55.2728 127.523 55.2312C127.789 55.0362 128.021 54.8082 128.256 54.584C128.425 54.4232 128.595 54.2648 128.78 54.1227C128.841 54.0761 128.968 54.2632 129.006 54.2376C129.396 53.971 129.01 53.8693 128.847 53.4236C129.234 53.803 129.578 53.9018 129.794 53.6344C129.799 53.6279 129.804 53.6214 129.808 53.615C129.907 53.4639 129.715 53.347 129.669 53.1481C129.654 53.0858 129.872 53.0712 129.801 52.982C129.569 52.69 129.166 52.5476 129.509 52.3707C129.525 52.3633 129.651 52.5239 129.693 52.4892C129.967 52.2653 129.693 52.001 129.88 51.6798C129.902 51.6417 129.932 51.6032 129.968 51.5645C130.17 51.3469 130.554 51.1177 130.744 50.9093C131.23 51.2721 131.304 50.9329 131.035 50.5882C131.094 50.5176 131.149 50.4401 131.205 50.3635C131.279 50.2614 131.355 50.1619 131.449 50.0828C131.506 50.035 131.625 50.1723 131.645 50.1756C131.97 50.2275 131.684 49.9222 131.696 49.8754C131.805 49.5056 132.092 49.3126 132.231 49.0071C132.281 48.8987 132.311 48.776 132.306 48.6287C132.306 48.6083 131.956 48.3729 132.284 48.4194C132.307 48.4225 132.394 48.6547 132.519 48.4687C132.643 48.2844 133.045 48.0222 133.013 47.6533C133.01 47.6196 132.976 47.5516 132.952 47.4796C132.952 47.4796 132.952 47.4796 132.952 47.4796C132.915 47.3603 132.906 47.228 133.099 47.2159C133.141 47.2138 133.238 47.2896 133.311 47.2935C133.546 47.3064 133.195 47.06 133.569 47.1289C133.943 47.1986 134.287 47.133 134.23 46.7367C134.229 46.7311 134.177 46.6796 134.125 46.617C134.063 46.5418 134.001 46.4503 134.032 46.4047C134.122 46.2709 134.3 46.1137 134.387 45.9713C134.429 45.9028 134.224 45.8347 134.228 45.8209C134.301 45.6202 134.402 45.4638 134.52 45.3231C134.708 45.0982 134.939 44.9137 135.18 44.6486C135.228 44.597 135.216 44.4017 135.289 44.262C135.327 44.1887 135.387 44.1307 135.491 44.1169C135.823 44.0723 136.537 44.8474 136.63 44.2829C136.657 44.1179 136.18 43.5694 136.206 43.3088C136.216 43.2095 136.298 43.1517 136.511 43.1708C136.64 42.8365 136.858 42.5778 137.07 42.3128C137.299 42.0263 137.523 41.7294 137.608 41.3374C137.615 41.3054 137.382 41.0628 137.39 40.9816C137.39 40.9766 137.392 40.9722 137.394 40.9685C137.458 40.8733 137.64 40.9021 137.691 40.8401C137.914 40.5763 137.971 40.2362 138.181 39.9781C138.183 39.9755 138.186 39.9731 138.188 39.9708C138.268 39.8871 138.381 40.0153 138.473 39.9034C138.569 39.788 138.44 39.5716 138.65 39.4745C138.809 39.4013 139.28 39.5611 139.446 39.4304C139.28 39.3039 139.206 39.2128 139.179 39.1263C139.146 39.0185 139.185 38.9191 139.212 38.7677C139.22 38.7152 139.059 38.6603 139.056 38.6305C139.042 38.5076 139.201 38.5187 139.178 38.395C139.172 38.3652 139.044 38.2709 139.032 38.2413C138.926 37.9867 139.356 38.0013 139.431 38.0026C139.586 38.0064 139.619 37.9541 139.64 37.8989C139.657 37.8526 139.667 37.8041 139.733 37.7822C139.879 37.7337 139.873 37.9505 140 37.8637C140.264 37.6825 140.451 37.3418 140.609 37.0801C140.626 37.0519 140.622 37.0289 140.607 37.01C140.584 36.9801 140.533 36.9604 140.496 36.9465C140.469 36.9365 140.449 36.9296 140.45 36.9243C140.45 36.9232 140.451 36.9221 140.451 36.921C140.527 36.6855 140.842 36.5576 140.519 36.253C141.584 36.5623 140.491 36.0733 140.817 35.8492C140.842 35.832 141.343 35.9768 141.371 36.1136C141.399 36.2516 141.182 36.3483 141.222 36.5396C141.234 36.5832 141.572 36.9968 141.582 37.0404C141.672 37.3661 140.974 37.0218 140.932 37.0113C140.78 36.9782 140.713 37.0041 140.691 37.0578C140.646 37.1695 140.791 37.4086 140.788 37.4609C140.768 37.814 140.531 37.976 140.486 38.2541C140.469 38.3572 140.592 38.498 140.686 38.6199C140.758 38.7134 140.813 38.7957 140.774 38.8397C140.475 39.1764 139.815 38.8783 140.071 39.568C140.115 39.6876 140.451 39.881 140.291 39.9452C140.253 39.9601 140.189 39.9678 140.088 39.9656C140.055 39.9647 139.598 39.9111 139.724 40.1655C139.74 40.1975 139.871 40.293 139.869 40.3184C139.855 40.4853 139.694 40.4872 139.655 40.647C139.63 40.7441 139.61 40.8533 139.567 40.9501C139.538 41.0145 139.501 41.0703 139.443 41.1139C139.359 41.1775 139.038 41.114 138.949 41.1138C138.694 41.1126 138.915 41.4128 138.654 41.3452C138.388 41.2828 138.143 40.931 137.878 41.0442C138.235 41.2662 138.597 41.5019 138.955 41.7265C138.932 41.7627 138.908 41.7988 138.883 41.835C138.633 42.2151 138.304 42.5725 138.057 42.9478C138.031 42.9865 138.006 43.0257 137.982 43.0655C137.947 43.1246 138.175 43.1888 138.142 43.2556C138.001 43.5371 137.717 43.6717 137.592 43.9698C137.562 44.0427 137.546 44.1279 137.535 44.2181C137.511 44.414 137.512 44.6333 137.448 44.799C136.971 44.6551 136.889 45.0403 136.708 45.2377C136.705 45.2405 136.702 45.2433 136.7 45.2461C136.634 45.3145 136.532 45.2366 136.46 45.2677C136.191 45.3866 136.608 45.5296 136.625 45.6236C136.698 46.0243 135.887 45.5055 135.715 45.8063C135.706 45.8203 135.936 46.1742 136.004 46.294C136.015 46.3123 136.021 46.3253 136.023 46.3309C136.093 46.6042 135.856 46.26 135.759 46.3399C135.582 46.4858 135.396 46.55 135.39 46.8455C135.389 46.9328 135.572 47.2473 135.288 47.2423C135.25 47.2419 135.109 47.1468 135.093 47.1548C135.083 47.1601 135.075 47.1655 135.067 47.1711C134.842 47.3279 135.272 47.5896 135.353 47.8016C135.435 48.0217 135.008 48.04 134.891 48.0364C134.589 48.0204 134.832 47.8971 134.811 47.8795C134.566 47.6588 134.533 47.8355 134.447 47.9437C133.973 47.7219 133.912 47.9112 134.359 48.0576C134.408 48.0732 134.413 47.9568 134.447 47.9437C134.657 48.1213 134.748 48.2626 134.71 48.3587C134.673 48.453 134.526 48.5104 134.267 48.5143C134.011 48.5173 133.834 48.2962 133.747 48.6588C133.706 48.8232 134.051 48.9411 134.065 49.1186C134.088 49.4294 133.789 49.6247 133.59 49.838C133.53 49.902 133.479 49.9686 133.448 50.0412C133.398 50.1562 133.629 50.1586 133.601 50.2412C133.525 50.4617 133.293 50.5481 133.233 50.7773C133.227 50.7983 133.427 50.8702 133.39 50.9305C133.249 51.1654 133.081 51.3597 132.909 51.5524C132.744 51.7362 132.574 51.9186 132.416 52.1342C132.259 52.3479 132.069 52.7945 131.886 52.9977C131.882 53.0016 131.879 53.0055 131.875 53.0094C131.557 53.3581 130.978 53.6256 130.792 53.9779C130.668 54.2101 130.865 54.2932 130.906 54.4675C130.908 54.4744 130.909 54.4811 130.91 54.4877C130.961 54.8048 130.367 54.7969 130.279 54.7894C130.276 54.789 130.376 54.5855 130.219 54.612C130.004 54.5283 130.279 54.7868 130.279 54.7894C130.22 54.7852 129.908 55.101 129.884 55.1935C129.871 55.2441 130.04 55.3453 130.031 55.3693C129.966 55.5287 129.894 55.6816 129.813 55.8281C129.608 56.2046 129.351 56.5388 129.04 56.8276C129.031 56.8333 128.869 56.6863 128.849 56.7014C128.714 56.7989 128.659 56.9262 128.634 57.0662C128.609 57.2204 128.622 57.3921 128.604 57.5554C128.569 57.8648 128.409 57.9947 128.01 57.9074C127.929 58.1007 127.623 58.2472 127.441 58.3324C127.293 58.4015 127.494 58.5907 127.569 58.665C127.586 58.6811 127.596 58.6919 127.596 58.6949C127.552 59.2346 127.199 59.3249 126.893 59.7183C126.787 59.8545 126.648 60.1205 126.541 60.3483C126.502 60.4315 126.468 60.5092 126.441 60.5738C126.361 60.7655 126.211 60.8143 126.162 61.0077C126.155 61.0338 126.328 61.1149 126.33 61.1254C126.405 61.4254 126.072 61.0891 125.979 61.0808C125.641 61.0503 125.453 61.0456 125.424 61.3502C125.418 61.4203 125.877 61.9359 125.847 62.0536C125.812 62.1894 125.673 62.0631 125.618 62.1494C125.611 62.1599 125.605 62.1736 125.601 62.1912C125.598 62.2051 125.723 62.2831 125.665 62.3607C125.395 62.7223 125.052 63.0875 124.799 63.4894C124.764 63.5441 125.005 63.6055 124.957 63.6869C124.888 63.8042 124.814 63.9224 124.734 64.0394C124.553 64.3026 124.343 64.5563 124.105 64.7593C124.02 64.8308 123.926 64.6808 123.873 64.6715C123.552 64.6159 123.779 65.03 123.765 65.0625C123.668 65.307 123.531 65.5005 123.376 65.6756C123.042 66.0543 122.648 66.328 122.358 66.8636C122.337 66.9056 122.445 67.4806 122.05 67.3319C122.04 67.3281 121.974 67.3029 121.904 67.289C121.807 67.2505 121.707 67.2355 121.822 67.3634C121.835 67.3746 122.009 67.4867 121.968 67.5065C121.939 67.5186 121.941 67.6426 121.841 67.6975C121.806 67.7175 121.759 67.7313 121.69 67.7352C121.607 67.7355 121.194 67.6536 121.404 67.9469C121.41 67.9555 121.517 68.0656 121.595 68.1736C121.694 68.3116 121.747 68.447 121.47 68.38C121.389 68.3603 120.915 68.1248 121.073 68.4358C121.105 68.4953 121.243 68.473 121.266 68.6033C121.274 68.6478 121.269 68.6903 121.259 68.7326C121.222 68.8804 121.111 69.0303 121.211 69.2644C121.227 69.3008 121.36 69.4537 121.337 69.5538C121.327 69.5981 121.287 69.6318 121.193 69.6401C121.145 69.6443 120.999 69.5368 120.952 69.5989C120.829 69.7579 120.758 69.9513 120.671 70.1501C120.594 70.3229 120.512 70.4869 120.362 70.6574C120.25 70.7822 120.035 70.5779 119.895 70.6786C119.872 70.6943 119.848 70.713 119.824 70.7337C119.701 70.8415 119.559 71.0127 119.575 71.1588C119.576 71.1672 119.577 71.1757 119.578 71.1841C119.616 71.3723 120.084 71.477 120.003 71.6781C119.973 71.7522 119.941 71.8245 119.907 71.8939C119.841 72.0284 119.767 72.1553 119.688 72.2771C119.609 72.3993 119.525 72.5149 119.439 72.6275C119.353 72.7394 119.264 72.8487 119.185 72.9426C122.076 75.2411 112.626 68.2934 115.549 70.5919C115.577 70.5742 115.502 70.7475 115.547 70.6914C115.553 70.6866 115.56 70.6769 115.568 70.6625C115.587 70.6201 115.419 70.6154 115.438 70.537C115.443 70.5162 115.448 70.4916 115.453 70.4625C115.47 70.3695 115.488 70.2311 115.516 70.0448C115.542 69.876 115.576 69.6676 115.636 69.4216C115.697 69.1772 115.785 68.893 115.929 68.592C116.054 68.3084 116.381 67.822 116.591 67.6526C116.668 67.6083 116.7 67.6335 116.769 67.6358C117.144 67.5552 117.135 67.9733 117.354 67.8293C117.377 67.8119 117.378 67.7802 117.365 67.7411C117.316 67.5949 117.063 67.3618 117.062 67.3342C117.057 67.209 117.092 67.1103 117.142 67.0181C117.235 66.8494 117.381 66.7049 117.422 66.4713C117.424 66.4619 117.422 66.4535 117.417 66.4459C117.382 66.3933 117.211 66.3795 117.223 66.3246C117.265 66.1163 117.429 65.9297 117.5 65.7164C117.503 65.7092 117.505 65.702 117.507 65.6948C117.537 65.5945 117.378 65.5536 117.425 65.4665C117.52 65.2893 117.64 65.1331 117.821 64.9843C117.854 64.9567 117.889 64.93 117.927 64.9029C117.949 64.8879 118.073 65.1111 118.157 64.9385C118.24 64.7693 118.432 64.5239 118.549 64.3191C118.605 64.2189 118.651 64.1044 118.669 63.9704C118.683 63.8565 118.37 63.6511 118.71 63.5945C118.781 63.5841 119.126 63.8741 118.937 63.4533C118.923 63.4216 118.874 63.2719 118.862 63.1204C118.848 62.9367 118.888 62.7501 119.102 62.7667C119.205 62.7736 119.581 62.8778 119.599 62.7531C119.601 62.7353 119.402 62.6685 119.441 62.5808C119.486 62.4814 119.54 62.3868 119.596 62.2948C119.714 62.1032 119.843 61.9217 119.936 61.7237C119.973 61.6453 119.731 61.6236 119.79 61.511C119.832 61.4329 119.881 61.3549 119.935 61.279C120.095 61.0542 120.295 60.8469 120.465 60.6863C120.549 60.6073 120.646 60.7687 120.666 60.7726C120.764 60.7913 120.806 60.7777 120.817 60.7484C120.843 60.6791 120.697 60.5253 120.699 60.4914C120.725 60.1935 120.988 60.1353 121.056 59.9164C121.059 59.9058 121.056 59.8953 121.048 59.8849C121.011 59.8375 120.881 59.7941 120.873 59.7786C120.783 59.5912 121.046 59.8408 121.118 59.7921C121.323 59.6373 121.377 59.5025 121.443 59.2767C121.446 59.2693 121.448 59.2619 121.45 59.2546C121.482 59.1507 121.226 59.1791 121.256 59.0867C121.433 58.5422 121.696 57.9709 122.038 57.5018C122.103 57.4132 122.236 57.5451 122.281 57.5407C122.598 57.5133 122.341 57.1535 122.33 57.0911C122.3 56.9392 122.338 56.8632 122.389 56.7937C122.433 56.734 122.486 56.6797 122.514 56.5865C122.728 55.8634 123.133 55.0837 123.533 54.3991C123.677 54.1507 123.822 53.9137 123.954 53.6956C124.3 53.1276 124.637 52.6475 124.959 52.1656C125.242 51.741 125.515 51.3153 125.776 50.828C125.812 50.762 125.573 50.71 125.601 50.6515C125.751 50.3516 125.921 50.0668 126.096 49.7857C126.359 49.3627 126.633 48.9486 126.864 48.5023C126.896 48.4415 126.657 48.4085 126.702 48.3069C126.793 48.0973 126.956 47.8622 127.137 47.7074C127.226 47.632 127.305 47.8589 127.391 47.781C127.449 47.7283 127.504 47.6718 127.555 47.6121C127.681 47.4668 127.786 47.3042 127.868 47.1318C127.916 47.0281 127.634 47.0495 127.712 46.9242C128.053 46.371 128.393 45.8152 128.803 45.3198C129.003 45.0834 129.186 44.8994 129.444 44.6592C129.493 44.6146 129.918 44.7952 129.91 44.6312C129.883 44.6126 129.854 44.5938 129.824 44.5751C129.738 44.5215 129.644 44.4677 129.558 44.4151C129.742 44.0455 129.946 43.6695 130.166 43.2895C130.388 42.9068 130.625 42.5196 130.875 42.1275C131.125 41.7362 131.387 41.3394 131.663 40.9338C131.734 40.8295 131.805 40.7263 131.878 40.6207C131.917 40.5638 131.649 40.528 131.725 40.4165C131.923 40.126 132.122 39.8288 132.36 39.5403C132.648 39.1925 133.009 38.8399 133.502 38.5664C133.578 38.527 133.801 38.8198 133.943 38.7006C133.95 38.6947 133.956 38.6864 133.962 38.6753C133.974 38.65 134.107 38.4509 134.107 38.3225C134.105 38.3054 133.93 38.1961 133.993 38.1289C134.04 38.0786 134.091 38.0268 134.142 37.9761C134.312 37.8074 134.5 37.6391 134.702 37.4784C134.905 37.3173 135.123 37.1636 135.352 37.0236C135.366 37.0147 135.381 37.0059 135.395 36.9972C135.484 36.9447 135.546 37.1743 135.61 37.1386C135.809 37.0267 135.984 36.8699 136.17 36.7123C136.392 36.5257 136.63 36.3366 136.944 36.2331C136.966 36.2256 136.989 36.2187 137.011 36.2124C137.443 36.0986 137.503 36.4946 137.855 36.7166C137.897 36.7475 138.158 36.651 138.241 36.8517C138.402 37.3547 138.531 37.9213 138.73 38.4488C138.818 38.5581 138.535 38.4764 138.743 38.7379C138.785 38.7518 138.896 38.8154 138.923 38.9103C138.954 38.9717 139.033 39.1703 139.08 39.2457C139.129 39.3199 139.04 39.1633 139.06 39.2715C139.076 39.3644 139.184 39.5163 139.183 39.6054C139.182 39.6226 139.178 39.6376 139.166 39.651ZM126.629 58.7245C126.369 58.7454 126.978 59.1809 126.926 58.9369C126.923 58.9246 126.642 58.7232 126.629 58.7245ZM137.789 42.2847C137.394 42.2953 137.721 42.6822 138.02 42.6872C138.32 42.689 137.91 42.2797 137.789 42.2847ZM138.755 40.3035C138.726 40.3077 138.704 40.3161 138.69 40.3277C138.543 40.4488 139.174 40.912 139.218 40.7024C139.221 40.6907 139.221 40.6769 139.22 40.6608C139.219 40.6416 138.776 40.3005 138.755 40.3035ZM137.179 37.268C137.186 37.2748 137.309 37.1958 137.307 37.1862C137.232 36.9459 136.978 37.1091 137.179 37.268ZM139.844 38.3635C139.682 38.3454 139.684 38.6261 139.886 38.6502C140.05 38.6688 140.047 38.385 139.844 38.3635ZM121.108 65.3449C121.098 65.3399 121.029 65.407 121.078 65.4459C121.238 65.5714 121.28 65.4308 121.108 65.3449ZM141.472 34.8682C141.343 35.4985 140.402 35.4908 140.624 35.0226C140.662 34.9285 140.855 35.2843 140.958 35.179C141.151 34.952 140.623 34.7468 140.919 34.5403C140.977 34.4825 141.486 34.8199 141.473 34.8694C141.473 34.869 141.472 34.8686 141.472 34.8682ZM125.831 58.3016C125.821 58.2988 125.74 58.4032 125.747 58.4113C125.905 58.6023 126.068 58.3928 125.831 58.3016ZM118.025 69.9153C118.011 69.9099 117.913 70.0462 117.867 70.1234C117.851 70.1509 117.842 70.17 117.845 70.175C117.934 70.295 118.036 70.3088 118.112 70.2717C118.25 70.2027 118.295 69.9734 118.025 69.9153ZM130.76 50.9146C130.65 50.6592 130.725 50.5075 131.035 50.5886C130.94 50.6944 130.855 50.8083 130.76 50.9146Z" fill="#F76B1C"/>
<path d="M136.938 38.5342C136.468 38.4251 135.921 38.1583 135.485 37.8203C135.198 37.6022 134.956 37.3608 134.769 37.1365C134.622 36.9579 134.798 36.9419 134.707 36.8159C134.536 36.5709 134.311 36.4124 134.19 36.1605C134.151 36.0774 134.384 36.0345 134.342 35.9518C134.27 35.8117 134.195 35.6848 134.12 35.5615C133.952 35.2873 133.779 35.0351 133.655 34.7515C133.499 34.3935 133.364 34.0473 133.24 33.7143C133.019 33.1224 132.827 32.5656 132.625 32.051C132.426 31.539 132.216 31.0672 131.985 30.6801C131.848 30.4475 131.677 30.2246 131.558 30.0942C131.492 30.0212 131.416 29.9166 131.271 29.7978C130.853 29.5197 130.503 29.0899 130.286 28.8C130.165 28.6411 130.056 28.4943 129.945 28.3606C129.887 28.2909 129.762 28.4363 129.74 28.4303C129.397 28.3248 129.761 28.2034 129.716 28.0337C129.703 27.985 129.691 27.9383 129.677 27.8909C129.584 27.5593 129.469 27.2493 129.335 26.9641C129.222 26.7233 129.095 26.5013 128.963 26.3065C128.85 26.141 128.671 26.3912 128.671 26.2775C128.671 26.2585 128.676 26.2294 128.687 26.1868C128.692 26.1662 128.893 26.1286 128.883 26.0633C128.859 25.9136 128.705 25.6978 128.668 25.5999C128.627 25.488 128.603 25.434 128.572 25.3755C128.55 25.3339 128.526 25.2924 128.487 25.2286C128.382 25.0554 128.349 24.9026 128.224 24.7474C128.174 24.6881 128.12 24.6306 128.062 24.5772C128.007 24.5279 127.917 24.7329 127.816 24.6643C127.713 24.5962 127.523 24.3253 127.502 24.2156C127.478 24.1042 127.631 24.0461 127.649 24.01C127.808 23.7136 127.268 23.6763 127.234 23.6419C127.222 23.631 127.211 23.6199 127.2 23.6088C126.815 23.2249 126.63 22.7769 126.45 22.339C126.361 22.1226 126.274 21.9071 126.164 21.6976C126.051 21.4836 125.925 21.2697 125.802 21.0569C125.641 20.7819 125.485 20.5089 125.365 20.2427C125.296 20.0886 125.237 19.9377 125.183 19.7895C125.038 19.3971 124.924 19.0209 124.732 18.6413C124.704 18.5861 124.521 18.7513 124.487 18.6839C124.473 18.6569 124.46 18.6299 124.446 18.603C124.239 18.191 124.055 17.7896 123.889 17.3707C123.777 17.0878 123.682 16.8196 123.589 16.5237C123.566 16.448 123.795 16.4355 123.783 16.3535C123.782 16.3484 123.781 16.3433 123.78 16.3381C123.733 16.0412 123.697 15.6206 123.482 15.3705C123.335 15.1981 123.105 15.1081 122.733 15.1978C122.671 15.0667 122.602 14.9235 122.544 14.7745C122.468 14.5837 122.411 14.3832 122.409 14.1867C122.408 13.9611 122.698 14.0023 122.492 13.8509C122.445 13.8165 122.314 13.9794 122.257 13.92C122.226 13.8882 122.198 13.8549 122.17 13.8203C121.98 13.5821 121.845 13.288 121.616 13.0787C121.563 13.0302 121.42 13.1369 121.383 13.1363C121.364 13.1357 121.347 13.1333 121.332 13.1295C121.102 13.0706 121.303 12.665 121.3 12.6017C121.286 12.3683 121.23 12.1903 121.155 12.0325C121.06 11.8329 120.935 11.6424 120.834 11.4333C120.792 11.344 120.631 11.5542 120.582 11.4716C120.575 11.4604 120.569 11.4491 120.562 11.4378C120.436 11.2155 120.325 10.988 120.233 10.7585C120.15 10.5529 120.083 10.3462 120.032 10.1392C120.008 10.0388 120.23 10.0291 120.228 9.97625C120.227 9.96594 120.226 9.95635 120.224 9.94743C120.182 9.75443 119.852 9.87045 119.832 9.66802C119.827 9.62353 119.99 9.56057 120.004 9.54475C120.203 9.29764 119.8 9.40682 119.765 9.392C119.764 9.39172 119.764 9.39139 119.763 9.39102C119.554 9.20892 119.615 8.9523 119.574 8.72359C119.557 8.62684 119.521 8.53666 119.444 8.47653C119.415 8.45492 119.3 8.65672 119.231 8.59215C119.176 8.54449 119.146 8.51964 119.076 8.46695C118.731 8.19673 118.518 7.87657 118.36 7.61037C118.199 7.33266 118.079 7.05903 117.979 6.78623C117.884 6.52765 117.809 6.27178 117.749 6.01807C117.742 5.98995 117.744 5.96846 117.752 5.95196C117.774 5.90777 117.838 5.89929 117.881 5.89439C117.902 5.892 117.918 5.89049 117.922 5.88619C117.927 5.88056 117.932 5.87509 117.936 5.86977C118.135 5.62945 117.726 5.71265 117.694 5.67754C117.558 5.52318 117.554 5.32018 117.489 5.16463C117.434 5.03313 117.336 4.93458 117.08 4.9263C117.039 4.78864 116.994 4.65246 116.946 4.52153C116.852 4.26961 116.757 4.04737 116.647 3.84178C116.608 3.77148 116.568 3.7082 116.511 3.62269C116.457 3.54194 116.399 3.45991 116.34 3.3776C116.281 3.29534 116.22 3.21321 116.159 3.132C116.099 3.05075 116.038 2.97057 115.978 2.89306C115.92 2.81694 115.858 2.73911 115.815 2.68548C114.69 3.18464 118.16 1.49191 117.013 1.825C117.047 1.93982 117.063 2.00327 117.107 2.11833C117.146 2.22346 117.194 2.33689 117.247 2.45977C117.298 2.57711 117.354 2.70303 117.408 2.83825C117.416 2.85601 117.242 2.95419 117.246 2.99276C117.246 2.99394 117.247 2.99506 117.247 2.99612C117.362 3.25182 117.478 3.27054 117.662 3.25024C117.792 3.23782 117.955 3.20196 118.18 3.25246C118.252 3.26892 118.219 3.41832 118.158 3.55618C118.103 3.68486 118.023 3.80167 118.013 3.81941C117.93 3.95413 117.608 3.99542 117.597 4.03236C117.523 4.21741 117.985 4.08268 118.301 4.12568C118.422 4.12613 118.517 4.14123 118.534 4.18756C118.535 4.19397 118.347 4.23256 118.335 4.2539C118.298 4.32435 118.386 4.33902 118.349 4.41375C118.264 4.58792 117.854 4.88984 118.228 4.9487C118.251 4.95165 118.371 4.87486 118.501 4.81602C118.643 4.75175 118.793 4.7063 118.843 4.80752C118.876 4.88536 119.118 5.20255 119.162 5.31729C119.165 5.32676 119.167 5.33583 119.167 5.34449C119.171 5.4404 119.005 5.48554 119.003 5.49598C119.005 5.90108 118.85 5.87086 118.666 6.23097C118.488 6.59332 119.136 6.00192 119.254 5.99109C119.346 5.98286 119.362 6.17308 119.358 6.30105C119.357 6.33679 119.354 6.36758 119.351 6.38757C119.334 6.47907 119.195 6.49925 119.198 6.56582C119.222 7.00499 119.63 6.40337 119.811 6.40227C120.11 6.39979 120.026 6.68628 119.985 6.93778C119.968 7.04599 119.958 7.14696 119.991 7.21821C120.021 7.2821 120.101 7.14525 120.15 7.18397C120.331 7.33003 120.284 7.54675 120.531 7.66767C120.549 7.67709 120.57 7.68599 120.592 7.69434C120.642 7.70943 121.102 7.68025 120.951 7.97398C120.928 8.01501 120.759 8.05154 120.788 8.16352C120.814 8.26566 120.868 8.40644 120.928 8.5268C120.963 8.59657 121.009 8.66033 121.057 8.69938C121.15 8.77458 121.312 8.52975 121.312 8.68619C121.314 8.75829 121.119 8.743 121.137 8.87496C121.15 8.97781 121.268 9.16026 121.356 9.27723C121.38 9.30957 121.401 9.33677 121.418 9.35721C121.494 9.45197 121.618 9.27836 121.634 9.27826C121.731 9.27875 121.947 9.40407 121.959 9.4203C122.044 9.5274 122.125 9.63769 122.202 9.75069C122.372 10.0007 122.525 10.2634 122.673 10.5293C122.824 10.7992 122.968 11.0713 123.123 11.3426C123.263 11.5883 123.411 11.8318 123.576 12.0841C123.623 12.158 123.787 12.0101 123.796 12.0203C123.807 12.0323 123.816 12.0437 123.823 12.0547C123.951 12.2656 123.394 12.3033 123.305 12.5455C123.69 12.3472 123.671 12.4854 123.786 12.6783C123.842 12.7772 123.984 12.6724 124.004 12.6763C124.306 12.7942 124.006 13.0016 123.943 13.0309C123.862 13.083 123.848 13.1218 123.856 13.157C123.868 13.1992 123.959 13.2239 123.862 13.2731C123.717 13.3657 123.441 13.2818 123.496 13.4661C123.658 13.4634 124.014 13.2452 124.109 13.3281C124.234 13.4396 124.331 13.6269 124.416 13.8432C124.53 14.1345 124.622 14.479 124.708 14.7455C124.744 14.8586 124.779 14.9587 124.814 15.0334C124.952 15.3332 125.042 15.4594 125.11 15.6164C125.129 15.6584 125.146 15.7025 125.162 15.7527C125.306 16.182 125.478 15.8875 125.738 16.0423C125.999 16.1949 125.307 16.4855 125.195 16.6048C125.12 16.6841 125.166 16.688 125.192 16.7071C125.205 16.7169 125.213 16.7307 125.197 16.7607C125.151 16.8496 125.002 16.8199 125.038 16.9347C125.076 17.0523 125.489 17.1573 125.648 17.093C125.986 16.9608 126.21 16.6383 126.271 16.9487C126.275 16.9669 126.085 17.0362 126.107 17.1003C126.121 17.1396 126.135 17.1761 126.151 17.2153C126.273 17.5073 126.446 17.7904 126.617 17.998C126.742 18.1306 126.861 18.2912 126.943 18.4558C126.977 18.5261 126.768 18.6118 126.784 18.6527C126.856 18.8462 126.927 18.8814 127.042 18.862C127.175 18.841 127.356 18.7386 127.618 18.752C127.125 18.9824 126.916 19.2597 127.05 19.5385C127.127 19.7032 127.31 19.5953 127.504 19.628C127.515 19.6298 127.525 19.6319 127.535 19.6346C127.598 19.6506 127.505 19.8464 127.617 19.8268C127.984 19.7665 128.308 19.4846 128.293 19.8776C128.291 19.8948 128.089 19.9227 128.098 19.9767C128.124 20.1437 128.22 20.2065 128.334 20.2627C128.458 20.3233 128.601 20.3764 128.692 20.5366C128.755 20.6471 128.782 20.8166 128.807 20.9927C128.835 21.2005 128.862 21.419 128.925 21.5632C128.569 21.7664 128.582 21.9251 128.759 21.9556C128.842 21.9695 128.961 21.952 129.089 21.8979C129.192 22.0612 129.315 22.1607 129.416 22.3242C129.451 22.3801 129.309 22.4894 129.302 22.5091C129.291 22.5498 129.287 22.581 129.288 22.6043C129.301 22.7628 129.556 22.5755 129.599 22.5943C130.112 22.8519 130.153 23.3793 130.663 23.614C130.668 23.6168 130.674 23.6196 130.68 23.6223C130.698 23.6301 131.066 23.4205 130.885 23.7051C130.872 23.7232 130.622 23.6912 130.737 23.8954C130.855 24.1027 130.874 24.5853 131.191 24.7734C131.26 24.8136 131.586 24.8339 131.528 25.0277C131.522 25.0493 131.51 25.073 131.493 25.0991C131.47 25.1337 131.351 25.1668 131.304 25.223C131.153 25.4022 131.56 25.2654 131.282 25.5223C131.004 25.7795 130.853 26.096 131.208 26.276C131.218 26.2819 131.556 26.2109 131.592 26.3032C131.634 26.4144 131.659 26.5746 131.698 26.7103C131.711 26.7539 131.725 26.7949 131.741 26.8311C131.774 26.9024 131.945 26.772 131.954 26.783C132.264 27.2043 132.253 27.6075 132.405 28.1273C132.41 28.1442 132.415 28.1611 132.42 28.1781C132.451 28.2794 132.836 28.4164 132.726 28.6945C132.611 29.0043 131.586 29.2779 132.064 29.6375C132.18 29.7243 132.67 29.6104 132.966 29.6289C133.171 29.6422 133.284 29.7183 133.142 29.999C133.452 30.2838 133.648 30.6434 133.907 30.9513C134.098 31.1786 134.338 31.3901 134.638 31.5028C134.67 31.5149 134.977 31.2948 135.033 31.3459C135.114 31.4211 135.055 31.5918 135.112 31.6508C135.127 31.6668 135.143 31.6824 135.158 31.6964C135.387 31.9081 135.691 31.9817 135.918 32.1828C136.01 32.2637 135.869 32.3772 135.98 32.4745C136.058 32.5437 136.194 32.4984 136.297 32.547C136.337 32.5655 136.372 32.5979 136.396 32.6563C136.463 32.816 136.288 33.2805 136.408 33.4451C136.703 33.0829 136.804 33.1738 137.07 33.2295C137.121 33.2401 137.184 33.0821 137.214 33.0807C137.337 33.0723 137.316 33.2294 137.44 33.2133C137.471 33.2096 137.573 33.087 137.603 33.0772C137.647 33.0625 137.682 33.0623 137.71 33.0723C137.853 33.1229 137.82 33.4336 137.811 33.495C137.776 33.777 137.968 33.6692 137.997 33.8192C138.024 33.9684 137.813 33.9375 137.879 34.072C137.971 34.2604 138.129 34.4258 138.282 34.5796C138.357 34.6549 138.427 34.7243 138.491 34.7945C138.569 34.8789 138.669 34.6754 138.684 34.684C138.894 34.8253 138.876 35.1518 139.291 34.9908C138.578 35.7622 139.369 35.1116 139.492 35.4088C139.499 35.4255 139.503 35.4451 139.504 35.4679C139.505 35.5029 139.087 35.8102 138.972 35.7761C138.968 35.7749 138.965 35.7736 138.961 35.772C138.86 35.7272 138.898 35.5299 138.725 35.4975C138.683 35.4877 138.196 35.6641 138.161 35.6694C137.873 35.6896 138.423 35.1453 138.447 35.108C138.703 34.7057 138.157 34.8962 138.092 34.8843C138.063 34.877 138.035 34.8683 138.009 34.8583C137.762 34.7663 137.659 34.5646 137.43 34.5038C137.265 34.4602 136.92 34.8337 136.842 34.746C136.732 34.6218 136.729 34.4347 136.71 34.2794C136.684 34.0711 136.626 33.918 136.237 34.0571C136.092 34.1087 135.81 34.5935 135.854 34.0718C135.857 34.039 135.932 33.5905 135.677 33.7119C135.644 33.7273 135.546 33.8554 135.521 33.8533C135.441 33.8454 135.401 33.8039 135.363 33.7581C135.322 33.7093 135.283 33.6558 135.201 33.6328C135.041 33.5877 134.838 33.5482 134.728 33.3948C134.663 33.3036 134.736 32.9793 134.74 32.8889C134.756 32.6329 134.413 32.8078 134.501 32.5494C134.503 32.5409 134.507 32.5325 134.51 32.5242C134.612 32.276 134.969 32.082 134.885 31.8103C134.618 32.1347 134.334 32.4603 134.06 32.7824C133.738 32.5113 133.412 32.1351 133.085 31.7729C133.006 31.684 132.922 31.5919 132.832 31.4976C132.778 31.4399 132.665 31.6542 132.601 31.5939C132.317 31.3233 132.247 30.9597 131.998 30.7059C131.904 30.6099 131.773 30.5301 131.641 30.4492C131.495 30.3587 131.347 30.2674 131.245 30.1523C131.576 29.7645 131.243 29.4911 131.154 29.2122C131.123 29.1155 131.242 29.0646 131.248 28.9828C131.272 28.6776 130.943 28.9734 130.851 28.9365C130.823 28.9247 130.8 28.9114 130.784 28.8968C130.579 28.711 131.307 28.3211 131.152 28.0332C131.144 28.0169 130.582 28.0175 130.54 28.0014C130.269 27.9032 130.69 27.8986 130.674 27.7695C130.649 27.5615 130.685 27.3873 130.526 27.2268C130.505 27.2059 130.481 27.1853 130.453 27.1649C130.381 27.113 130.017 27.0783 130.183 26.8459C130.205 26.8154 130.364 26.7557 130.367 26.7376C130.404 26.4171 129.916 26.6303 129.688 26.5674C129.461 26.5045 129.694 26.1403 129.767 26.0498C129.959 25.8176 129.915 26.0846 129.942 26.0796C130.265 26.0143 130.14 25.8798 130.106 25.7501C130.168 25.7167 130.219 25.6851 130.261 25.6559C130.531 25.4674 130.401 25.3818 130.068 25.6163C130.032 25.6415 130.093 25.6968 130.105 25.7334C130.107 25.7395 130.108 25.7452 130.106 25.7501C130.084 25.7555 130.062 25.7604 130.042 25.7648C129.583 25.8585 129.469 25.7204 129.773 25.321C129.921 25.1254 130.198 25.0812 129.959 24.8543C129.849 24.7536 129.567 24.9832 129.423 24.9332C129.276 24.8839 129.215 24.7684 129.172 24.6385C129.119 24.4768 129.09 24.288 128.977 24.1971C128.904 24.139 128.81 24.3329 128.756 24.2995C128.612 24.2134 128.652 24.0406 128.491 23.9912C128.477 23.9876 128.362 24.1629 128.329 24.1352C128.279 24.0949 128.228 24.0481 128.173 23.9983C127.866 23.7424 127.525 23.2788 127.329 22.9361C127.264 22.8288 127.202 22.7218 127.139 22.6139C127.03 22.4312 126.849 22.1823 126.715 21.955C126.638 21.8256 126.575 21.7034 126.542 21.6029C126.48 21.4162 126.455 21.2072 126.438 21.0082C126.411 20.6942 126.397 20.4012 126.274 20.2325C126.262 20.2163 126.25 20.2029 126.238 20.1917C126.114 20.0798 125.962 20.1861 125.814 20.1737C125.507 20.1559 125.823 19.7357 125.863 19.661C125.864 19.6562 125.98 19.7532 126.03 19.6322C126.192 19.4752 125.864 19.6606 125.863 19.661C125.866 19.6558 125.868 19.6476 125.868 19.6373C125.871 19.5596 125.764 19.3744 125.732 19.3955C125.706 19.3988 125.571 19.5415 125.562 19.5422C125.523 19.5483 125.476 19.5389 125.405 19.5122C124.827 19.1056 124.625 18.8346 124.392 18.5188C124.297 18.3815 124.214 18.2404 124.14 18.094C124.137 18.0825 124.326 17.972 124.316 17.9468C124.238 17.73 124.083 17.6298 123.905 17.5458C123.788 17.4889 123.663 17.4431 123.545 17.3747C123.254 17.207 123.173 16.975 123.397 16.6377C123.399 16.6346 123.401 16.6314 123.403 16.6282C123.248 16.4601 123.231 16.0986 123.23 15.889C123.228 15.6794 122.843 15.8608 122.828 15.8503C122.804 15.8343 122.781 15.8179 122.759 15.8009C122.413 15.5308 122.402 15.2201 122.29 14.8222C122.269 14.7488 122.245 14.6722 122.216 14.5919C122.148 14.3661 121.929 14.057 121.791 13.3864C121.777 13.3585 121.761 13.3494 121.751 13.3508C121.72 13.3942 121.799 13.295 121.702 13.235C121.689 13.2265 121.521 13.3141 121.513 13.3134C121.266 13.3168 121.703 13.1628 121.768 13.1056C121.793 13.0818 121.816 13.059 121.838 13.0368C122.013 12.8533 122.074 12.7228 121.867 12.6215C121.812 12.5921 121.172 12.825 121.092 12.7752C121.065 12.757 121.06 12.7367 121.065 12.7154C121.081 12.6565 121.179 12.59 121.091 12.5367C121.08 12.5302 120.961 12.6159 120.92 12.5468C120.832 12.3964 120.74 12.227 120.638 12.0532C120.523 11.8577 120.395 11.6576 120.243 11.4731C120.204 11.425 120.067 11.6304 120.008 11.563C119.986 11.5381 119.964 11.5128 119.942 11.4869C119.748 11.2589 119.551 10.9939 119.39 10.6906C119.336 10.5895 119.287 10.4853 119.243 10.3766C119.196 10.2581 119.376 10.2313 119.401 10.1819C119.563 9.89869 119.053 9.88602 119.021 9.84543C118.957 9.77272 118.897 9.6935 118.851 9.62673C118.718 9.48268 118.685 9.35461 118.569 9.12578C118.466 8.91954 118.335 8.69659 118.1 8.50331C118.075 8.48261 118.049 8.46257 118.021 8.44271C117.988 8.41965 117.44 8.47909 117.646 8.11491C117.66 8.0905 117.876 7.72359 117.583 7.80151C117.568 7.80546 117.5 7.93855 117.429 7.91807C117.412 7.91319 117.395 7.89964 117.378 7.87354C117.293 7.73832 117.016 7.62074 117.046 7.2933C117.051 7.22943 117.132 7.05859 117.102 6.94056C117.084 6.86792 117.022 6.81461 116.871 6.8166C116.849 6.82685 116.035 6.93609 116.364 6.52794C116.418 6.45997 116.872 6.19697 116.48 6.08344C116.432 6.06853 116.396 6.12635 116.339 6.14463C116.307 6.1547 116.268 6.15267 116.214 6.11418C115.98 5.93828 115.944 5.59948 115.555 5.22238C115.517 5.19121 115.34 5.1035 115.259 4.99468C115.221 4.98236 115.23 4.99252 115.342 4.98164C115.385 4.97482 115.545 4.90088 115.572 4.91531C115.596 4.92085 115.6 4.90494 115.601 4.89529C115.601 4.87196 115.568 4.83599 115.525 4.77122C115.488 4.7141 115.442 4.63406 115.407 4.51827C115.401 4.49696 115.405 4.47428 115.416 4.45098C115.46 4.35207 115.628 4.24596 115.611 4.12635C115.599 4.03956 115.553 3.91231 115.473 3.80189C115.416 3.72276 115.342 3.65271 115.254 3.62128C115.04 3.53701 114.785 3.97731 114.581 3.7279C114.568 3.7118 114.556 3.69542 114.543 3.67873C114.407 3.50954 114.222 3.1742 114.142 2.9735C110.499 3.19826 121.1 -1.20037 118.062 0.534359C118.21 0.698528 118.292 0.812282 118.376 0.931209C118.457 1.0483 118.527 1.16003 118.595 1.27269C118.662 1.38515 118.726 1.49736 118.79 1.61177C118.855 1.72651 118.918 1.84174 118.986 1.96608C119.046 2.07866 119.145 2.2505 119.224 2.41C119.224 2.41001 119.224 2.41 119.224 2.41001C119.246 2.45676 119.272 2.50882 119.297 2.56148C119.369 2.71477 119.452 2.51792 119.568 2.74367C119.649 2.90454 119.733 3.06946 119.819 3.24009C119.945 3.49077 120.072 3.75292 120.179 4.00749C120.289 4.27198 120.377 4.52847 120.416 4.75879C120.437 4.88938 120.443 5.01163 120.428 5.12449C120.362 5.63018 119.939 5.23138 119.981 5.57882C119.989 5.6447 120.077 5.67171 120.183 5.68142C120.35 5.69622 120.56 5.66303 120.578 5.67695C120.747 5.79849 120.79 5.93199 120.826 6.04918C120.852 6.14232 120.88 6.23016 120.928 6.23768C120.938 6.22667 121.106 6.0936 121.103 6.07457C121.089 6.03568 121.035 6.00128 121.034 6.0196C121.195 6.16377 121.443 6.45383 121.579 6.59801C121.691 6.71597 121.795 6.58704 121.877 6.70874C121.93 6.78905 121.977 6.86989 122.014 6.94736C122.106 7.14145 122.154 7.33341 122.161 7.55022C122.162 7.57705 121.906 7.55157 122.003 7.7207C122.054 7.81094 122.094 7.91616 122.134 8.02107C122.215 8.23372 122.296 8.45117 122.487 8.59366C122.549 8.63883 122.738 8.56508 122.79 8.6315C122.81 8.65748 122.809 8.70509 122.77 8.78872C122.741 8.85093 122.317 9.00463 122.767 9.03827C122.823 9.04239 123.201 9.11056 123.287 9.27586C123.315 9.33036 123.312 9.39424 123.257 9.4714C123.198 9.55327 122.921 9.8226 123.018 9.89008C123.032 9.8987 123.188 9.76083 123.243 9.82947C123.299 9.90008 123.348 9.97523 123.394 10.0495C123.505 10.2291 123.596 10.4049 123.714 10.5305C123.762 10.5832 123.895 10.393 123.961 10.4737C123.961 10.4737 123.961 10.4737 123.961 10.4738C124.147 10.7112 124.28 11.0189 124.39 11.3127C124.402 11.3438 124.413 11.3744 124.423 11.4044C124.463 11.5185 124.274 11.5365 124.262 11.5535C124.073 11.8296 124.468 11.6892 124.512 11.7162C124.709 11.8411 124.738 12.027 124.81 12.1985C124.838 12.2644 124.871 12.3283 124.923 12.3855C124.975 12.4426 125.113 12.2944 125.136 12.298C125.363 12.3413 125.003 12.4268 125.022 12.5314C125.058 12.7367 125.156 12.9246 125.27 13.0987C125.32 13.174 125.372 13.2467 125.424 13.3171C125.487 13.4027 125.619 13.1825 125.674 13.2609C125.805 13.446 125.93 13.642 126.045 13.8474C126.216 14.1552 126.363 14.4844 126.467 14.8252C126.469 14.8318 126.47 14.838 126.47 14.844C126.477 14.9355 126.311 14.9593 126.289 14.9962C126.12 15.2664 126.562 15.2856 126.62 15.3177C126.883 15.4601 126.793 15.6216 126.913 15.7947C126.924 15.8106 126.934 15.8265 126.945 15.8424C127.201 16.2183 127.434 16.6817 127.626 17.1183C127.823 17.5655 127.991 18.0107 128.141 18.4044C128.169 18.4758 128.195 18.545 128.221 18.6126C128.366 18.9876 128.489 19.3324 128.612 19.6606C128.767 20.0781 128.922 20.4698 129.118 20.8509C129.211 21.0301 129.312 21.2063 129.428 21.3798C129.463 21.4325 129.629 21.2578 129.661 21.301C129.771 21.4531 129.873 21.6047 129.972 21.7529C130.198 22.0886 130.356 22.3397 130.62 22.617C130.73 22.7332 130.861 22.8856 130.987 23.0428C131.055 23.1293 131.142 22.8705 131.257 23.0069C131.407 23.1819 131.536 23.3836 131.623 23.5781C131.664 23.6691 131.695 23.7572 131.717 23.8423C131.749 23.9698 131.502 23.9136 131.537 24.0388C131.6 24.2725 131.69 24.4901 131.801 24.6816C131.828 24.7285 131.856 24.773 131.886 24.8165C131.951 24.9106 132.075 24.6566 132.144 24.7867C132.253 24.9924 132.357 25.1875 132.455 25.3734C132.587 25.6251 132.708 25.8598 132.808 26.0737C132.906 26.2851 132.987 26.4768 133.022 26.627C133.036 26.6899 133.042 26.7451 133.034 26.7913C133.024 26.811 132.735 27.1643 132.778 27.0891C132.854 26.987 132.943 26.8668 133.023 26.7568C133.001 26.7366 132.993 26.7345 133.016 26.745C133.793 27.1333 134.593 28.0126 134.958 28.6229C135.382 29.2877 135.654 29.9198 135.909 30.503C135.971 30.6478 136.033 30.7918 136.094 30.9307C136.118 30.987 136.295 30.7896 136.344 30.8982C136.521 31.2927 136.706 31.6451 136.831 32.0022C136.905 32.2126 136.958 32.4247 136.977 32.6511C136.983 32.711 136.593 32.8896 136.731 33.0053C136.756 33.0278 136.928 33.21 137.039 33.2098C137.055 33.2089 137.202 33.0696 137.245 33.1273C137.291 33.1897 137.335 33.2506 137.377 33.311C137.561 33.5743 137.7 33.8022 137.81 34.0204C137.833 34.0645 137.662 34.1989 137.679 34.2331C137.707 34.2873 137.746 34.3299 137.789 34.3649C137.948 34.491 138.134 34.5049 138.273 34.7017C138.403 34.8705 138.257 35.2113 138.301 35.59C138.308 35.6442 138.453 35.6765 138.434 35.8852C138.388 36.4125 138.208 36.9708 138.164 37.5338C138.155 37.6574 138.495 37.5656 138.268 37.8341C138.252 37.8533 137.998 37.9153 137.92 38.0005C137.865 38.0603 137.905 38.2851 137.799 38.355C137.694 38.4244 137.623 38.2275 137.447 38.2901C137.266 38.3495 137.276 38.6099 136.938 38.5342ZM123.236 14.9468C123.344 14.7061 122.661 15.0125 122.906 15.1014C122.918 15.1053 123.231 14.9592 123.236 14.9468ZM133.664 31.5142C133.685 31.3525 133.631 31.2979 133.551 31.3072C133.432 31.3191 133.252 31.4685 133.213 31.6455C133.213 31.6462 133.212 31.6469 133.212 31.6476C133.151 31.9463 133.651 31.638 133.664 31.5142ZM135.571 32.7441C135.535 32.3888 134.859 33.2062 135.198 33.1962C135.218 33.1959 135.574 32.7648 135.571 32.7441ZM137.709 35.5211C137.707 35.5313 137.803 35.579 137.809 35.5702C137.938 35.3659 137.764 35.2781 137.709 35.5211ZM137.415 33.874C137.45 33.7149 137.175 33.7018 137.133 33.8992C137.099 34.0569 137.371 34.0705 137.415 33.874ZM119.713 7.45441C119.72 7.44549 119.669 7.36686 119.621 7.40851C119.469 7.54228 119.594 7.60525 119.713 7.45441ZM139.564 36.5601C139.516 36.1536 140.064 35.3426 140.272 36.0586C140.298 36.1784 139.916 35.9039 139.899 36.0805C139.849 36.3516 140.442 36.4443 140.158 36.8001C140.111 36.8272 139.569 36.5565 139.563 36.5595C139.563 36.5597 139.563 36.5599 139.564 36.5601ZM123.996 14.4589C124.004 14.452 123.954 14.3305 123.944 14.3325C123.699 14.3717 123.8 14.6202 123.996 14.4589ZM117.038 2.69943C117.041 2.69403 117.03 2.66934 117.012 2.63759C116.969 2.56171 116.895 2.44614 116.881 2.44864C116.617 2.50908 116.649 2.74707 116.785 2.80959C116.856 2.84277 116.952 2.82234 117.038 2.69943ZM128.914 21.5754C129.072 21.5665 129.168 21.5917 129.183 21.6647C129.193 21.7159 129.164 21.7914 129.089 21.8973C129.067 21.857 129.043 21.817 129.02 21.7767C128.982 21.7118 128.945 21.6458 128.914 21.5754Z" fill="#F76B1C"/>
<path d="M7.17926 37.2707C7.89873 37.1946 8.84349 37.2531 9.56081 37.3423C9.78569 37.3699 9.67315 37.5035 9.82835 37.5286C10.1317 37.5775 10.4135 37.5103 10.7134 37.5697C10.8127 37.59 10.6907 37.8008 10.7947 37.8173C10.8951 37.8329 10.9945 37.8441 11.0932 37.8521C11.5557 37.8896 12.0049 37.8577 12.4804 37.8928C13.7308 37.9853 14.9703 38.0543 16.211 38.1116C17.7897 38.1845 19.3699 38.2386 20.9752 38.2982C21.087 38.3024 21.2018 38.3087 21.3187 38.3166C22.1898 38.3755 23.184 38.5186 24.0445 38.4478C24.1585 38.4383 24.0911 38.2538 24.1128 38.2387C24.4534 38.0072 24.3393 38.3789 24.5611 38.4289C25.1589 38.5631 25.8025 38.6149 26.4194 38.6121C26.7107 38.6108 26.996 38.5973 27.2678 38.5747C27.6282 38.544 27.267 38.1779 27.6297 38.3834C27.6549 38.3973 27.5635 38.5929 27.6623 38.6138C27.8864 38.6608 28.3117 38.6256 28.4854 38.6409C28.8202 38.6714 28.8755 38.6693 29.1921 38.6709C29.6249 38.6748 30.1399 38.7705 30.6041 38.7241C30.7031 38.7137 30.5711 38.5137 30.7289 38.4788C30.8868 38.4441 31.3052 38.4589 31.4464 38.5053C31.4788 38.516 31.5006 38.5325 31.5154 38.552C31.565 38.6178 31.5344 38.718 31.5538 38.7458C31.7611 39.0496 32.2425 38.6237 32.3044 38.6127C33.438 38.426 34.4119 38.6558 35.4767 38.639C35.8465 38.633 36.2281 38.6097 36.6068 38.5856C37.0619 38.5568 37.5239 38.5357 37.9547 38.5468C38.369 38.5578 38.753 38.5918 39.1304 38.6283C39.6103 38.6748 40.079 38.7253 40.5844 38.7419C40.6797 38.7453 40.5807 38.5038 40.6974 38.5075C41.0133 38.5179 41.328 38.5333 41.6411 38.5545C42.472 38.611 43.2928 38.7088 44.1063 38.8644C44.189 38.8803 44.2717 38.8967 44.3542 38.9137C44.4747 38.9388 44.3028 39.1338 44.4222 39.1712C45.0451 39.3628 45.9728 39.7479 46.5402 39.3138C46.6381 39.2389 46.725 39.1397 46.7976 39.011C47.2953 39.0769 47.8975 39.1451 48.3358 39.3451C48.6189 39.4737 48.3301 39.6881 48.6883 39.6056C48.769 39.587 48.6725 39.3859 48.7926 39.373C48.8555 39.3662 48.9191 39.3614 48.9831 39.3582C49.432 39.3351 49.9078 39.3829 50.3382 39.2961C50.4382 39.2755 50.4113 39.0983 50.4395 39.0666C50.6737 38.81 51.0727 39.2338 51.1622 39.2633C51.2455 39.2911 51.3262 39.3136 51.4048 39.3318C51.7916 39.4135 52.1634 39.4374 52.5086 39.4652C52.7025 39.4808 52.8992 39.4987 53.1051 39.5322C53.2593 39.5578 53.1132 39.294 53.2641 39.3108C53.3808 39.3246 53.4968 39.3409 53.6119 39.3594C53.9598 39.4155 54.2981 39.4918 54.6199 39.5805C54.9062 39.6594 55.1796 39.748 55.4395 39.8425C55.5837 39.8953 55.4079 40.0673 55.4752 40.1027C55.4861 40.1083 55.4969 40.1132 55.5074 40.1175C55.7853 40.2287 55.9192 39.8952 56.1851 40.0154C56.2438 40.0408 56.1855 40.2076 56.194 40.228C56.2634 40.3906 56.3542 40.3676 56.4287 40.304C56.5017 40.2421 56.5597 40.1418 56.5819 40.1393C56.8852 40.1015 57.0708 40.1937 57.3259 40.2801C57.5747 40.36 57.8225 40.444 58.1166 40.4082C58.189 40.3989 58.0212 40.1826 58.2252 40.17C58.4524 40.1557 58.6818 40.1447 58.9127 40.137C59.4381 40.1196 59.9711 40.1195 60.5021 40.1364C61.0377 40.1534 61.5714 40.1879 62.0935 40.2395C62.1869 40.2487 62.28 40.2585 62.3726 40.2689C62.5824 40.292 62.436 40.4595 62.4495 40.4796C62.67 40.793 62.8011 40.3652 62.869 40.348C63.155 40.2812 63.4333 40.3488 63.6849 40.3487C63.9051 40.3485 64.1048 40.2965 64.2712 40.0569C64.6044 40.0765 64.9372 40.0862 65.2696 40.0899C65.8001 40.0957 66.3297 40.0861 66.8588 40.0762C67.506 40.064 68.1505 40.0505 68.7952 40.0619C69.4412 40.0733 70.0863 40.1097 70.7332 40.1975C70.8481 40.2131 70.9631 40.2303 71.0781 40.2493C71.107 40.2536 71.063 40.4647 71.1205 40.4723C71.8135 40.5645 71.6697 40.2438 72.1064 39.8272C72.2158 39.7226 72.585 40.1869 72.6179 40.2205C72.6535 40.258 72.6692 40.3128 72.6748 40.3718C72.6765 40.3897 72.6773 40.408 72.6774 40.4263C72.6782 40.5482 72.6498 40.6709 72.6734 40.685C72.6791 40.6883 72.6847 40.6911 72.6901 40.6936C72.9922 40.831 72.9014 39.8403 73.3114 39.8183C73.3245 39.8193 73.2798 40.0117 73.3159 40.0286C73.4282 40.0819 73.5324 40.0007 73.6428 40.0598C73.8954 40.1965 74.014 40.6915 74.3706 40.3767C74.4105 40.3404 74.3284 39.8793 74.5722 39.7792C74.6027 39.7667 74.6383 39.7598 74.6798 39.7601C74.829 39.7621 75.4844 39.7035 75.6709 39.7255C75.8575 39.7483 75.747 39.9463 75.7607 39.9534C76.2777 40.1601 76.0984 40.2785 76.381 40.6239C76.5181 40.7896 76.5546 40.6734 76.5655 40.4969C76.5772 40.3077 76.5601 40.0492 76.6077 39.9939C76.6999 39.8876 77.0826 40.0566 77.18 40.1181C77.2768 40.18 77.1773 40.3106 77.2611 40.3426C77.8185 40.5496 77.4467 39.8856 77.6043 39.7288C77.8749 39.4553 78.1575 39.7118 78.4433 39.8723C78.5462 39.9299 78.6487 39.9754 78.75 39.9798C78.8538 39.9843 78.7526 39.8477 78.8414 39.8227C79.1937 39.7258 79.4342 39.9003 79.8198 39.6656C79.8828 39.6273 80.1655 39.1989 80.4142 39.4575C80.4494 39.4948 80.383 39.666 80.5404 39.6834C80.5779 39.6876 80.62 39.6908 80.6653 39.6928C80.9037 39.7032 81.2298 39.6819 81.431 39.6122C81.6078 39.5508 81.3682 39.3105 81.6066 39.3658C81.7125 39.3905 81.5427 39.5678 81.74 39.6014C81.9364 39.635 82.4208 39.5718 82.6049 39.5456C82.7887 39.5191 82.665 39.3295 82.6783 39.3142C82.7093 39.2809 82.7781 39.2404 82.8532 39.2028C82.9758 39.1416 83.1155 39.0884 83.135 39.0864C83.7935 39.003 84.4384 38.9888 85.0768 38.9843C85.8263 38.979 86.5664 38.9869 87.3149 38.9123C87.4581 38.898 87.6016 38.8808 87.7456 38.8598C87.8664 38.8426 87.7704 38.6355 87.7886 38.6306C88.1992 38.5123 87.9103 39.1012 88.2126 39.271C88.1417 38.8417 88.3183 38.9081 88.6081 38.8425C88.7479 38.8107 88.6609 38.648 88.6727 38.63C88.8677 38.363 89.0333 38.6833 89.0744 38.7484C89.2269 38.9878 89.3619 38.6877 89.4651 38.8482C89.5569 38.9909 89.4027 39.2099 89.5709 39.2414C89.5904 39.2451 89.6142 39.2462 89.6432 39.2445C89.7145 39.0857 89.4857 38.6912 89.6964 38.6152C90.2247 38.4236 91.0849 38.4774 91.7824 38.5511C92.131 38.5876 92.4414 38.6227 92.6563 38.6278C93.2974 38.6425 93.504 38.6055 93.8798 38.6474C94.1566 38.6779 94.2775 38.6472 94.3516 38.59C94.4591 38.5068 94.4675 38.3677 94.7116 38.2751C95.1249 38.1183 94.9557 38.8665 95.0236 39.0226C95.0907 39.1785 95.1479 39.012 95.2262 39.0956C95.3043 39.1793 95.1495 39.2951 95.3251 39.3194C95.501 39.3437 95.9617 39.0366 96.0141 38.8672C96.1252 38.5084 95.8919 38.151 96.3568 38.2557C96.3836 38.2619 96.3088 38.4608 96.4108 38.4749C96.5809 38.497 96.7522 38.5125 96.924 38.5242C97.5704 38.5679 98.2255 38.5555 98.8654 38.6204C98.9768 38.632 98.8917 38.8541 98.9567 38.8633C99.3956 38.9257 99.44 38.8009 99.5098 38.589C99.5477 38.474 99.593 38.3333 99.713 38.1829C99.6645 38.7264 99.8878 39.0429 100.395 39.0145C100.7 38.9976 100.633 38.7658 100.82 38.5879C100.876 38.5343 101.102 38.6826 101.134 38.5696C101.241 38.2004 101.013 37.8079 101.547 37.9376C101.57 37.9439 101.509 38.1461 101.589 38.1534C101.806 38.1735 101.939 38.1182 102.062 38.0414C102.231 37.9351 102.379 37.7874 102.7 37.743C103.135 37.6828 103.923 37.8738 104.421 37.8898C104.429 38.1728 104.534 38.2889 104.661 38.2891C104.806 38.2893 104.98 38.1386 105.073 37.9119C105.396 37.9163 105.744 37.8804 106.058 37.9286C106.166 37.945 106.101 38.1227 106.115 38.1412C106.331 38.4324 106.459 38.0222 106.529 38.0044C106.777 37.9469 107.01 37.941 107.237 37.948C107.588 37.9588 107.924 37.9966 108.275 37.9172C108.383 37.8928 108.493 37.8571 108.605 37.8061C108.63 37.7945 108.658 37.3723 108.859 37.6738C108.872 37.6946 108.641 37.8935 108.979 37.8978C109.072 37.899 109.188 37.9154 109.317 37.9342C109.637 37.9807 110.036 38.0417 110.362 37.9242C110.383 37.9165 110.404 37.9081 110.424 37.8989C110.536 37.8487 110.816 37.4992 111.054 37.7611C111.086 37.7967 111.055 37.9182 111.101 37.9844C111.222 38.1579 111.291 37.9002 111.409 38.0019C111.435 38.024 111.463 38.0629 111.494 38.1268C111.666 38.4778 112.004 38.7388 112.457 38.5158C112.467 38.5108 112.477 38.5056 112.488 38.5001C112.502 38.4929 112.614 38.1552 112.763 38.1612C112.975 38.1698 113.264 38.2295 113.499 38.2456C113.525 38.2476 113.553 38.2486 113.584 38.2487C113.7 38.2485 113.627 38.0384 113.648 38.0347C114.015 37.9813 114.339 37.9901 114.666 38.0258C115.025 38.0655 115.394 38.1368 115.833 38.1851C115.845 38.1864 115.857 38.1877 115.869 38.1889C116.025 38.2057 116.483 37.9268 116.782 38.1613C116.951 38.2934 116.933 38.6282 116.981 38.891C117.026 39.1385 117.128 39.3208 117.494 39.2178C117.669 39.1692 117.891 38.722 118.156 38.491C118.348 38.3212 118.565 38.2683 118.768 38.5761C118.951 38.5656 119.131 38.5728 119.307 38.5942C119.664 38.6376 120.124 38.7642 120.264 38.9279C120.622 39.3301 121.081 39.3779 121.495 39.3853C121.578 39.3835 121.67 39.3775 121.752 39.3657C121.804 39.3596 121.981 39.0066 122.089 39.0157C122.254 39.0304 122.342 39.2018 122.463 39.2142C122.545 39.2232 122.628 39.2262 122.708 39.2248C123.114 39.2177 123.494 39.104 123.892 39.0926C123.9 39.0924 123.907 39.0922 123.914 39.092C124.099 39.0876 124.047 39.2679 124.269 39.2612C124.492 39.2536 124.619 39.0106 124.926 39.0951C124.981 39.1101 125.038 39.1464 125.097 39.1934C125.289 39.347 125.503 39.6149 125.737 39.6338C125.703 39.1676 125.908 39.1565 126.262 38.9964C126.267 38.9938 126.272 38.9903 126.276 38.9861C126.315 38.9404 126.24 38.8093 126.269 38.7883C126.393 38.6915 126.537 38.8126 126.654 38.7097C126.684 38.6848 126.671 38.5258 126.694 38.4966C126.888 38.2408 127.304 38.5702 127.365 38.6329C127.401 38.6644 127.432 38.6879 127.459 38.7052C127.638 38.8118 127.735 38.6641 127.89 38.7346C128.076 38.8149 127.814 38.9514 128.031 38.9919C128.165 39.016 128.309 39.024 128.458 39.0207C128.79 39.0138 129.137 38.9503 129.433 38.9072C129.452 38.9045 129.47 38.9019 129.488 38.8994C129.663 38.8745 129.512 38.6822 129.536 38.6738C129.839 38.5804 130.164 38.6946 130.357 38.4704C130.393 38.4294 130.425 38.377 130.453 38.3097C130.766 39.3959 130.666 38.1753 131.226 38.4249C131.27 38.447 131.261 38.9661 131.117 39.0311C130.977 39.0966 130.76 38.9318 130.561 39.063C130.541 39.0763 130.484 39.1794 130.426 39.2953C130.352 39.4449 130.277 39.6159 130.259 39.6347C130.008 39.896 129.852 39.1383 129.83 39.0977C129.703 38.8799 129.565 38.9215 129.451 39.0217C129.341 39.1185 129.249 39.2703 129.205 39.295C128.972 39.4254 128.739 39.4654 128.514 39.5007C128.338 39.5283 128.171 39.5531 127.997 39.6176C127.741 39.7114 127.728 40.2193 127.52 40.2096C127.509 40.2091 127.498 40.2083 127.487 40.2073C127.1 40.1619 126.761 39.6837 126.376 39.9776C126.312 40.0239 126.249 40.0886 126.18 40.1772C126.065 40.3205 126.25 40.8599 125.749 40.4718C125.719 40.449 125.387 40.1309 125.202 40.3077C125.188 40.3204 125.176 40.3355 125.164 40.3536C125.142 40.3876 125.158 40.5486 125.126 40.5652C124.913 40.6731 124.753 40.5578 124.515 40.639C124.361 40.6912 124.186 40.7568 124.004 40.7864C123.903 40.8027 123.8 40.8081 123.697 40.7942C123.523 40.7713 123.289 40.4795 123.204 40.4085C123.033 40.262 122.861 40.4026 122.72 40.3978C122.665 40.396 122.613 40.3718 122.572 40.2992C122.429 40.0398 122.705 39.6492 122.339 39.4785C122.319 39.8986 122.277 40.3292 122.243 40.7513C121.953 40.7394 121.658 40.7066 121.341 40.6473C120.843 40.49 120.305 40.5866 119.368 39.6715C119.479 39.8495 119.727 39.9282 119.643 39.9004C119.609 39.8921 119.576 40.1185 119.537 40.1159C119.438 40.1065 119.275 40.0389 119.103 39.9853C118.943 39.9356 118.767 39.8944 118.566 39.9062C118.405 39.9161 118.231 39.9735 118.053 40.0344C117.87 40.097 117.686 40.1636 117.507 40.1859C117.401 39.9145 117.187 39.8366 116.952 39.8134C116.762 39.7945 116.559 39.8113 116.384 39.7882C116.248 39.7704 116.26 39.6422 116.162 39.5987C115.796 39.4384 115.963 39.866 115.861 39.9315C115.845 39.9419 115.829 39.9505 115.814 39.9576C115.423 40.1431 115.375 39.2512 114.877 39.2734C114.862 39.2739 114.762 39.4134 114.668 39.5516C114.576 39.6785 114.489 39.8042 114.468 39.8196C114.172 40.0285 114.416 39.6412 114.234 39.6038C113.964 39.5499 113.772 39.4657 113.472 39.4979C113.399 39.5066 113.322 39.5249 113.237 39.5563C113.123 39.5988 112.858 39.9155 112.639 39.6681C112.611 39.6356 112.627 39.4662 112.604 39.4562C112.549 39.4346 112.501 39.4249 112.459 39.4248C112.176 39.4247 112.143 39.8483 111.937 40.0072C111.791 40.1193 111.595 40.0271 111.445 39.9151C111.35 39.8444 111.274 39.7656 111.244 39.7252C111.039 39.4554 111.394 39.6049 111.404 39.578C111.525 39.2556 111.253 39.3155 111.043 39.2934C111 38.772 110.706 38.8106 110.825 39.2727C110.838 39.3232 111 39.2705 111.043 39.2934C110.907 39.7001 110.681 39.8321 110.41 39.6416C110.337 39.5901 110.26 39.5151 110.181 39.4156C110.007 39.1964 110.158 38.9299 109.651 39.0414C109.441 39.0873 109.506 39.386 109.368 39.5185C109.354 39.5318 109.338 39.5434 109.32 39.5529C109.027 39.7043 108.669 39.6321 108.322 39.5756C108.123 39.5432 107.928 39.5159 107.75 39.5394C107.572 39.5628 107.75 39.7555 107.629 39.7782C107.505 39.8015 107.387 39.7948 107.271 39.7822C107.271 39.7822 107.271 39.7822 107.271 39.7822C107.087 39.7619 106.906 39.7276 106.713 39.7789C106.685 39.7867 106.759 39.991 106.661 39.996C106.001 40.0343 105.409 39.9506 104.732 39.9554C104.656 39.9559 104.579 39.9576 104.5 39.9607C104.125 39.9754 103.46 40.1222 103.07 40.1206C102.791 40.1197 102.483 40.0766 102.177 40.034C101.74 39.9732 101.306 39.9134 100.969 39.977C100.594 40.0467 100.689 40.2474 100.536 40.3975C100.268 40.662 99.7605 40.313 99.6105 40.1941C99.5955 40.1822 99.584 40.1726 99.5768 40.1661C99.5763 40.1657 99.589 40.1625 99.6082 40.1569C99.684 40.135 99.8608 40.0758 99.7167 40.0002C99.6539 39.8834 99.619 39.9436 99.5997 40.0223C99.5837 40.0876 99.5784 40.1656 99.5768 40.1661C99.5248 40.1206 98.8703 40.1147 98.7431 40.162C98.674 40.1879 98.7255 40.3803 98.6893 40.3901C98.1479 40.5337 97.6015 40.6274 97.0475 40.6665C96.7194 40.6896 96.3889 40.6935 96.0555 40.6772C96.0396 40.6741 96.0517 40.4548 96.0144 40.4502C95.4938 40.3803 95.1767 40.6632 94.756 40.841C94.6496 40.886 94.5481 40.917 94.4514 40.9324C94.1664 40.9776 93.9244 40.8864 93.7249 40.6136C93.4045 40.6729 92.9328 40.522 92.6632 40.4285C92.394 40.3351 92.3665 40.7607 92.343 40.7698C92.1538 40.8443 91.9851 40.8831 91.8256 40.8993C91.3831 40.9455 91.0223 40.8145 90.4819 40.8069C90.278 40.8036 89.9577 40.8338 89.6525 40.8742C89.4363 40.9027 89.2275 40.936 89.0725 40.9643C88.7773 41.019 88.5918 40.9308 88.3213 41.0126C88.2847 41.0236 88.3349 41.2099 88.3241 41.218C88.0342 41.4647 88.1491 40.9931 88.0801 40.915C87.8658 40.6725 87.7214 40.5281 87.444 40.5984C87.397 40.6103 87.3462 40.6284 87.2906 40.6534C87.2015 40.6927 86.9909 41.378 86.83 41.4307C86.62 41.498 86.6806 41.2531 86.4609 41.3302C86.4421 41.3366 86.4589 41.483 86.3199 41.4888C85.9996 41.5031 85.6633 41.5062 85.3238 41.5162C84.9792 41.5263 84.6312 41.5436 84.2939 41.5867C84.2024 41.5978 84.3444 41.8178 84.2127 41.8377C83.8752 41.8887 83.5184 41.9321 83.163 41.9549C82.8681 41.9738 82.5742 41.9786 82.293 41.9615C82.1403 41.9515 82.215 41.778 82.1769 41.7335C81.9429 41.4649 81.7099 41.9227 81.6642 41.9364C81.4201 42.0118 81.1853 42.0565 80.9554 42.084C80.2177 42.1724 79.5299 42.084 78.7405 42.2709C78.6771 42.2858 78.6128 42.3023 78.5475 42.3207C78.488 42.3393 78.0408 42.8523 77.7727 42.4855C77.7535 42.4613 77.4934 42.0852 77.3289 42.3778C77.3185 42.3961 77.4758 42.5882 77.2357 42.5911C77.1082 42.5925 76.9436 42.6425 76.7655 42.6589C76.6085 42.6734 76.4408 42.6619 76.2789 42.569C76.1688 42.5066 75.8938 42.1278 75.6124 42.4701C75.5954 42.4941 75.1719 43.2502 74.9668 42.7644C74.9401 42.7 74.9298 42.3452 74.746 42.3631C74.7015 42.3674 74.6468 42.3934 74.5791 42.4507C74.5127 42.5075 74.6473 42.6167 74.4677 42.7019C74.192 42.8331 73.8102 42.7143 73.4761 42.9674C73.4182 43.0122 73.1781 43.3833 72.9578 43.122C72.9234 43.0811 72.9762 42.9022 72.8663 42.8878C72.8422 42.8846 72.8182 42.8819 72.7941 42.8795C72.2952 42.8307 71.7838 42.9537 71.2802 42.8555C71.0933 42.8193 71.178 42.5315 70.9827 42.4619C70.934 42.4445 70.8732 42.4278 70.8064 42.4144C70.6049 42.3743 70.3487 42.3652 70.2004 42.4672C70.0029 42.6031 70.2362 43.0503 69.9349 43.0952C69.5788 43.1481 69.223 43.1686 68.8678 43.1702C68.2152 43.1731 67.5625 43.112 66.9139 43.0695C66.9138 43.0695 66.9138 43.0695 66.9138 43.0695C66.6181 43.0502 66.322 43.0349 66.0257 43.0315C65.8331 43.0292 65.9957 43.1886 65.7121 43.1969C65.5928 43.2004 65.4636 43.206 65.327 43.2126C64.8529 43.2355 64.2893 43.2706 63.7388 43.2764C63.1521 43.2826 62.5802 43.2556 62.1469 43.1451C62.0775 43.1274 62.0116 43.1075 61.9499 43.0854C61.2177 42.8225 62.1288 42.5954 61.5711 42.4932C61.302 42.4445 61.0217 42.9772 60.9572 42.9949C60.8152 43.0356 60.6827 43.0557 60.556 43.0632C60.1214 43.0891 59.7562 42.9682 59.3165 43.0318C59.1993 43.0489 59.3185 43.2605 59.2187 43.2726C59.1369 43.283 59.0539 43.2858 58.9706 43.2844C58.7066 43.2798 58.4386 43.2328 58.1908 43.2506C58.0445 43.2616 58.0744 43.4244 57.9394 43.4143C57.7452 43.4008 57.5642 43.3726 57.3818 43.3201C57.2405 43.2858 57.0845 43.2377 56.9144 43.1708C56.8779 43.1555 57.1385 42.9614 56.8225 42.9423C56.5949 42.9268 56.3744 42.8762 56.1423 42.8288C55.853 42.7694 55.5631 42.7162 55.2763 42.7532C55.1645 42.7681 55.0948 42.9686 54.9626 42.9514C54.9147 42.9452 54.859 42.9101 54.7924 42.8266C54.7406 42.7609 54.9069 42.3386 54.4896 42.6471C54.4454 42.6797 54.1571 42.8485 53.9124 42.8705C53.771 42.8831 53.6443 42.8476 53.5773 42.7079C53.5292 42.6073 53.4331 42.2128 53.2779 42.2414C53.257 42.2468 53.2955 42.4583 53.1746 42.4549C53.1308 42.4534 53.0875 42.4512 53.0443 42.4484C52.7522 42.4298 52.4732 42.3876 52.2074 42.3858C52.1327 42.3852 52.0589 42.3879 51.9868 42.395C51.8906 42.4057 52.0157 42.6217 51.8772 42.6319C51.7539 42.6438 51.643 42.6445 51.4657 42.6435C51.0819 42.6441 50.6709 42.6088 50.3208 42.5645C50.1218 42.5387 50.2607 42.3679 50.2462 42.3491C50.0176 42.0431 49.879 42.4513 49.8019 42.474C49.4575 42.5722 49.176 42.492 48.8833 42.4542C48.7721 42.4398 48.6591 42.4315 48.5399 42.4411C48.4203 42.4501 48.4973 42.6489 48.4729 42.6654C48.2196 42.8261 48.4171 42.4822 48.2632 42.4371C47.8327 42.3096 47.3505 42.3007 46.9136 42.3004C46.7531 42.3005 46.9197 42.5376 46.7757 42.535C46.6303 42.5331 46.4842 42.5291 46.338 42.5228C45.6264 42.4922 44.9114 42.4081 44.2444 42.2551C44.093 42.22 44.2022 42.0527 44.1732 42.0106C44.0916 41.89 43.9849 41.8784 43.8821 41.9089C43.7337 41.953 43.5934 42.0847 43.5483 42.1029C43.2008 42.2435 43.0822 42.0799 42.7852 42.0874C42.3489 42.0993 41.8859 42.088 41.4167 42.0644C40.6039 42.0234 39.7724 41.9471 39.0215 41.8868C38.765 41.866 38.5179 41.847 38.2841 41.8312C37.7041 41.7926 37.1953 41.7547 36.6646 41.7288C35.6001 41.6785 34.6 41.6292 33.4641 41.6693C33.3553 41.6729 33.4674 41.9043 33.3736 41.9104C32.7578 41.945 32.1469 41.9403 31.5358 41.9366C30.9437 41.933 30.3516 41.9304 29.7546 41.9651C29.6551 41.9705 29.7992 42.1905 29.6394 42.2065C29.3116 42.241 28.8962 42.2298 28.5648 42.1598C28.4031 42.126 28.6197 41.9367 28.457 41.9066C28.0782 41.8361 27.6726 41.8204 27.2838 41.8556C27.1184 41.871 27.3679 42.0966 27.1528 42.0991C26.9061 42.1027 26.6602 42.1067 26.4147 42.1094C25.2025 42.1227 24.0014 42.105 22.7737 41.8578C22.6724 41.8374 22.5853 41.379 22.3696 41.466C22.3529 41.5931 22.3533 41.7427 22.3457 41.8786C21.9982 41.8892 21.6514 41.8937 21.3051 41.8935C19.6032 41.8928 17.9124 41.7813 16.206 41.7522C16.1326 41.7509 16.0592 41.7498 15.9857 41.7489C15.896 41.7478 16.0508 41.9907 15.8771 41.9898C14.8715 41.9852 13.8963 42.0529 12.8684 41.8146C12.7664 41.7913 12.8175 41.3641 12.5171 41.4296C12.4641 41.4416 12.0117 41.5003 11.8952 41.5936C11.8794 41.6076 11.9628 41.8066 11.8171 41.813C11.5862 41.8224 11.3522 41.8262 11.117 41.8246C10.4896 41.8203 9.8528 41.7771 9.23743 41.6947C9.1009 41.676 9.24395 41.4623 9.14666 41.4472C8.4561 41.3415 7.70893 41.5123 7.04799 41.3299C6.60526 41.2071 6.76247 40.8377 6.52184 40.4805C6.48777 40.43 6.2142 40.4267 6.19628 40.2169C6.15041 39.6893 6.27301 39.1084 6.20851 38.5462C6.19481 38.4251 5.82888 38.5625 6.0416 38.2654C6.05647 38.2454 6.32193 38.1434 6.3861 38.0429C6.43078 37.9733 6.34444 37.7611 6.43656 37.6715C6.52873 37.5819 6.63459 37.7593 6.78815 37.6534C6.94169 37.5463 6.8696 37.3042 7.17926 37.2707ZM91.4637 40.0057C91.2178 39.8075 91.2013 40.556 91.4558 40.3707C91.4681 40.3608 91.4763 40.0154 91.4637 40.0057ZM120.435 39.7396C120.19 39.4187 119.924 39.2872 119.751 39.3536C119.719 39.3869 119.682 39.421 119.639 39.4467C119.606 39.5038 119.59 39.5851 119.632 39.7013C119.986 40.3447 120.579 39.8858 120.435 39.7396ZM124.06 39.7401C124.011 39.7114 123.969 39.7022 123.933 39.7077C123.699 39.7426 123.71 40.3937 123.976 40.3617C124.004 40.3582 124.034 40.3471 124.068 40.3269C124.091 40.3131 124.083 39.7536 124.06 39.7401ZM7.60879 40.3609C7.60529 40.351 7.40847 40.3441 7.40392 40.354C7.30271 40.5929 7.69598 40.6065 7.60879 40.3609ZM127.301 39.1823C127.182 39.0441 126.866 39.2379 127.022 39.4036C127.149 39.5352 127.439 39.3531 127.301 39.1823ZM78.805 40.3408C78.7999 40.3302 78.6585 40.3376 78.669 40.3997C78.7035 40.5999 78.8915 40.5189 78.805 40.3408ZM132.629 39.2536C132.468 39.158 132.34 39.0386 132.236 38.912C131.928 38.5474 131.852 38.0501 132.479 38.2811C132.51 38.2942 132.543 38.3097 132.578 38.3279C132.663 38.3737 132.531 38.3977 132.418 38.4403C132.311 38.4803 132.216 38.5328 132.302 38.6047C132.315 38.6162 132.329 38.6265 132.343 38.6358C132.637 38.8416 133.108 38.532 133.301 38.9864C133.326 39.0614 132.656 39.265 132.627 39.254C132.628 39.2538 132.628 39.2537 132.629 39.2536ZM91.3039 39.1112C91.2988 39.1014 91.103 39.0973 91.0986 39.1073C90.9995 39.3475 91.3922 39.3558 91.3039 39.1112ZM70.5636 40.4712C70.5522 40.4506 70.0991 40.4448 70.0849 40.4644C69.8595 40.8597 70.7779 40.8728 70.5636 40.4712ZM104.43 37.9056C104.495 37.8262 104.565 37.7682 104.637 37.7357C104.79 37.6666 104.948 37.7124 105.072 37.9116C104.93 37.9066 104.787 37.9079 104.644 37.9078C104.573 37.9077 104.501 37.9073 104.43 37.9056Z" fill="#F76B1C"/>
</svg>
