<?xml version="1.0" encoding="UTF-8"?>
<svg id="Layer_2" data-name="Layer 2" xmlns="http://www.w3.org/2000/svg" viewBox="0 0 223.3 222.33">
  <defs>
    <style>
      .cls-1, .cls-2 {
        stroke-width: 0px;
      }

      .cls-2 {
        fill: #fff;
      }
    </style>
  </defs>
  <path class="cls-1" d="M91.9,35.27c3.45-.47,6.66-1.02,9.89-1.34,9.38-.93,18.09.72,25.01,7.62,5.79,5.77,6.97,12.85,4.75,20.59-.09.32-.2.64-.34,1.09,2.85.99,5.23,2.56,6.28,5.41.99,2.7,1.59,5.29,3.92,7.58,2.47,2.43,1.14,6.01-.44,8.93-.56,1.03-1.25,2-1.95,2.95-2.48,3.36-2.58,5.91-.16,9.34,1.12,1.58,2.5,2.98,3.65,4.54,2.07,2.84,4.76,3.95,8.29,3.71,1.98-.13,3.62.02,4.1-2.53.26-1.42,1.43-1.95,3.02-1.87,5.42.27,10.85.41,16.28.56,3.65.1,4.04.7,2.36,4.16.44.14.86.38,1.28.4,4.31.18,8.62.36,12.94.47,4.41.12,4.65.38,3.3,4.53-5.58,17.06-11.2,34.11-16.76,51.17-1.88,5.78-3.71,11.58-5.45,17.41-.56,1.88-1.4,2.68-3.49,2.64-14-.26-28-.37-42.01-.56-2.92-.04-5.86-.07-8.76-.37-3.21-.33-5.85.84-8.31,2.62-3.49,2.53-6.82,5.27-10.36,7.74-6.2,4.32-12.96,7.46-20.47,8.76-1.57.27-3.18.35-4.78.43-2.45.13-4.73.33-7.08,1.54-1.47.75-4.06.26-5.76-.53-6.28-2.92-9.78-8.44-12.38-14.55-.71-1.67-.86-3.58-1.26-5.39-.14-.6-.19-1.25-.44-1.8-3.36-7.36-4.38-15.16-4.09-23.13.45-12.65,4.78-23.7,14.09-32.54,4.39-4.18,9.61-7.04,15.2-9.26,1.53-.61,2.36-1.57,2.44-3.23.25-5.62.57-11.25.77-16.87.07-1.85-.15-3.71-.24-5.63-3.67-.46-6.96-1.34-9.56-3.93-4.25-4.24-4.85-9.28-3.38-14.82.67-2.52,1.21-5.08,1.98-7.57,1.18-3.82,2.5-7.59,3.81-11.51-1.24-.57-2.99-1.1-4.42-2.08-5.55-3.8-7.47-10.02-5.5-17.18,1.81-6.57,8.32-11.97,15.44-12.89,4.9-.63,9.51,0,13.86,2.52,3.1,1.8,5.97,6.11,4.88,10.4-.18.72-.1,1.51-.16,2.46ZM91.7,107.56c.16-.23.32-.46.48-.69.45.09.91.15,1.34.29,3.02.92,5.98,2.12,9.06,2.74,6.94,1.4,14.81-1.34,18.14-8.84,3.51-7.88,4.57-16.32,5.5-24.77.56-5.08-1.32-9.63-3.59-14.05-9.48,1.01-18.9,2.16-27.85-2.45-.48.99-.88,1.79-1.24,2.6-1.63,3.71-4.32,6.43-7.84,8.33-3.86,2.08-5.07,1.89-8.19-1.09-.15-.14-.29-.3-.45-.44-4.37-3.54-12.22-3.83-13.81,4.02-.71,3.48.07,6.78,2.13,9.71,1.99,2.84,4.74,4.37,8.2,4.76,3.03.34,3.27.6,3.32,3.62.06,3.62.07,7.25-.02,10.87-.09,3.32.09,6.73-.67,9.91-.71,2.97-.36,5.39,1.14,7.88,4.55,7.5,10.42,13.37,19.38,15.15,4.16.83,7.74-1.03,8.49-5.49.6-3.51-.36-6.76-1.97-9.8-.28-.52-1.56-.88-2.27-.74-2.69.55-2.67.64-2.74-2.06-.01-.56-.15-1.12-.11-1.67.25-3.2-.75-5.41-4.24-6.1-.81-.16-1.46-1.13-2.19-1.72ZM124,143.08c2.75-.71,5.27-1.29,7.74-2.05.51-.15,1.02-.88,1.19-1.45,1.86-5.92,3.63-11.87,5.48-17.79.28-.89.28-1.98,1.95-1.84,4.71.39,9.44.53,14.17.74,4.24.18,8.49.28,12.73.46,3.75.15,7.52.24,11.26.58,2.42.22,2.28.55,1.86,2.97-.53,3.08-3.14,5.71-1.99,9.16.06.17-.41.51-.6.78-.73,1.04-1.75,1.99-2.14,3.15-3.7,11.06-7.3,22.15-10.92,33.24-.96,2.96-1.01,2.99-4.04,2.94-11.07-.2-22.15-.37-33.22-.6-1.68-.03-3.36-.28-4.93-.42-1.4,2.32-2.86,4.72-4.4,7.27,17.03.25,34.19.5,51.36.75,7.79-24.02,15.53-47.91,23.3-71.87-4.33-.28-8.43-.41-12.5-.86-3.85-.43-4.07-.47-5.05,3.32-.29,1.11-.66,1.69-1.9,1.65-6.12-.2-12.27-.08-18.36-.61-3.17-.28-3.11-.16-2.26-3.27.13-.46.25-.92.43-1.59-5.4-.31-10.67-.52-15.92-.96-1.85-.15-2.58.49-3.07,2.17-2.31,7.95-4.71,15.87-7.08,23.81-1.02,3.42-2.04,6.84-3.07,10.32ZM135.2,147.26c-5.64,1.37-10.92,3.41-15.86,6.57-.58-2.09.83-2.79,2.04-3.3,3.81-1.62,7.63-3.29,11.57-4.52,2.1-.65,2.82-1.37,1.72-3.57-.58.07-1.25.11-1.91.22-6.53,1.18-12.4,4.21-18.47,6.68-3.27,1.33-5.62,3.63-7.04,6.76-1.11,2.44-2,5.01-2.74,7.6-.64,2.25-1.61,4.18-3.72,5.26-3.57,1.83-7.17,3.62-10.83,5.28-4.71,2.14-9.96,3.11-14,6.69-3.89,3.46-7.32,7.25-9.12,12.23-1.47,4.07-.2,6.13,4.13,6.09,3.51-.03,7.07-.45,10.51-1.16,8.22-1.71,14.97-6.38,21.55-11.3,3.6-2.69,6.97-5.65,11.35-7.22,1.61-.58,3.2-2.12,4.07-3.63,1.4-2.43,2.26-5.17,3.21-7.83,1.06-2.97,2.18-5.72,5.4-7.14,2.26-1,4.22-2.69,6.47-3.75,2.25-1.07,2.62-2.53,1.58-5.01-4.49,2.54-8.91,5.09-13.4,7.54-.66.36-1.59.24-2.39.34.4-.62.65-1.49,1.21-1.81,4.28-2.39,8.58-4.77,12.98-6.92,1.8-.88,2.33-1.94,1.68-4.09ZM65.29,152.68c.33-.11.67-.23,1-.34.35.79.85,1.54,1.03,2.37.75,3.59,1.36,7.21,2.1,10.79.37,1.76,1.52,2.15,3.05,1.47.16-.89.32-1.71.45-2.53.81-5.29,1.81-10.62.38-15.9-2.13-7.89-4.51-15.7-6.81-23.54-.38-1.29-.84-2.54-1.3-3.92-12.17,7.44-18.64,18.2-20.19,31.79-1.04,9.06-.47,18.1,3.5,26.78,5.2-6.27,11.36-10.55,19.05-12.46-.8-4.84-2.29-9.58-2.27-14.52ZM105.41,119.4c.5,1.67,1.19,3.27,1.43,4.93.48,3.31.83,6.68-1.43,9.59-2.8,3.61-6.67,3.78-10.6,2.81-6.54-1.6-11.58-5.64-15.65-10.82-2.07-2.64-3.66-5.66-5.61-8.74-1.28.54-2.69,1.26-4.18,1.75-1.87.61-2.15,1.58-1.59,3.43,2.48,8.14,4.83,16.32,7.18,24.5.38,1.33.98,1.8,2.45,1.83,9.74.18,19.47.53,29.21.72,1.49.03,3.07-.27,4.46-.8,2.51-.95,4.92-2.2,7.44-3.35-1.54-7.76-4.14-15.01-7.17-22.16-1.21-2.86-3.01-3.82-5.94-3.69ZM73.6,172.01c-1.98-1.91-3.91-3.22-6.98-2.43-6.79,1.76-11.89,5.82-16.19,11.11-1.17,1.43-1.57,3.08-.9,4.88,2.19,5.86,5.53,10.93,10.67,14.59,2.02,1.44,4.39,1.95,6.89.76-3.35-3.44-3.8-5.21-1.52-9.59,1.52-2.92,3.34-5.83,5.6-8.19,2.84-2.97,6.27-5.38,9.62-8.17-.71-1.15-1.9-2.37-3.77-1.54-3.53,1.56-6.95,3.36-10.41,5.06-.67.33-1.34.65-2.02.98l-.54-.84c2.23-3.37,6.23-4.44,9.55-6.62ZM141.98,105.11c.07-.19.13-.37.2-.56-1.63-1.88-3.37-3.68-4.87-5.66-3.1-4.09-2.94-8.2.15-12.22.96-1.25,1.79-2.65,2.38-4.11,1.25-3.06.81-5.65-1.39-6.6-3.2-1.39-6.58-2.35-10.11-3.58,0,1.54.11,2.8-.03,4.03-.15,1.34.36,1.75,1.61,2.09,1.5.41,2.96,1.13,4.29,1.97.61.38.84,1.36,1.46,2.45-2.93-1.15-5.19-2.04-7.72-3.04-.38,2.41-.69,4.41-1,6.43.79-.09,1.45-.17,2.49-.29-5.32,5.08-4.3,12.31-7.69,17.18,2.95,4.33,5.69,8.36,8.5,12.5.97-3.1,1.93-6.11,2.85-9.14.39-1.29,1.05-1.96,2.54-1.8,2.1.22,4.22.24,6.33.34ZM99.96,116.89c10.08-.1,18.79,3.72,27.49,8.92.53-2.57,1.93-5.21,1.33-7.28-1.43-5-4.59-9.2-8.37-13.18-5.6,6.34-12.61,7.58-20.46,6.07v5.46ZM134.43,140.51c3.17.39,1.94,3.17,2.98,4.86,2.06,0,4.22.04,6.37-.04.44-.02,1.11-.41,1.24-.78,1.22-3.49,2.34-7.02,3.54-10.7-3.83-.18-7.4-.35-10.97-.52-.08-.29-.15-.58-.23-.86.64-.3,1.28-.86,1.91-.85,2.85.04,5.7.29,8.55.32.6,0,1.57-.46,1.74-.93.99-2.78,1.8-5.62,2.7-8.55-4.13-.2-8.07-.4-12.04-.59-1.94,6.25-3.81,12.3-5.78,18.64ZM120.86,143.85c.17.1.34.2.51.3,2.52-5.19,3.13-11.03,5.44-16.81-4.64-2.26-9.19-4.46-13.9-6.76,2.74,8.01,5.35,15.64,7.96,23.26ZM137.75,172.14c3.95,0,7.48.03,11.01-.04.48,0,1.21-.46,1.37-.87,1.28-3.46,2.45-6.96,3.72-10.63-3.89-.2-7.49-.42-11.1-.51-.48-.01-1.27.56-1.43,1.03-1.19,3.44-2.26,6.92-3.58,11.03ZM142.43,158.15c3.88.24,7.54.49,11.2.66.35.02.95-.33,1.05-.64,1.21-3.63,2.34-7.29,3.59-11.21-3.95,0-7.56-.02-11.16.03-.43,0-1.1.38-1.23.73-1.19,3.43-2.29,6.9-3.44,10.42ZM162.56,133.94c-3.97,0-7.44-.03-10.91.04-.51.01-1.32.4-1.46.79-1.21,3.42-2.29,6.89-3.47,10.51,3.73,0,7.26.03,10.79-.03.49,0,1.29-.34,1.42-.71,1.22-3.34,2.33-6.73,3.63-10.6ZM156.36,159.21c3.55,0,6.65.03,9.76-.04.33,0,.82-.5.94-.86,1.24-3.64,2.43-7.29,3.74-11.29-2.59-.15-4.92-.34-7.25-.39-3.25-.07-3.28-.03-4.29,3.08-.96,2.98-1.84,5.99-2.91,9.5ZM139.8,160.13c-11.13-.64-12.69,1.63-15.43,11.44h11.74c1.21-3.74,2.42-7.51,3.69-11.44ZM155.58,160.99c-1.23,3.6-2.49,7.29-3.81,11.15,3.31,0,6.37.03,9.43-.03.5-.01,1.29-.37,1.43-.76,1.21-3.35,2.3-6.74,3.51-10.36h-10.56ZM151.03,132.4c3.91,0,7.37.03,10.83-.03.52,0,1.36-.34,1.49-.72.99-2.77,1.83-5.58,2.75-8.48-.44-.14-.69-.28-.94-.29-3.4-.15-6.8-.3-10.21-.37-.37,0-.98.47-1.11.85-.91,2.73-1.73,5.5-2.82,9.04ZM178.85,123.5c-3.45-.17-6.71-.35-9.96-.45-.38-.01-1.02.33-1.13.64-.96,2.92-1.83,5.86-2.8,9.02h10.93c.97-3.01,1.93-6,2.96-9.21ZM144.14,147.09c-2.04,0-3.7.03-5.36,0-1.39-.03-1.9.64-1.63,1.92.21.97.65,1.89.79,2.87.37,2.59-.23,4.85-2.78,6.32,1.55.14,2.87.21,4.18.1.51-.04,1.31-.39,1.44-.78,1.16-3.37,2.21-6.78,3.36-10.42ZM136.62,73.17c-.46-1.66-.63-2.71-1.04-3.66-1.97-4.58-6.91-4.37-10.47-6.82.91,2.25,1.65,4.15,2.45,6.03.2.48.52,1.09.94,1.27,2.46,1.03,4.96,1.96,8.13,3.17ZM174.01,135.26c-.04-.3-.08-.59-.11-.89-2.87,0-5.75-.05-8.62.05-.46.01-1.14.57-1.28,1.01-.21.69-.33,1.69.02,2.21.8,1.18,1.92,2.14,3.09,3.38,2.37-1.98,4.64-3.87,6.9-5.75ZM162.6,139.33c-.62,2.02-1.14,3.72-1.76,5.73h10.44c.6-1.66,1.25-3.5,2.06-5.74-1.23.85-2.04,1.49-2.91,2.01-3.83,2.27-4.11,2.21-6.93-1.14-.17-.21-.39-.38-.89-.85ZM71.57,47.23c4.9-3.37,10.12-6.96,14.8-10.19-6.18.56-13.86,5.85-14.8,10.19Z"/>
  <path class="cls-2" d="M91.7,107.56c.73.6,1.38,1.56,2.19,1.72,3.49.68,4.49,2.9,4.24,6.1-.04.55.09,1.11.11,1.67.07,2.7.05,2.61,2.74,2.06.7-.14,1.99.21,2.27.74,1.61,3.04,2.57,6.29,1.97,9.8-.76,4.46-4.34,6.32-8.49,5.49-8.97-1.78-14.83-7.65-19.38-15.15-1.51-2.49-1.85-4.91-1.14-7.88.76-3.18.58-6.59.67-9.91.1-3.62.09-7.25.02-10.87-.05-3.01-.29-3.27-3.32-3.62-3.46-.39-6.21-1.93-8.2-4.76-2.05-2.93-2.83-6.23-2.13-9.71,1.59-7.85,9.44-7.56,13.81-4.02.16.13.3.29.45.44,3.12,2.98,4.33,3.17,8.19,1.09,3.52-1.9,6.21-4.62,7.84-8.33.36-.82.77-1.61,1.24-2.6,8.95,4.61,18.37,3.46,27.85,2.45,2.28,4.42,4.16,8.97,3.59,14.05-.93,8.45-2,16.89-5.5,24.77-3.33,7.5-11.2,10.23-18.14,8.84-3.08-.62-6.04-1.82-9.06-2.74-.44-.13-.9-.19-1.34-.29-.16.23-.32.46-.48.69ZM108,92.92c.56.57,1.02,1.43,1.69,1.67,2.27.81,4.58-1.47,4.04-3.85-.86-3.74-1.7-7.48-2.62-11.2-.17-.69-.69-1.28-1.05-1.92-.32.68-.99,1.42-.89,2.02.54,3.03,1.1,6.08,2.02,9.01,1.03,3.29.49,4.23-3.19,4.26ZM114.88,70.44c.07,1.11-.12,1.94.19,2.21,2.17,1.91,4.42,3.73,6.72,5.49.27.21.96-.13,1.45-.22-.2-.45-.29-1.03-.63-1.32-1.87-1.65-3.8-3.25-5.73-4.84-.42-.34-.91-.6-2-1.32ZM99.6,71.17l-.33-.69c-.35.37-.7.73-1.04,1.1.5.46,1.02,1.35,1.48,1.31,2.26-.17,4.53-.49,6.75-.95.61-.13,1.09-.91,1.63-1.39-.75-.14-1.52-.46-2.24-.37-2.1.24-4.17.65-6.26.99ZM99.42,100.02c.1.16.21.32.31.49,2.92.59,5.83,1.2,8.76,1.73.28.05.96-.51.92-.6-.17-.47-.44-1.18-.81-1.27-2.18-.56-4.38-1.11-6.61-1.35-.81-.09-1.72.65-2.58,1.01ZM102.84,77c-2.39,1.16-2.61,3.41-3.53,5.92.97-.21,1.79-.13,2.16-.5,1.39-1.41,2.28-3.06,1.37-5.41ZM115.95,80.58c-1.41,1.16-1.4,4.23.02,5.95,1.36-1.64,1.35-4.11-.02-5.95Z"/>
  <path class="cls-2" d="M124,143.08c1.04-3.48,2.05-6.9,3.07-10.32,2.37-7.93,4.78-15.85,7.08-23.81.49-1.68,1.22-2.32,3.07-2.17,5.25.43,10.52.65,15.92.96-.18.67-.31,1.13-.43,1.59-.86,3.11-.91,3,2.26,3.27,6.09.53,12.24.41,18.36.61,1.24.04,1.61-.54,1.9-1.65.99-3.79,1.2-3.74,5.05-3.32,4.07.45,8.17.58,12.5.86-7.77,23.96-15.51,47.85-23.3,71.87-17.17-.25-34.33-.5-51.36-.75,1.54-2.55,3-4.95,4.4-7.27,1.57.14,3.25.38,4.93.42,11.07.22,22.15.39,33.22.6,3.03.06,3.08.02,4.04-2.94,3.62-11.09,7.22-22.18,10.92-33.24.39-1.16,1.4-2.11,2.14-3.15.19-.28.66-.61.6-.78-1.14-3.44,1.47-6.07,1.99-9.16.41-2.41.56-2.75-1.86-2.97-3.74-.33-7.5-.42-11.26-.58-4.24-.17-8.49-.28-12.73-.46-4.72-.2-9.46-.35-14.17-.74-1.66-.14-1.67.95-1.95,1.84-1.85,5.92-3.62,11.87-5.48,17.79-.18.57-.69,1.29-1.19,1.45-2.47.75-4.99,1.34-7.74,2.05Z"/>
  <path class="cls-2" d="M135.2,147.26c.65,2.15.12,3.21-1.68,4.09-4.41,2.15-8.7,4.53-12.98,6.92-.56.31-.82,1.19-1.21,1.81.8-.1,1.73.02,2.39-.34,4.48-2.45,8.91-5,13.4-7.54,1.04,2.47.67,3.94-1.58,5.01-2.24,1.06-4.2,2.74-6.47,3.75-3.22,1.43-4.34,4.18-5.4,7.14-.95,2.66-1.82,5.41-3.21,7.83-.87,1.52-2.46,3.06-4.07,3.63-4.38,1.57-7.75,4.53-11.35,7.22-6.58,4.91-13.33,9.59-21.55,11.3-3.44.71-7,1.13-10.51,1.16-4.32.04-5.6-2.02-4.13-6.09,1.8-4.98,5.23-8.78,9.12-12.23,4.04-3.58,9.29-4.55,14-6.69,3.65-1.66,7.25-3.45,10.83-5.28,2.11-1.08,3.09-3.01,3.72-5.26.73-2.59,1.62-5.15,2.74-7.6,1.43-3.13,3.78-5.43,7.04-6.76,6.07-2.47,11.94-5.5,18.47-6.68.66-.12,1.33-.16,1.91-.22,1.1,2.2.38,2.91-1.72,3.57-3.95,1.23-7.76,2.9-11.57,4.52-1.21.51-2.62,1.21-2.04,3.3,4.94-3.16,10.22-5.2,15.86-6.57Z"/>
  <path class="cls-2" d="M65.29,152.68c-.02,4.94,1.47,9.68,2.27,14.52-7.69,1.91-13.85,6.19-19.05,12.46-3.98-8.69-4.54-17.72-3.5-26.78,1.56-13.59,8.02-24.35,20.19-31.79.46,1.37.93,2.63,1.3,3.92,2.29,7.84,4.68,15.66,6.81,23.54,1.43,5.29.43,10.62-.38,15.9-.13.82-.29,1.63-.45,2.53-1.53.67-2.69.29-3.05-1.47-.75-3.59-1.36-7.21-2.1-10.79-.17-.82-.68-1.58-1.03-2.37-.33.11-.67.23-1,.34Z"/>
  <path class="cls-2" d="M105.41,119.4c2.94-.13,4.73.83,5.94,3.69,3.03,7.15,5.63,14.4,7.17,22.16-2.52,1.16-4.93,2.4-7.44,3.35-1.39.53-2.97.83-4.46.8-9.74-.19-19.47-.54-29.21-.72-1.47-.03-2.07-.5-2.45-1.83-2.35-8.18-4.69-16.36-7.18-24.5-.56-1.85-.28-2.83,1.59-3.43,1.49-.49,2.91-1.2,4.18-1.75,1.95,3.07,3.54,6.09,5.61,8.74,4.07,5.18,9.11,9.22,15.65,10.82,3.93.96,7.8.8,10.6-2.81,2.26-2.91,1.91-6.28,1.43-9.59-.24-1.67-.93-3.27-1.43-4.93Z"/>
  <path class="cls-2" d="M73.6,172.01c-3.32,2.18-7.32,3.25-9.55,6.62l.54.84c.67-.33,1.34-.65,2.02-.98,3.47-1.7,6.89-3.5,10.41-5.06,1.87-.83,3.05.4,3.77,1.54-3.34,2.79-6.78,5.2-9.62,8.17-2.26,2.36-4.08,5.27-5.6,8.19-2.27,4.38-1.82,6.15,1.52,9.59-2.5,1.2-4.86.68-6.89-.76-5.14-3.66-8.49-8.72-10.67-14.59-.67-1.8-.27-3.45.9-4.88,4.3-5.28,9.4-9.34,16.19-11.11,3.07-.8,5,.52,6.98,2.43Z"/>
  <path class="cls-2" d="M141.98,105.11c-2.11-.1-4.23-.12-6.33-.34-1.49-.16-2.15.51-2.54,1.8-.92,3.02-1.88,6.03-2.85,9.14-2.82-4.14-5.56-8.17-8.5-12.5,3.38-4.87,2.37-12.1,7.69-17.18-1.04.12-1.7.2-2.49.29.31-2.02.63-4.02,1-6.43,2.53.99,4.79,1.88,7.72,3.04-.62-1.09-.85-2.07-1.46-2.45-1.32-.84-2.78-1.56-4.29-1.97-1.25-.34-1.77-.76-1.61-2.09.14-1.23.03-2.49.03-4.03,3.52,1.22,6.91,2.19,10.11,3.58,2.2.95,2.64,3.55,1.39,6.6-.6,1.45-1.42,2.86-2.38,4.11-3.09,4.02-3.25,8.13-.15,12.22,1.5,1.98,3.24,3.78,4.87,5.66-.07.19-.13.37-.2.56Z"/>
  <path class="cls-2" d="M99.96,116.89v-5.46c7.85,1.51,14.86.26,20.46-6.07,3.77,3.98,6.93,8.18,8.37,13.18.59,2.07-.8,4.71-1.33,7.28-8.7-5.2-17.41-9.02-27.49-8.92Z"/>
  <path class="cls-2" d="M134.43,140.51c1.97-6.35,3.84-12.39,5.78-18.64,3.97.2,7.91.39,12.04.59-.9,2.93-1.7,5.77-2.7,8.55-.17.47-1.14.94-1.74.93-2.85-.03-5.7-.29-8.55-.32-.63,0-1.27.55-1.91.85.08.29.15.58.23.86,3.57.17,7.14.34,10.97.52-1.2,3.68-2.32,7.21-3.54,10.7-.13.37-.81.77-1.24.78-2.15.08-4.3.04-6.37.04-1.04-1.69.19-4.47-2.98-4.86Z"/>
  <path class="cls-2" d="M120.86,143.85c-2.61-7.63-5.22-15.25-7.96-23.26,4.71,2.29,9.26,4.5,13.9,6.76-2.31,5.78-2.92,11.62-5.44,16.81-.17-.1-.34-.2-.51-.3Z"/>
  <path class="cls-2" d="M137.75,172.14c1.32-4.11,2.39-7.59,3.58-11.03.16-.47.95-1.04,1.43-1.03,3.6.09,7.2.32,11.1.51-1.27,3.67-2.44,7.17-3.72,10.63-.15.42-.89.86-1.37.87-3.53.07-7.07.04-11.01.04Z"/>
  <path class="cls-2" d="M142.43,158.15c1.15-3.52,2.25-6.99,3.44-10.42.12-.35.8-.73,1.23-.73,3.61-.06,7.22-.03,11.16-.03-1.24,3.92-2.38,7.58-3.59,11.21-.1.31-.7.66-1.05.64-3.66-.17-7.32-.42-11.2-.66Z"/>
  <path class="cls-2" d="M162.56,133.94c-1.31,3.87-2.41,7.25-3.63,10.6-.14.37-.93.7-1.42.71-3.53.06-7.05.03-10.79.03,1.18-3.62,2.26-7.09,3.47-10.51.14-.4.95-.78,1.46-.79,3.47-.07,6.93-.04,10.91-.04Z"/>
  <path class="cls-2" d="M156.36,159.21c1.07-3.52,1.95-6.52,2.91-9.5,1-3.11,1.04-3.15,4.29-3.08,2.33.05,4.66.25,7.25.39-1.31,3.99-2.5,7.65-3.74,11.29-.12.37-.61.86-.94.86-3.1.07-6.21.04-9.76.04Z"/>
  <path class="cls-2" d="M139.8,160.13c-1.27,3.93-2.49,7.7-3.69,11.44h-11.74c2.75-9.81,4.31-12.08,15.43-11.44Z"/>
  <path class="cls-2" d="M155.58,160.99h10.56c-1.21,3.62-2.3,7.01-3.51,10.36-.14.39-.93.74-1.43.76-3.06.07-6.12.03-9.43.03,1.32-3.86,2.58-7.55,3.81-11.15Z"/>
  <path class="cls-2" d="M151.03,132.4c1.09-3.54,1.91-6.31,2.82-9.04.13-.38.73-.85,1.11-.85,3.4.06,6.81.22,10.21.37.25.01.5.15.94.29-.92,2.89-1.77,5.71-2.75,8.48-.14.38-.97.71-1.49.72-3.46.06-6.92.03-10.83.03Z"/>
  <path class="cls-2" d="M178.85,123.5c-1.03,3.2-1.99,6.2-2.96,9.21h-10.93c.96-3.15,1.83-6.1,2.8-9.02.1-.31.75-.65,1.13-.64,3.26.1,6.52.28,9.96.45Z"/>
  <path class="cls-2" d="M144.14,147.09c-1.15,3.64-2.2,7.05-3.36,10.42-.14.39-.93.74-1.44.78-1.31.11-2.63.04-4.18-.1,2.56-1.47,3.15-3.74,2.78-6.32-.14-.97-.59-1.9-.79-2.87-.27-1.28.25-1.96,1.63-1.92,1.66.04,3.32,0,5.36,0Z"/>
  <path class="cls-2" d="M136.62,73.17c-3.16-1.22-5.67-2.14-8.13-3.17-.42-.18-.73-.79-.94-1.27-.8-1.88-1.54-3.79-2.45-6.03,3.56,2.44,8.5,2.23,10.47,6.82.41.95.58,2,1.04,3.66Z"/>
  <path class="cls-2" d="M174.01,135.26c-2.27,1.89-4.53,3.78-6.9,5.75-1.17-1.24-2.28-2.2-3.09-3.38-.35-.52-.23-1.52-.02-2.21.14-.44.82-1,1.28-1.01,2.87-.09,5.75-.05,8.62-.05.04.3.08.59.11.89Z"/>
  <path class="cls-2" d="M162.6,139.33c.5.48.72.65.89.85,2.83,3.35,3.11,3.41,6.93,1.14.87-.52,1.68-1.15,2.91-2.01-.8,2.24-1.46,4.08-2.06,5.74h-10.44c.62-2.01,1.14-3.71,1.76-5.73Z"/>
  <path class="cls-2" d="M71.57,47.23c.94-4.33,8.63-9.63,14.8-10.19-4.69,3.22-9.91,6.82-14.8,10.19Z"/>
  <path class="cls-1" d="M108,92.92c3.68-.03,4.22-.96,3.19-4.26-.91-2.93-1.47-5.98-2.02-9.01-.11-.6.57-1.35.89-2.02.36.64.88,1.24,1.05,1.92.92,3.72,1.76,7.46,2.62,11.2.55,2.38-1.76,4.65-4.04,3.85-.68-.24-1.13-1.1-1.69-1.67Z"/>
  <path class="cls-1" d="M114.88,70.44c1.1.72,1.58.98,2,1.32,1.93,1.59,3.85,3.19,5.73,4.84.34.3.42.88.63,1.32-.49.08-1.18.42-1.45.22-2.29-1.76-4.55-3.58-6.72-5.49-.3-.27-.11-1.1-.19-2.21Z"/>
  <path class="cls-1" d="M99.6,71.17c2.08-.34,4.16-.75,6.26-.99.72-.08,1.49.24,2.24.37-.54.48-1.02,1.26-1.63,1.39-2.22.46-4.49.79-6.75.95-.46.03-.99-.85-1.48-1.31.35-.37.7-.73,1.04-1.1l.33.69Z"/>
  <path class="cls-1" d="M99.42,100.02c.86-.36,1.77-1.1,2.58-1.01,2.23.25,4.43.8,6.61,1.35.37.09.63.8.81,1.27.03.09-.65.65-.92.6-2.93-.53-5.84-1.14-8.76-1.73-.1-.16-.21-.32-.31-.49Z"/>
  <path class="cls-1" d="M102.84,77c.91,2.35.02,4-1.37,5.41-.37.37-1.19.3-2.16.5.92-2.51,1.14-4.76,3.53-5.92Z"/>
  <path class="cls-1" d="M115.95,80.58c1.37,1.84,1.38,4.31.02,5.95-1.42-1.72-1.43-4.79-.02-5.95Z"/>
</svg>