<svg width="373" height="68" viewBox="0 0 373 68" fill="none" xmlns="http://www.w3.org/2000/svg">
<g clip-path="url(#clip0_359_2719)">
<path d="M203.32 31.3397C204.85 24.8097 206.91 18.5096 210.77 12.9096C217.21 3.54965 228.21 -0.32035 238.93 3.07965C240.81 3.67965 242.79 3.83965 244.61 4.67965C252.92 8.50965 256.34 15.8797 258.7 24.0197C259.41 26.4497 259.1 28.9697 259.24 31.4497C259.03 34.7697 259.39 38.1196 258.79 41.4196C257.54 50.8596 253.92 58.8596 244.73 63.0296C229.82 69.7996 207.61 61.9196 203.66 42.2296C203.11 39.4896 203.48 36.7696 203.2 34.0597C203.24 33.1497 203.27 32.2397 203.31 31.3397H203.32ZM209.43 32.9997C210.88 33.7197 212.33 33.4297 213.77 33.2397C218.19 32.6497 222.61 32.0297 227.04 31.4897C227.7 31.4097 228.65 30.9897 229.07 31.7797C229.42 32.4397 228.62 32.9496 228.28 33.4797C227.11 35.2896 225.84 37.0396 224.66 38.8496C222.8 41.6996 220.97 44.5696 219.15 47.4496C218.73 48.0997 218.34 48.8696 219.24 49.3896C220.14 49.9196 220.57 49.1696 220.97 48.5096C221.75 47.2396 222.52 45.9596 223.34 44.7096C225.46 41.4996 227.6 38.3097 229.73 35.1096C230.25 36.3497 230.22 37.3996 230.26 38.4396C230.5 44.3296 230.75 50.2197 231.04 56.1096C231.08 56.8396 230.87 57.9996 232.17 57.8997C233.36 57.7997 233.2 56.7996 233.16 55.9796C233.09 54.6596 232.89 53.3396 232.88 52.0096C232.85 46.9296 232.87 41.8497 232.87 36.8797C233.44 37.1497 233.75 38.0696 234.23 38.7996C237.08 43.0796 239.9 47.3896 242.71 51.7096C243.24 52.5196 243.9 53.4596 244.84 52.7896C245.84 52.0797 244.96 51.1897 244.46 50.4496C240.6 44.7496 236.75 39.0396 232.89 33.3397C231.81 31.7497 232.12 30.9397 234.14 30.8697C237.96 30.7197 241.77 30.5196 245.58 30.3097C247.87 30.1797 250.15 29.9897 252.71 29.7997C251.77 28.6597 250.87 28.9797 250.1 28.9997C245.37 29.1397 240.64 29.3397 235.9 29.4997C235.37 29.5197 234.67 29.8997 234.33 29.2297C234 28.5797 234.68 28.1697 235 27.7497C237.8 24.0396 240.65 20.3696 243.47 16.6697C243.9 16.1096 244.67 15.4396 243.89 14.7396C243.07 14.0096 242.38 14.6096 241.82 15.3296C240.45 17.0996 239.06 18.8696 237.69 20.6397C235.96 22.8797 234.25 25.1297 232.25 27.7497C232.25 21.1797 232.26 15.2097 232.24 9.23965C232.24 8.48965 232.62 7.34965 231.33 7.31965C230.13 7.28965 230.27 8.35965 230.26 9.16965C230.21 13.2397 230.19 17.3097 230.11 21.3797C230.07 23.6096 229.92 25.8397 229.79 28.5997C226.71 24.3097 224.01 20.5396 221.3 16.7797C220.8 16.0797 220.18 15.3096 219.28 15.9796C218.31 16.6996 219.35 17.3096 219.7 17.8096C222.15 21.3596 224.62 24.8997 227.17 28.3897C228.17 29.7597 227.77 30.2497 226.26 30.3897C224.61 30.5497 222.96 30.7097 221.32 30.9397C217.35 31.4797 213.33 31.7896 209.44 32.9997H209.43ZM227.74 13.8497C226.66 15.1497 226.45 16.5897 226.11 17.9997C225.88 18.9597 226.42 19.2397 227.02 19.3697C228 19.5697 227.71 18.7097 227.73 18.2397C227.77 16.7797 227.74 15.3196 227.74 13.8596V13.8497Z" fill="#E0714B"/>
<path d="M258.81 41.4298C259.41 38.1298 259.05 34.7798 259.26 31.4598C259.93 28.8498 260.6 26.2298 261.28 23.6198C262.85 17.6298 265.13 11.8998 270.97 8.96983C277.03 5.92983 283.01 2.23983 290.32 3.01983C295.76 3.59983 300.64 5.86983 305.68 7.72983C312.94 10.4198 317.52 15.3298 319.28 22.8898C319.96 25.8098 320.13 28.7698 320.17 31.7398C320.17 34.7498 320.15 37.7498 320.14 40.7598C319.82 47.6098 318.69 54.2198 313.15 58.9898C306.57 64.6598 298.87 66.7498 290.26 65.4398C286.75 64.8998 283.18 64.6098 279.74 63.7798C271.73 61.8298 264.87 58.1698 261.13 50.2398C259.81 47.4298 260.06 44.2398 258.8 41.4298H258.81ZM311.14 13.4598C311.05 13.3898 310.97 13.3298 310.88 13.2598C310.95 13.3398 311.02 13.4198 311.09 13.5098C311.05 13.9398 311.18 14.2898 311.56 14.5298C312.01 15.7998 312.22 17.2398 313.67 17.8498C313.8 17.9098 314.37 17.3998 314.33 17.3298C313.77 16.0898 313.28 14.7498 311.72 14.3998C311.67 13.9998 311.55 13.6398 311.14 13.4698V13.4598ZM305.14 60.3998C307.48 60.2898 308.64 59.0198 309.12 57.0798L308.61 56.5798C307.45 57.8498 306.28 59.1198 305.12 60.3898C305.06 60.4198 304.98 60.4398 304.93 60.4798C304.9 60.5098 304.91 60.5798 304.9 60.6298C304.98 60.5598 305.06 60.4798 305.14 60.4098V60.3998ZM311.15 37.2398C311.15 34.8298 311.15 33.1698 311.15 31.5098C311.19 22.3098 304.59 13.1098 295.92 10.3698C292.08 9.14983 288.36 9.17983 284.46 9.35983C281.66 9.48983 279.53 10.3798 277.6 12.2498C274.83 14.9298 273.18 18.2298 272.16 21.8698C270.42 28.0798 271.15 34.3598 271.81 40.6098C272.28 45.0398 272.88 49.4798 274.63 53.6398C275.96 56.7798 277.71 59.2398 281.44 60.1598C288.07 61.7898 294.46 61.5898 300.91 59.3398C306.49 57.3898 309.28 53.0298 310.48 47.8698C311.32 44.2498 311.59 40.3298 311.15 37.2498V37.2398ZM316.65 23.4198C317.16 27.1898 317.04 30.9798 317.11 34.7698C317.18 38.6798 316.91 42.5298 315.89 46.3398C314.94 49.8998 312.76 52.9698 311.18 56.9798C318.58 53.3398 319.48 31.3098 316.65 23.4298V23.4198ZM267.62 27.7598C265.69 35.4298 265.73 37.6898 268.04 39.0798C266.68 35.3698 267.91 31.8898 267.62 27.7598ZM262.93 32.4998C263.42 29.4298 263.82 26.9398 264.21 24.4498C263.07 26.8498 262.3 29.2998 262.93 32.4998Z" fill="#BBD6C8"/>
<path d="M203.32 31.3396C203.28 32.2496 203.25 33.1596 203.21 34.0596C202.4 37.8196 201.54 41.5696 200.8 45.3396C198.67 56.1696 189.72 65.0096 176.26 65.5396C162.83 66.0596 152.18 54.3196 150.78 41.8696C150.05 35.4096 150.62 29.1696 152.31 22.9796C154.74 14.0596 160.52 8.21962 169.13 5.06962C175.71 2.65962 182.38 1.27962 189.28 3.55962C193.04 4.79961 195.73 7.01961 197.47 10.9096C199.23 14.8096 201.61 18.4096 202.49 22.7096C203.08 25.5696 203.35 28.4396 203.31 31.3396H203.32ZM175.35 6.90962C175.58 6.42962 176.3 6.03962 175.72 5.40962C175.1 4.73961 174.35 5.00962 173.65 5.30962C169.79 6.99962 166.89 9.79961 164.72 13.3396C161.6 18.4296 159.9 23.9496 159.67 29.9696C159.29 39.6796 162.13 48.2296 168.41 55.6196C170.9 58.5496 174.11 60.4396 177.88 61.2196C179.17 61.4896 180.89 61.9196 180.68 59.4996C182.87 57.7196 184.95 55.8396 186.8 53.6896C192.49 47.1096 194.84 39.8396 192.45 31.1696C189.64 20.9796 183.99 12.9296 175.35 6.90962ZM189.48 8.94962C188.7 8.86962 187.8 8.95962 187.46 9.61962C187.09 10.3396 188.04 10.6796 188.47 11.1096C191.28 13.9096 193.44 17.0796 194.34 20.9996C194.64 22.2996 195.35 22.7796 196.66 22.4396C198.01 22.0896 198 21.2096 197.7 20.1396C196.56 16.0396 194.34 12.6096 191.24 9.71962C190.74 9.25962 190.22 8.85961 189.49 8.94962H189.48ZM199.72 27.8596C199.57 27.2796 199.65 25.9096 197.98 25.9396C197.1 25.9596 195.77 26.0796 196.12 27.2496C196.43 28.2796 195.44 30.3196 197.67 30.2596C198.68 30.2296 199.91 29.9496 199.71 27.8696L199.72 27.8596Z" fill="#ECC647"/>
<path d="M320.14 40.7697C320.14 37.7597 320.16 34.7497 320.17 31.7497C320.93 28.3797 321.32 24.9397 322.42 21.6097C324.92 14.0197 329.83 8.74968 337.14 5.74968C344.4 2.76968 351.82 0.989679 359.6 3.79968C363.1 5.05968 365.57 7.22968 367.12 10.8497C368.61 14.3197 370.83 17.4797 371.85 21.1997C373.1 25.7797 372.98 30.5497 372.37 35.0497C371.47 41.6197 370.69 48.3797 366.95 54.2297C362.34 61.4297 355.68 65.1897 347.27 65.3297C332.45 65.5697 322.52 56.6997 320.53 41.9297C320.48 41.5297 320.28 41.1597 320.14 40.7697ZM345.06 6.89968C345.34 6.42968 345.93 5.98968 345.39 5.37968C344.86 4.78968 344.18 4.94968 343.55 5.21968C340.5 6.49968 337.99 8.49968 335.97 11.0997C326.11 23.8097 327.26 44.4297 338.43 56.0097C340.98 58.6497 343.97 60.4997 347.57 61.2297C348.82 61.4797 350.56 61.9597 350.35 59.5397C352.28 57.9597 354.13 56.2997 355.81 54.4497C362.16 47.4497 364.72 39.6497 361.88 30.2197C358.93 20.4397 353.29 12.7897 345.07 6.90968L345.06 6.89968ZM358.93 8.94968C358.19 8.88968 357.44 9.05968 357.13 9.62968C356.78 10.2697 357.59 10.5897 357.98 10.9597C360.91 13.7897 363.12 17.0597 364.02 21.0697C364.34 22.5097 365.15 22.7397 366.37 22.4397C367.68 22.1097 367.72 21.2697 367.4 20.1497C366.26 16.1397 364.12 12.7597 361.08 9.92968C360.47 9.35968 359.86 8.76968 358.94 8.95968L358.93 8.94968ZM369.46 27.8897C369.16 27.1797 369.24 25.7597 367.55 25.9097C366.68 25.9897 365.37 26.0797 365.79 27.2697C366.15 28.2997 365.13 30.3197 367.33 30.2797C368.47 30.2597 369.65 29.7997 369.47 27.8897H369.46Z" fill="#ECC647"/>
<path d="M0.0699211 32.9898C0.0699211 23.5998 0.189921 14.1998 -7.89323e-05 4.80975C-0.0600789 1.73975 1.83992 2.61975 3.39992 2.49975C4.99992 2.36975 6.34992 2.33975 6.10992 4.70975C5.87992 7.01975 6.10992 9.35975 6.03992 11.6898C5.99992 12.9798 6.24992 13.6098 7.78992 13.6298C15.6799 13.7198 23.5699 13.8898 31.4599 14.1398C33.1599 14.1898 33.5799 13.6098 33.5799 12.0298C33.5799 9.78975 33.9499 7.55975 33.9199 5.31975C33.8999 3.67975 34.5599 3.43975 36.0099 3.49975C40.0199 3.67975 40.0699 3.61975 40.0099 7.54975C39.8399 20.0098 39.7799 32.4697 39.3699 44.9198C39.1699 50.8097 38.9999 56.7098 39.0399 62.5998C39.0599 66.0397 36.4199 64.8098 34.8499 65.3298C33.0499 65.9298 32.5699 64.9498 32.3999 63.1498C31.7899 56.7598 31.9899 50.3898 32.3999 44.0098C32.7399 38.6297 32.8399 33.2298 33.0299 27.8298C33.0899 25.9998 33.0599 24.1698 33.1099 22.3498C33.2166 19.0964 31.6499 17.4698 28.4099 17.4698C21.6699 17.4698 14.9399 17.4998 8.19992 17.4398C6.70992 17.4298 5.97992 17.6398 5.99992 19.4298C6.11992 31.3998 6.09992 43.3698 6.17992 55.3398C6.19992 58.2398 6.37992 61.1398 6.58992 64.0398C6.70992 65.6898 6.26992 66.3997 4.43992 66.3898C0.809921 66.3698 0.779921 66.4798 0.219921 62.9098C0.0699211 61.9298 0.0799211 60.9198 0.0799211 59.9298C0.0799211 50.9498 0.0799211 41.9698 0.0799211 32.9998L0.0699211 32.9898Z" fill="#ECC647"/>
<path d="M56.4302 47.6596C56.4302 51.5696 56.5302 55.4796 56.3802 59.3796C56.3102 61.0696 56.7602 61.5796 58.4202 61.4296C63.4702 60.9596 68.5402 60.9096 73.6202 60.8696C74.9202 60.8596 75.7002 61.1396 75.7102 62.5496C75.7302 64.1496 74.5302 63.8696 73.5902 63.8696C63.4502 63.8496 53.3302 64.6596 43.1902 64.4296C40.8402 64.3796 40.0202 63.6596 39.9702 61.2696C39.7402 50.7896 40.7602 40.3796 41.3402 29.9396C41.7502 22.5596 41.8402 15.1596 42.0202 7.77962C42.1202 3.84962 42.9102 3.00962 46.9002 3.01962C56.0502 3.01962 65.1902 3.03962 74.3402 3.06962C75.4302 3.06962 76.8702 2.66962 76.8702 4.54962C76.8702 6.34962 75.4102 6.11962 74.3302 6.14962C68.7702 6.29962 63.2102 6.45962 57.6502 6.43962C55.8102 6.43962 55.3802 7.11962 55.4802 8.77962C55.8602 15.3296 56.2102 21.8796 56.4402 28.4296C56.5002 29.9796 57.1602 30.1496 58.4402 30.1196C63.3402 30.0096 68.2502 29.9796 73.1502 29.9296C74.3402 29.9196 75.5402 29.7996 75.4402 31.6596C75.3402 33.5096 74.0902 33.0496 73.1202 32.9096C68.3102 32.2096 63.5202 32.4596 58.7202 32.9196C57.0302 33.0796 56.4302 33.7896 56.4702 35.4496C56.5502 39.5196 56.5002 43.5996 56.5002 47.6696H56.4502L56.4302 47.6596ZM51.5302 35.1996H51.5002C51.5002 27.0596 51.5002 18.9196 51.5002 10.7796C51.5002 9.42962 50.9402 8.22962 50.5302 6.98962C50.0302 5.45962 48.7802 5.98962 47.8102 6.01962C46.6302 6.05962 47.0202 7.08962 47.0002 7.74962C46.8002 15.7196 46.6402 23.6796 46.4202 31.6496C46.3802 33.2696 46.8502 34.7896 46.7502 36.4596C46.3302 44.2496 46.1902 52.0496 45.9702 59.8496C45.9502 60.3996 45.7602 61.0796 46.5202 61.3296C47.8002 61.7496 49.0702 61.9596 50.3902 61.3696C51.7102 60.7896 51.5102 59.6896 51.5102 58.6296C51.5102 50.8196 51.5102 43.0096 51.5102 35.1996H51.5302Z" fill="#242424"/>
<path d="M112.36 62.8804C111.47 65.7104 109.06 66.2004 106.64 66.3404C99.5301 66.7704 92.4001 66.9104 85.3001 67.4204C80.4001 67.7704 78.3901 64.8204 77.9901 60.5904C76.4001 43.6104 77.0301 26.5904 77.0401 9.5904C77.0401 7.5404 77.4601 5.4804 77.5001 3.4104C77.5401 1.3304 79.4401 -0.0196035 81.8901 0.0203965C84.1901 0.0503965 85.2901 1.1304 84.9501 3.4604C84.0001 10.1304 84.5301 16.8604 84.0901 23.5604C83.5601 31.7404 84.3301 39.9504 84.8701 48.1404C85.1001 51.6104 85.2901 55.0804 85.4501 58.5604C85.6101 62.1304 85.8501 62.2804 89.3801 61.9404C92.3401 61.6604 95.3301 61.5604 98.3001 61.4304C101.03 61.3104 103.76 61.6004 106.48 60.9704C108.47 60.5004 110.41 61.1504 112.27 61.8904C112.3 62.2304 112.33 62.5704 112.35 62.9104L112.36 62.8804Z" fill="#BBD6C8"/>
<path d="M112.36 62.8804C112.33 62.5404 112.3 62.2004 112.28 61.8604C111.97 52.6404 111.77 43.4104 112.16 34.1904C112.58 24.0704 112.71 13.9404 113.85 3.86042C113.94 3.11042 114.01 2.66042 114.89 2.51042C117.94 1.99042 121.01 2.08042 124.07 2.04042C125.48 2.02042 125.59 2.78042 125.7 3.93042C126.05 7.82042 126.02 11.7304 126.19 15.6104C126.51 23.0704 127.05 30.5304 126.89 38.0204C126.8 42.3304 127.23 46.6504 127.3 50.9704C127.32 52.3604 127.97 52.5504 129.12 52.6704C135.14 53.3104 141.19 53.5404 147.2 54.3804C149.38 54.6904 150.57 55.3104 150.35 57.7504C150.18 59.6504 150.22 61.5804 150.35 63.4804C150.45 65.1004 149.75 65.6804 148.25 65.8304C140.23 66.6104 132.19 67.1104 124.14 66.7804C121.17 66.6604 118.21 66.1904 115.26 65.7504C113.69 65.5204 112.41 64.7704 112.38 62.8904L112.36 62.8804ZM121.94 28.2904C121.94 20.3904 121.92 14.5704 121.94 8.75042C121.96 3.99042 121.75 3.82042 116.96 4.49042C115.86 4.64042 115.38 5.08042 115.33 6.23042C115.12 11.2004 114.69 16.1604 114.82 21.1504C114.9 24.2204 114.87 27.3004 114.68 30.3704C114.04 40.5804 114.4 50.7904 114.42 61.0004C114.42 62.3204 114.9 62.9404 116.28 63.0404C119.17 63.2504 122.04 63.8104 124.93 63.8704C131.9 64.0104 138.88 64.0604 145.84 63.4504C147.35 63.3204 148.68 63.4804 148.4 61.2804C148.16 59.4204 149.27 56.9004 145.81 56.9604C138.92 57.0804 132.08 56.0704 125.2 55.9204C123.18 55.8804 122.43 55.0904 122.34 53.1004C121.93 44.1304 121.85 35.1704 121.93 28.2804L121.94 28.2904Z" fill="#E0714B"/>
<path d="M209.43 33C213.32 31.8 217.33 31.49 221.31 30.94C222.95 30.72 224.6 30.55 226.25 30.39C227.75 30.25 228.16 29.76 227.16 28.39C224.62 24.9 222.14 21.36 219.69 17.81C219.34 17.3 218.3 16.7 219.27 15.98C220.17 15.31 220.79 16.08 221.29 16.78C224 20.54 226.7 24.31 229.78 28.6C229.9 25.84 230.05 23.61 230.1 21.38C230.18 17.31 230.2 13.24 230.25 9.16996C230.26 8.34996 230.12 7.28996 231.32 7.31996C232.61 7.34996 232.22 8.49996 232.23 9.23996C232.26 15.21 232.24 21.18 232.24 27.75C234.24 25.13 235.96 22.88 237.68 20.64C239.05 18.86 240.44 17.1 241.81 15.33C242.36 14.61 243.06 14.01 243.88 14.74C244.66 15.43 243.89 16.1 243.46 16.67C240.64 20.37 237.79 24.04 234.99 27.75C234.67 28.17 233.99 28.58 234.32 29.23C234.66 29.89 235.36 29.51 235.89 29.5C240.62 29.34 245.35 29.13 250.09 29C250.86 28.98 251.75 28.66 252.7 29.8C250.15 29.98 247.86 30.18 245.57 30.31C241.76 30.52 237.94 30.72 234.13 30.87C232.11 30.95 231.81 31.75 232.88 33.34C236.74 39.04 240.59 44.75 244.45 50.45C244.95 51.19 245.83 52.08 244.83 52.79C243.89 53.45 243.23 52.52 242.7 51.71C239.89 47.39 237.08 43.09 234.22 38.8C233.74 38.07 233.43 37.16 232.86 36.88C232.86 41.85 232.84 46.93 232.87 52.01C232.87 53.33 233.07 54.65 233.15 55.98C233.2 56.8 233.35 57.81 232.16 57.9C230.85 58.01 231.06 56.84 231.03 56.11C230.73 50.22 230.49 44.33 230.25 38.44C230.21 37.4 230.25 36.35 229.72 35.11C227.59 38.31 225.45 41.5 223.33 44.71C222.51 45.96 221.74 47.24 220.96 48.51C220.55 49.17 220.13 49.92 219.23 49.39C218.34 48.87 218.73 48.1 219.14 47.45C220.97 44.58 222.79 41.7 224.65 38.85C225.83 37.04 227.1 35.3 228.27 33.48C228.61 32.95 229.42 32.44 229.06 31.78C228.64 31 227.69 31.41 227.03 31.49C222.6 32.03 218.18 32.65 213.76 33.24C212.32 33.43 210.87 33.72 209.42 33H209.43Z" fill="#FEFEFE"/>
<path d="M227.74 13.8498C227.74 15.3098 227.76 16.7698 227.73 18.2298C227.72 18.7098 228.01 19.5698 227.02 19.3598C226.43 19.2398 225.88 18.9498 226.11 17.9898C226.45 16.5798 226.65 15.1498 227.74 13.8398V13.8498Z" fill="#FEFEFE"/>
<path d="M311.15 37.2404C311.59 40.3204 311.32 44.2404 310.48 47.8604C309.28 53.0204 306.49 57.3804 300.91 59.3304C294.46 61.5804 288.07 61.7904 281.44 60.1504C277.71 59.2304 275.96 56.7704 274.63 53.6304C272.87 49.4704 272.28 45.0304 271.81 40.6004C271.14 34.3504 270.42 28.0704 272.16 21.8604C273.18 18.2204 274.83 14.9204 277.6 12.2404C279.53 10.3804 281.66 9.48042 284.46 9.35042C288.37 9.18042 292.08 9.15042 295.92 10.3604C304.59 13.1104 311.2 22.3104 311.15 31.5004C311.15 33.1604 311.15 34.8204 311.15 37.2304V37.2404Z" fill="#FEFEFE"/>
<path d="M316.65 23.4202C319.48 31.3102 318.58 53.3302 311.18 56.9702C312.76 52.9602 314.94 49.8902 315.89 46.3302C316.91 42.5202 317.18 38.6702 317.11 34.7602C317.04 30.9802 317.16 27.1902 316.65 23.4102V23.4202Z" fill="#FEFEFE"/>
<path d="M267.62 27.7598C267.91 31.8798 266.67 35.3698 268.04 39.0798C265.73 37.6998 265.7 35.4398 267.62 27.7598Z" fill="#FEFEFE"/>
<path d="M262.93 32.5002C262.3 29.2902 263.07 26.8502 264.21 24.4502C263.81 26.9402 263.42 29.4302 262.93 32.5002Z" fill="#FEFEFE"/>
<path d="M311.72 14.3899C313.28 14.7399 313.77 16.0799 314.33 17.3199C314.36 17.3899 313.8 17.8999 313.67 17.8399C312.22 17.2299 312.01 15.7999 311.56 14.5199L311.72 14.3799V14.3899Z" fill="#FEFEFE"/>
<path d="M311.56 14.5202C311.18 14.2902 311.04 13.9302 311.09 13.5002L311.14 13.4502C311.55 13.6202 311.67 13.9802 311.72 14.3802L311.56 14.5202Z" fill="#FEFEFE"/>
<path d="M311.09 13.5098C311.02 13.4298 310.95 13.3498 310.88 13.2598C310.97 13.3298 311.05 13.3898 311.14 13.4598L311.09 13.5098Z" fill="#FEFEFE"/>
<path d="M175.35 6.91039C183.99 12.9304 189.63 20.9904 192.45 31.1704C194.85 39.8504 192.49 47.1204 186.8 53.6904C184.94 55.8404 182.86 57.7204 180.68 59.5004C177.46 59.0504 174.77 57.6204 172.46 55.3304C161.68 44.6404 159.85 25.2904 168.52 12.8104C170.28 10.2804 172.39 8.08039 175.35 6.90039V6.91039Z" fill="#FEFEFE"/>
<path d="M175.35 6.91001C172.39 8.09001 170.28 10.28 168.52 12.82C159.85 25.29 161.68 44.65 172.46 55.34C174.77 57.63 177.46 59.07 180.68 59.51C180.89 61.93 179.17 61.5 177.88 61.23C174.11 60.45 170.9 58.56 168.41 55.63C162.13 48.24 159.29 39.69 159.67 29.98C159.91 23.96 161.6 18.44 164.72 13.35C166.89 9.81001 169.79 7.02001 173.65 5.32001C174.35 5.01001 175.1 4.74001 175.72 5.42001C176.3 6.05001 175.58 6.44001 175.35 6.92001V6.91001Z" fill="#242424"/>
<path d="M189.47 8.95023C190.21 8.86023 190.73 9.26023 191.23 9.72023C194.33 12.6102 196.55 16.0402 197.69 20.1402C197.99 21.2102 198 22.1002 196.65 22.4402C195.34 22.7702 194.63 22.3002 194.33 21.0002C193.43 17.0802 191.27 13.9102 188.46 11.1102C188.03 10.6802 187.08 10.3402 187.45 9.62023C187.79 8.96023 188.69 8.87023 189.47 8.95023Z" fill="#242424"/>
<path d="M199.72 27.8602C199.91 29.9402 198.69 30.2202 197.68 30.2502C195.45 30.3202 196.44 28.2702 196.13 27.2402C195.78 26.0702 197.11 25.9502 197.99 25.9302C199.66 25.9002 199.57 27.2702 199.73 27.8502L199.72 27.8602Z" fill="#242424"/>
<path d="M345.06 6.89965C353.28 12.7796 358.92 20.4296 361.87 30.2096C364.71 39.6396 362.15 47.4396 355.8 54.4396C354.12 56.2896 352.27 57.9496 350.34 59.5296C346.01 59.0796 342.59 56.6497 340.23 53.4296C333.13 43.7496 330.52 32.9596 334.19 21.2196C336.06 15.2196 338.91 9.73965 345.07 6.88965L345.06 6.89965Z" fill="#FEFEFE"/>
<path d="M345.06 6.90035C338.9 9.75035 336.05 15.2304 334.18 21.2304C330.52 32.9604 333.13 43.7603 340.22 53.4403C342.58 56.6503 346.01 59.0904 350.33 59.5404C350.54 61.9604 348.8 61.4804 347.55 61.2304C343.96 60.5004 340.96 58.6503 338.41 56.0103C327.24 44.4304 326.09 23.8104 335.95 11.1004C337.97 8.50035 340.47 6.50035 343.53 5.22035C344.16 4.96035 344.84 4.80035 345.37 5.38035C345.92 5.98035 345.32 6.42035 345.04 6.90035H345.06Z" fill="#242424"/>
<path d="M358.93 8.94996C359.85 8.76996 360.47 9.35996 361.07 9.91996C364.11 12.75 366.24 16.13 367.39 20.14C367.71 21.26 367.68 22.11 366.36 22.43C365.14 22.73 364.33 22.5 364.01 21.06C363.11 17.05 360.9 13.78 357.97 10.95C357.58 10.58 356.78 10.26 357.12 9.61996C357.43 9.04996 358.19 8.87996 358.92 8.93996L358.93 8.94996Z" fill="#242424"/>
<path d="M369.46 27.8904C369.64 29.8004 368.47 30.2604 367.32 30.2804C365.12 30.3204 366.14 28.3004 365.78 27.2704C365.36 26.0804 366.68 25.9904 367.54 25.9104C369.23 25.7604 369.15 27.1804 369.45 27.8904H369.46Z" fill="#242424"/>
<path d="M51.5301 35.2C51.5301 43.01 51.5301 50.82 51.5301 58.63C51.5301 59.69 51.7301 60.79 50.4101 61.37C49.0801 61.96 47.8201 61.75 46.5401 61.33C45.7801 61.08 45.9701 60.4 45.9901 59.85C46.2101 52.05 46.3401 44.25 46.7701 36.46C46.8601 34.79 46.3901 33.26 46.4401 31.65C46.6601 23.68 46.8201 15.72 47.0201 7.74996C47.0401 7.08996 46.6501 6.05996 47.8301 6.01996C48.8101 5.98996 50.0501 5.45996 50.5501 6.98996C50.9601 8.22996 51.5201 9.42996 51.5201 10.78C51.5201 18.92 51.5201 27.06 51.5201 35.2H51.5501H51.5301Z" fill="#FEFEFE"/>
<path d="M121.94 28.2904C121.85 35.1704 121.94 44.1404 122.35 53.1104C122.44 55.1004 123.19 55.8904 125.21 55.9304C132.09 56.0804 138.93 57.0904 145.82 56.9704C149.28 56.9104 148.17 59.4304 148.41 61.2904C148.69 63.4804 147.37 63.3304 145.85 63.4604C138.89 64.0704 131.91 64.0204 124.94 63.8804C122.05 63.8204 119.18 63.2704 116.29 63.0504C114.9 62.9504 114.43 62.3204 114.43 61.0104C114.41 50.8004 114.04 40.5904 114.69 30.3804C114.88 27.3204 114.91 24.2304 114.83 21.1604C114.7 16.1704 115.13 11.2104 115.34 6.24038C115.39 5.09038 115.87 4.66038 116.97 4.50038C121.76 3.83038 121.97 4.00038 121.95 8.76038C121.93 14.5804 121.95 20.3904 121.95 28.3004L121.94 28.2904Z" fill="#FEFEFE"/>
</g>
<defs>
<clipPath id="clip0_359_2719">
<rect width="372.81" height="67.44" fill="white"/>
</clipPath>
</defs>
</svg>
