<svg width="512" height="98" viewBox="0 0 512 98" fill="none" xmlns="http://www.w3.org/2000/svg">
<path d="M84.0144 20.4H77.0144V93.2H84.0144V96H49.0144V93.2H56.0144V55.68H28.4344V93.2H35.4344V96H0.434375V93.2H7.43438V20.4H0.434375V17.6H35.4344V20.4H28.4344V52.88H56.0144V20.4H49.0144V17.6H84.0144V20.4ZM121.846 93.2H128.846V96H93.8461V93.2H100.846V34.4H95.2461V31.6H121.846V93.2ZM123.106 13.12C123.106 16.48 121.893 19.3733 119.466 21.8C117.133 24.1333 114.239 25.3 110.786 25.3C107.426 25.3 104.533 24.1333 102.106 21.8C99.6794 19.3733 98.4661 16.48 98.4661 13.12C98.4661 9.66667 99.6794 6.72666 102.106 4.3C104.533 1.87333 107.426 0.659992 110.786 0.659992C114.239 0.659992 117.133 1.87333 119.466 4.3C121.893 6.72666 123.106 9.66667 123.106 13.12ZM194.528 34.4V68.56C194.528 76.5867 194.855 81.4867 195.508 83.26C196.161 84.94 196.861 86.3867 197.608 87.6C199.008 90.0267 201.435 91.24 204.888 91.24C208.435 91.24 210.908 90.7733 212.308 89.84V92.64C207.828 95.8133 202.928 97.4 197.608 97.4C189.768 97.4 183.795 95.5333 179.688 91.8C175.581 88.0667 173.528 81.3933 173.528 71.78V34.4H163.168V31.6H173.528C178.008 30.8533 181.975 28.7067 185.428 25.16C188.881 21.52 191.261 16.5267 192.568 10.18H194.528V31.6H210.768V34.4H194.528ZM292.854 93.2H299.854V96H264.854V93.2H271.854V54C271.854 47.3733 270.874 42.66 268.914 39.86C266.954 37.06 264.014 35.66 260.094 35.66C254.774 35.66 250.527 38.46 247.354 44.06V93.2H254.354V96H219.354V93.2H226.354V4.99999H219.354V2.2H247.354V38.88C249.127 36.36 251.881 34.26 255.614 32.58C259.347 30.9 263.454 30.06 267.934 30.06C284.547 30.06 292.854 39.0667 292.854 57.08V93.2ZM371.468 68H329.188C330.122 84.4267 336.515 92.64 348.368 92.64C351.542 92.64 355.135 91.8933 359.148 90.4C363.255 88.9067 366.242 86.8067 368.108 84.1L370.068 85.5C368.015 88.9533 364.515 91.8 359.568 94.04C354.622 96.28 349.675 97.4 344.728 97.4C339.875 97.4 335.488 96.9333 331.568 96C327.648 94.9733 323.822 93.2933 320.088 90.96C316.355 88.6267 313.415 85.1267 311.268 80.46C309.215 75.7933 308.188 70.1467 308.188 63.52C308.188 52.2267 311.315 43.8733 317.568 38.46C323.822 32.9533 331.382 30.2 340.248 30.2C349.208 30.2 356.628 33.1867 362.508 39.16C368.482 45.1333 371.468 54.7467 371.468 68ZM329.048 65.2H351.868C351.868 56.6133 350.935 49.1 349.068 42.66C347.295 36.22 344.402 33 340.388 33C336.375 33 333.482 36.1267 331.708 42.38C329.935 48.54 329.048 55.6333 329.048 63.66V65.2ZM416.639 96H381.639V93.2H388.639V34.4H381.639V31.6H409.639V48.26C410.479 43.6867 411.972 39.9533 414.119 37.06C416.359 34.1667 418.786 32.2533 421.399 31.32C424.106 30.3867 426.672 29.92 429.099 29.92C431.619 29.92 433.999 30.3867 436.239 31.32C438.572 32.16 440.299 33.9333 441.419 36.64C442.539 39.2533 442.586 41.9133 441.559 44.62C440.532 47.2333 438.712 49.1 436.099 50.22C433.579 51.34 431.246 51.48 429.099 50.64C426.952 49.8 425.412 48.68 424.479 47.28C423.546 45.7867 422.892 44.3867 422.519 43.08C421.586 39.6267 420.326 37.9 418.739 37.9C416.966 37.9 415.006 40.98 412.859 47.14C410.712 53.2067 409.639 59.6467 409.639 66.46V93.2H416.639V96ZM511.195 68H468.915C469.848 84.4267 476.242 92.64 488.095 92.64C491.268 92.64 494.862 91.8933 498.875 90.4C502.982 88.9067 505.968 86.8067 507.835 84.1L509.795 85.5C507.742 88.9533 504.242 91.8 499.295 94.04C494.348 96.28 489.402 97.4 484.455 97.4C479.602 97.4 475.215 96.9333 471.295 96C467.375 94.9733 463.548 93.2933 459.815 90.96C456.082 88.6267 453.142 85.1267 450.995 80.46C448.942 75.7933 447.915 70.1467 447.915 63.52C447.915 52.2267 451.042 43.8733 457.295 38.46C463.548 32.9533 471.108 30.2 479.975 30.2C488.935 30.2 496.355 33.1867 502.235 39.16C508.208 45.1333 511.195 54.7467 511.195 68ZM468.775 65.2H491.595C491.595 56.6133 490.662 49.1 488.795 42.66C487.022 36.22 484.128 33 480.115 33C476.102 33 473.208 36.1267 471.435 42.38C469.662 48.54 468.775 55.6333 468.775 63.66V65.2Z" fill="#F46E30"/>
</svg>
