<svg width="128" height="212" viewBox="0 0 128 212" fill="none" xmlns="http://www.w3.org/2000/svg">
<path d="M64.3781 29.2152C65.0349 28.2971 65.6917 27.3791 66.3485 26.461C71.8301 29.6051 77.3118 32.7492 82.7934 35.8807C83.9049 38.3457 79.459 42.2066 83.2986 43.1373C87.9214 44.2691 88.7803 47.1743 89.5887 50.5951C90.7633 55.525 93.0999 56.3047 97.2554 53.4625C100.375 51.3371 103.861 47.9792 107.057 48.1175C114.736 48.4319 114.673 49.1362 112.311 41.4143C111.869 39.9806 112.071 38.3079 110.581 37.3395C110.606 36.3334 110.644 35.3399 110.669 34.3338C110.947 34.0948 111.225 33.8559 111.503 33.6169C116.189 40.3201 119.131 48.0295 125.131 54.0661C128.023 56.9713 127.202 62.53 125.27 66.5419C122.163 72.981 121.759 79.7974 121.064 86.6767C120.369 93.4679 112.463 97.4169 107.486 93.0152C101.916 88.0852 95.2471 85.7586 88.8687 82.6271C91.1927 79.3949 93.8704 81.47 96.5228 82.0486C99.2636 82.6396 100.224 80.6274 100.678 78.5649C101.183 76.3263 99.3394 76.2383 97.7985 76.0874C88.6793 75.1316 79.8884 71.4467 70.4913 72.9433C69.4682 71.5347 72.0448 67.0575 68.2304 68.6296C64.1255 70.3274 59.0733 72.1258 57.8102 77.6091C56.0293 77.6594 54.2484 77.7097 52.4675 77.76C50.0425 76.4772 49.752 74.3518 49.9162 71.8869C50.2951 66.2023 49.3857 61.5491 41.8958 62.0144C39.357 62.1779 38.9655 59.5494 37.854 57.9145C36.7678 56.3299 36.692 53.2612 34.2543 53.5505C31.5387 53.8649 30.1999 56.355 29.7831 59.0841C22.5711 52.8965 15.3211 46.7593 8.15962 40.5088C4.00417 36.9245 0.745495 32.3593 0.113969 27.0269C-0.946996 18.148 5.53247 15.5824 12.7319 14.2116C16.3695 16.249 19.9944 18.2738 23.632 20.3111C23.8215 20.4495 23.9983 20.5878 24.1878 20.7262C23.9857 20.613 23.771 20.4998 23.5689 20.3866C26.9665 16.6137 28.0401 9.28165 35.9215 12.3503C35.8457 19.5817 39.8496 26.1466 39.3823 33.4912C39.2812 35.189 40.7843 36.1951 42.5399 36.1196C44.0177 36.0568 43.8914 34.6608 43.7903 33.793C42.9441 26.7628 45.4576 19.4811 42.2494 12.627C41.6684 11.5077 41.0874 10.3884 40.5064 9.28165C40.1401 0.327267 41.1885 -0.51535 51.6213 0.289538C54.9052 7.40777 56.6609 14.5889 55.562 22.7132C55.1578 25.7316 56.0799 30.0075 58.9722 33.2648C61.0437 35.604 62.5972 36.9874 65.2244 35.3399C69.0135 32.963 65.1359 31.2274 64.3781 29.2278V29.2152ZM100.931 69.271C102.093 71.5347 103.204 73.811 104.417 76.0371C105.705 78.3888 106.046 80.8664 105.983 83.5074C105.933 85.5071 107.385 89.0788 107.612 88.7644C110.29 85.1172 116.125 90.7514 117.515 85.5071C118.689 81.055 120.129 76.1628 119.334 71.8491C118.576 67.7115 114.509 72.4528 112.046 71.2329C111.591 71.0065 110.871 70.8179 110.745 70.4531C108.32 63.3852 104.543 67.4097 100.918 69.2835L100.931 69.271Z" fill="#868D73"/>
<path d="M110.568 37.3521C112.071 38.333 111.856 39.9931 112.298 41.4268C114.66 49.1487 114.723 48.4444 107.044 48.13C103.849 48.0042 100.35 51.3496 97.2428 53.475C93.0873 56.3172 90.7507 55.5375 89.576 50.6076C88.7677 47.1742 87.9088 44.2691 83.286 43.1498C79.4464 42.2191 83.9049 38.3456 82.7808 35.8932C83.9681 35.0254 85.5595 34.5978 85.9511 32.8874C91.559 30.5482 96.9018 27.5299 103.015 26.549C103.47 27.052 103.937 27.5551 104.392 28.0581C104.657 28.3725 104.733 28.7372 104.619 29.1397C104.493 29.8062 104.379 30.4602 104.253 31.1268C102.131 31.8562 100.009 32.5856 97.8364 33.3276C103.975 43.8666 104.922 44.1559 110.555 37.3521H110.568Z" fill="#BEBD89"/>
<path d="M29.7705 59.1092C30.1873 56.3801 31.5262 53.9025 34.2417 53.5756C36.6794 53.2863 36.7426 56.3424 37.8414 57.9396C38.9529 59.5619 39.3444 62.1904 41.8832 62.0395C49.3731 61.5741 50.2825 66.2274 49.9036 71.9119C49.7394 74.3769 50.0299 76.5023 52.4676 77.7851C54.1348 81.5454 51.053 84.9033 51.5455 88.563C46.6449 93.4175 43.7272 99.5422 40.6075 105.529C39.9507 105.554 39.2939 105.591 38.6371 105.617C38.6245 99.1524 43.7525 94.2098 43.2094 87.2299C42.3253 75.8735 36.7678 67.2838 29.7705 59.1092Z" fill="#575A4D"/>
<path d="M51.5455 88.563C51.053 84.9033 54.1348 81.5454 52.4676 77.7851C54.2485 77.7348 56.0293 77.6845 57.8102 77.6342C62.8877 78.3762 66.0074 73.811 70.4913 72.9558C79.8884 71.4592 88.6919 75.1567 97.7985 76.0999C99.352 76.2634 101.183 76.3389 100.678 78.5775C100.224 80.64 99.251 82.6522 96.5228 82.0611C93.883 81.4826 91.1927 79.4075 88.8687 82.6396C75.8593 81.0676 63.1908 81.5706 51.5455 88.5505L51.5455 88.563Z" fill="#7F9392"/>
<path d="M64.3781 29.2152C65.1359 31.2023 69.0136 32.9503 65.2244 35.3273C62.5973 36.9748 61.0437 35.5914 58.9723 33.2522C56.0799 29.9949 55.1579 25.7189 55.5621 22.7006C56.6609 14.5762 54.9053 7.40771 51.6213 0.2769C57.4819 -0.980738 60.3869 2.16336 61.2963 7.31967C62.5594 14.5762 63.3804 21.9208 64.3908 29.2151L64.3781 29.2152Z" fill="#575A4D"/>
<path d="M16.6851 170.838C18.7817 161.041 25.3875 152.828 26.6505 142.73C26.8147 141.422 27.3073 139.988 28.8988 140.189C31.3491 140.504 30.4271 142.327 30.0734 143.723C27.4589 153.684 22.4825 162.588 17.5945 171.517C17.4934 171.014 17.2029 170.775 16.6851 170.825V170.838Z" fill="#9EACA3"/>
<path d="M85.9511 32.8874C85.5722 34.5853 83.9681 35.0254 82.7808 35.8932C77.2992 32.7491 71.8175 29.605 66.3359 26.4735C66.2854 24.2223 67.119 21.5687 69.544 23.2288C73.3837 25.8572 80.4568 23.1659 81.5052 30.5357C81.7451 32.1957 84.1955 32.5479 85.9511 32.9L85.9511 32.8874Z" fill="#575A4D"/>
<path d="M10.1551 211.271C7.99525 197.085 10.054 183.59 16.6977 170.825C17.2029 170.775 17.506 171.014 17.5945 171.517C18.2891 177 14.5126 181.251 13.5148 186.231C12.176 192.947 9.67512 199.625 12.4286 206.668C13.0854 208.353 13.4769 210.831 10.8624 211.988C10.6982 211.686 10.4582 211.434 10.1424 211.258L10.1551 211.271Z" fill="#C1CFCF"/>
<path d="M38.6371 105.617C39.2939 105.591 39.9507 105.554 40.6075 105.529C38.5614 112.835 36.4647 120.117 34.5322 127.449C34.0522 129.26 32.7892 129.776 31.3872 130.354L31.4504 130.405C32.8397 121.853 34.2164 113.301 38.6498 105.629L38.6371 105.617Z" fill="#7F9392"/>
<path d="M104.265 31.1267C104.392 30.4602 104.505 29.8062 104.632 29.1396C107.676 29.4918 109.987 30.9506 111.49 33.6294C111.212 33.8684 110.934 34.1073 110.656 34.3463C107.916 34.472 106.514 31.9568 104.265 31.1267Z" fill="#868D73"/>
<path d="M104.404 28.0581C103.937 27.5551 103.482 27.052 103.028 26.549C103.495 27.052 103.95 27.5551 104.404 28.0581Z" fill="#B4AB68"/>
<path d="M100.931 69.271C104.556 67.3971 108.332 63.3726 110.757 70.4405C110.884 70.8052 111.604 70.9813 112.058 71.2203C114.521 72.4402 118.588 67.6989 119.346 71.8365C120.129 76.1502 118.702 81.0424 117.527 85.4944C116.138 90.7388 110.303 85.1171 107.625 88.7517C107.398 89.0661 105.945 85.507 105.996 83.4948C106.059 80.8538 105.718 78.3762 104.43 76.0244C103.204 73.7984 102.093 71.5221 100.944 69.2583L100.931 69.271Z" fill="#7F9392"/>
<path d="M35.9088 12.3376C38.0181 12.4257 40.1274 12.5263 42.2367 12.6143C45.4448 19.4685 42.9314 26.7502 43.7776 33.7804C43.8786 34.6481 44.0049 36.0441 42.5272 36.107C40.7715 36.1825 39.2685 35.1638 39.3695 33.4785C39.8369 26.1465 35.833 19.5816 35.9088 12.3376Z" fill="#7F9392"/>
<path d="M104.265 31.1267C106.526 31.9568 107.928 34.472 110.656 34.3463C110.631 35.3524 110.593 36.3459 110.568 37.3521C104.935 44.1559 103.987 43.8667 97.8489 33.3277C100.021 32.5857 102.143 31.8561 104.265 31.1267Z" fill="#B4AB68"/>
<path d="M70.4787 72.9558C65.9948 73.811 62.8877 78.3762 57.7976 77.6342C59.0607 72.1509 64.1129 70.3399 68.2178 68.6547C72.0322 67.0826 69.4556 71.5598 70.4787 72.9684V72.9558Z" fill="#575A4D"/>
<path d="M35.9088 12.3376C28.0273 9.26901 26.9539 16.5885 23.5563 20.374L23.632 20.3111C19.9944 18.2738 16.3695 16.249 12.7319 14.2116C14.6643 12.7402 17.1274 11.5957 19.0977 12.9413C23.6068 15.9974 25.6909 14.3499 27.2823 9.93557C28.3812 6.89209 30.3389 9.09295 32.1451 9.33191C34.8733 9.69662 37.7151 9.33195 40.5064 9.28165C41.0874 10.4009 41.6684 11.5202 42.2494 12.627C40.1401 12.5389 38.0308 12.4383 35.9215 12.3503L35.9088 12.3376Z" fill="#575A4D"/>
</svg>
