<svg width="168" height="171" viewBox="0 0 168 171" fill="none" xmlns="http://www.w3.org/2000/svg">
<path d="M78.1346 65.4108C75.8149 64.6418 76.4831 61.1622 73.7347 60.5949C73.0035 65.4613 73.7348 69.7099 78.1094 73.8072C78.1094 70.4033 78.1094 67.8944 78.1094 65.3856C85.0055 61.4774 77.9455 59.0568 76.9874 55.9807C77.3656 59.1325 77.7564 62.2716 78.1346 65.4234L78.1346 65.4108ZM63.3717 46.0462C61.0898 47.0296 60.4972 49.0846 61.2032 50.6353C62.5774 53.6484 62.9682 57.8844 67.0151 58.5904C68.8306 58.9055 69.0323 56.3589 68.5532 54.9721C67.4186 51.669 66.6495 48.0382 63.3717 46.0462Z" fill="#99AEBE"/>
<path d="M137.149 56.0942C136.052 51.3665 132.724 52.8793 129.811 53.5475C122.663 55.1864 116.75 59.2838 110.775 63.2424C109.136 64.3266 107.282 66.6968 105.543 64.4905C103.815 62.3221 106.576 60.0654 107.951 59.7502C115.54 58.0609 111.128 49.8914 115.414 46.6136C116.813 47.7734 118.402 50.1058 119.347 46.374C120.142 43.2475 121.806 41.5707 125.134 41.8355C126.105 42.9827 127.076 44.13 128.046 45.2772C127.013 45.7689 126.294 46.8279 127.227 47.5087C128.084 48.1264 129.559 47.8995 130.757 48.0382C134.766 48.5551 138.775 48.8955 142.469 50.9126C146.138 52.9045 149.857 54.493 149.453 59.788C149.163 63.4819 153.16 64.377 154.811 66.8607C148.356 66.4698 142.772 64.5914 140.111 57.96C139.519 56.485 138.397 56.2328 137.111 56.0563L137.149 56.0942Z" fill="#7F9392"/>
<path d="M125.134 41.8481C121.806 41.5833 120.154 43.2601 119.347 46.3866C118.389 50.1184 116.801 47.786 115.414 46.6262C114.015 39.604 107.396 39.9696 102.643 37.9651C101.231 37.3725 99.882 37.6373 99.8568 35.6706C108.051 30.1486 120.041 33.0735 125.134 41.8481Z" fill="#9EACA3"/>
<path d="M67.1286 34.0064C69.9022 37.5995 70.8225 42.2893 74.1382 45.5924C74.6929 46.1471 74.6677 47.4961 74.5416 48.429C74.5038 48.7442 73.3565 48.9333 72.7262 49.1728C70.6712 43.2222 61.1654 44.7099 60.7368 37.1456C62.1992 34.7502 64.5189 34.0821 67.1286 34.0064Z" fill="#7F9392"/>
<path d="M130.757 48.0508C129.559 47.9121 128.084 48.139 127.227 47.5213C126.294 46.8405 127 45.7815 128.046 45.2898C129.509 45.6554 130.442 46.5505 130.757 48.0508Z" fill="#99AEBE"/>
<path d="M117.028 84.3216C116.599 79.3417 119.814 75.5218 123.483 78.5727C130.227 84.1955 136.254 80.5268 142.645 79.7326C146.995 79.1905 151.18 78.7114 150.903 85.141C147.802 88.192 143.868 86.4774 140.326 86.9691C133.984 82.5944 126.937 83.6534 119.94 84.3342L117.028 84.3342L117.028 84.3216Z" fill="#7F9392"/>
<path d="M87.4009 107.43C89.8215 105.981 88.8507 102.11 91.9016 101.127C88.9138 118.109 92.0403 135.292 90.2501 152.312C89.8467 152.337 89.4307 152.35 89.0146 152.362C88.4725 137.385 87.943 122.408 87.4009 107.43Z" fill="#9EACA3"/>
<path d="M98.3817 92.4027C101.42 84.788 106.765 82.6196 114.342 85.9479C109.741 89.8813 103.399 89.5031 98.3817 92.4027Z" fill="#7F9392"/>
<path d="M119.953 84.3468C126.95 83.666 133.997 82.607 140.338 86.9817C133.442 86.8682 126.357 88.2802 119.953 84.3468Z" fill="#99AEBE"/>
<path d="M89.0146 152.362C89.4307 152.362 89.8341 152.35 90.2501 152.312C90.5401 158.754 89.7584 164.995 86.5688 170.769C86.6445 164.528 86.5688 158.275 89.0146 152.35L89.0146 152.362Z" fill="#99AEBE"/>
<path d="M93.7171 96.5631C93.6919 94.3316 94.9274 93.4113 97.0202 93.3987C96.2259 94.7729 95.8981 96.6387 93.7171 96.5631Z" fill="#7F9392"/>
<path d="M63.3717 46.0462C66.6495 48.0382 67.4186 51.669 68.5532 54.9721C69.0323 56.3589 68.8306 58.9055 67.0151 58.5904C62.9556 57.8844 62.5774 53.6484 61.2032 50.6353C60.4972 49.0846 61.0898 47.0296 63.3717 46.0462Z" fill="#C1CFCF"/>
<path d="M78.1346 65.4108C77.7564 62.259 77.3656 59.1199 76.9874 55.9681C77.9329 59.0442 85.0055 61.4648 78.1094 65.373L78.1346 65.3982L78.1346 65.4108Z" fill="#7F9392"/>
<path d="M137.111 56.0563C136.997 56.2833 136.884 56.5102 136.783 56.7371C136.909 56.5228 137.035 56.3085 137.149 56.0942L137.111 56.0563Z" fill="#7F9392"/>
<path d="M98.3817 92.4027C97.9279 92.7431 97.474 93.0709 97.0202 93.4113C94.9274 93.4239 93.6919 94.3317 93.7171 96.5757L93.7549 96.5379C86.7201 97.7482 83.8583 95.0629 83.4549 86.8934C85.762 86.5026 86.1024 91.4698 89.0524 89.0493C90.8931 87.5364 90.2627 85.4184 90.1619 83.313C89.7458 74.6519 86.1528 66.3438 87.0353 57.6196C88.0691 47.3952 80.4544 40.8521 77.0378 32.3171C80.467 48.7694 86.3797 64.7931 82.1437 82.6952C78.3616 80.489 76.5083 72.6473 72.0328 80.2495C71.8941 80.489 70.1795 79.7578 69.171 79.5687C61.8462 78.1945 55.5931 75.7613 56.0721 66.5455C55.3283 59.3216 60.0308 62.133 64.4181 63.6332C60.5729 57.0775 56.3243 52.9172 50.9788 49.7275C49.6929 51.19 48.2431 52.8541 46.7933 54.5183C46.0494 54.4678 45.293 54.4174 44.5492 54.3796L44.0701 53.9131C43.8936 53.3962 43.5406 53.0684 43.0237 52.9298L42.2799 52.7911C42.7212 51.7951 43.1498 50.8118 43.5784 49.8158C45.5452 40.4991 53.0464 38.7089 60.7368 37.1582C61.1654 44.7225 70.6712 43.2349 72.7262 49.1854C73.3691 48.9459 74.5038 48.7568 74.5416 48.4416C74.6551 47.5087 74.6929 46.1597 74.1382 45.605C70.8225 42.3019 69.8896 37.6121 67.1286 34.019C71.3016 27.0599 81.3116 25.0932 84.2617 31.5858C87.2244 38.1164 91.1326 35.9101 95.293 35.9227C96.8184 35.9227 98.3313 35.7714 99.8568 35.6832C99.882 37.6499 101.231 37.3851 102.643 37.9777C107.396 39.9822 114.027 39.604 115.414 46.6388C111.128 49.9166 115.54 58.0861 107.951 59.7754C106.576 60.078 103.828 62.3473 105.543 64.5157C107.282 66.7094 109.148 64.3392 110.775 63.2676C116.75 59.309 122.676 55.2116 129.811 53.5727C132.711 52.9045 136.052 51.4043 137.149 56.1194C137.023 56.3337 136.897 56.548 136.783 56.7623C136.897 56.5354 137.01 56.3085 137.111 56.0815C138.397 56.258 139.531 56.5102 140.111 57.9852C142.759 64.6166 148.344 66.4951 154.811 66.8859L155.316 66.5581L155.757 66.9741L155.757 77.8541C151.584 78.5979 155.996 85.0402 150.903 85.1662C151.18 78.7366 146.995 79.2157 142.645 79.7578C136.266 80.552 130.227 84.2207 123.483 78.5979C119.814 75.5344 116.599 79.3543 117.028 84.3468C116.133 84.8889 115.237 85.4184 114.33 85.9605C106.753 82.6448 101.407 84.8006 98.3691 92.4154L98.3817 92.4027Z" fill="#99AEBE"/>
<path d="M56.0595 66.5203C55.5931 75.7361 61.8462 78.1693 69.1583 79.5435C70.1543 79.7326 71.8689 80.4764 72.0202 80.2242C76.4957 72.6221 78.349 80.4638 82.1311 82.67C86.3545 64.7805 80.4544 48.7442 77.0252 32.2918C80.4291 40.8269 88.0565 47.37 87.0227 57.5944C86.1402 66.3186 89.7332 74.6267 90.1493 83.2878C90.2501 85.3932 90.8931 87.5238 89.0398 89.024C86.0898 91.4446 85.7494 86.4774 83.4423 86.8682C83.8457 95.0502 86.7075 97.723 93.7423 96.5127C94.36 98.5424 93.1372 99.841 91.889 101.114C88.8255 102.098 89.8089 105.968 87.3883 107.418C84.6651 93.3987 69.6374 80.6151 52.8573 78.1188C48.3187 77.4381 43.7423 76.9338 39.1912 76.3538C40.9309 71.4875 44.5996 68.2853 48.6465 65.4108C51.1175 65.7764 53.5885 66.1547 56.0595 66.5203Z" fill="#7F9392"/>
<path d="M78.1094 65.3856L78.1094 73.8072C73.7348 69.7225 73.0035 65.4613 73.7347 60.5949C76.4831 61.1496 75.8149 64.6418 78.1346 65.4108L78.1094 65.3856Z" fill="#7F9392"/>
<path d="M48.6589 65.4109C44.612 68.2853 40.9559 71.4875 39.2035 76.3539C37.2746 76.3035 35.3583 76.2656 33.4294 76.2152C33.3034 75.7235 33.2151 75.2318 33.1521 74.7276C33.2529 74.2989 33.3538 73.8577 33.4294 73.4164C35.6987 71.4119 37.905 69.3569 40.2373 67.428C44.4229 63.9484 46.7426 59.9142 44.5489 54.3544C45.3054 54.4048 46.0492 54.4553 46.793 54.5057C48.3059 57.5188 47.852 60.6075 47.1208 63.7089C47.5999 64.251 48.0789 64.7931 48.558 65.3352L48.6589 65.3983L48.6589 65.4109Z" fill="#868D73"/>
</svg>
