<svg width="119" height="117" viewBox="0 0 119 117" fill="none" xmlns="http://www.w3.org/2000/svg">
<g clip-path="url(#clip0_101_122)">
<path d="M94.9012 69.9973C89.5951 66.3653 84.3651 62.8585 77.6913 61.6938C69.6626 60.2911 66.1928 61.8065 62.8242 69.7217C60.95 71.4375 59.823 73.479 60.0256 76.0965C59.7597 76.5599 59.671 77.0483 59.7597 77.5743C58.7592 77.0734 57.7588 76.5724 56.7457 76.0714C57.2396 69.6967 55.8466 64.3239 49.0209 61.8441C52.0982 56.4963 54.6056 61.9318 55.8719 62.9587C60.1902 66.4404 61.8365 63.5599 63.4448 60.6167C65.5976 56.6716 60.2789 45.688 55.7579 45.2246C51.4523 44.7863 49.5021 42.3316 49.4641 38.8248C49.4135 32.5628 46.3489 25.687 41.7773 22.3431C37.8769 19.4876 33.4193 18.1726 28.8731 17.6716C25.5046 17.2959 23.6683 15.9433 22.5413 13.0753C23.9343 12.2738 25.2766 11.3344 27.0369 11.6726C27.7967 12.4366 28.2779 12.1109 28.6198 11.2593C30.2028 9.18031 31.7857 7.11383 33.3687 5.03483C39.3332 4.70921 44.2087 0.17549 50.4012 0.751597C49.8694 5.03483 51.9969 10.2073 46.2982 12.7872C45.3865 13.2005 45.4498 14.0271 46.2982 14.2526C52.7567 16.0185 51.7562 23.7333 56.5811 26.7641C56.6444 27.2526 56.6951 27.741 56.7077 28.2294C53.7951 31.2853 54.5169 35.0175 56.8977 37.1842C60.8361 40.7535 60.9374 31.7111 65.6102 34.2285C64.2932 37.6851 64.3439 41.4549 64.5718 45.2371C64.6858 47.003 65.7622 48.6687 67.4211 47.2535C71.9421 43.3961 78.7298 40.6158 78.0712 33.452C77.742 29.9327 78.1979 27.4279 79.7935 24.4096C83.5419 17.3084 83.314 17.1957 78.5525 11.3845C84.2637 7.95295 90.0637 11.7603 95.813 11.1967L95.7243 11.109C97.7632 16.0185 101.841 18.0599 106.83 18.8239C107.831 19.9385 108.831 21.0531 109.819 22.1553C112.073 26.3884 103.639 29.7574 108.806 34.2285C104.462 39.0753 107.451 41.1793 111.959 43.0329C112.909 43.4212 113.859 45.0242 112.947 46.3017C108.983 51.9375 114.264 51.7121 117.189 52.9896C117.404 55.2815 118.519 57.9867 117.67 59.7901C115.568 64.2237 118.228 71.137 110.997 72.978C104.943 75.583 100.245 70.9491 94.8505 69.9973H94.9012Z" fill="#B4AB68"/>
<path d="M22.554 13.0753C23.6683 15.9558 25.5046 17.2959 28.8858 17.6716C33.432 18.1851 37.8896 19.4876 41.79 22.3431C46.3489 25.6871 49.4261 32.5753 49.4768 38.8248C49.5021 42.3316 51.465 44.7738 55.7706 45.2246C60.2915 45.688 65.6102 56.6716 63.4574 60.6167C61.8492 63.5599 60.2029 66.4404 55.8846 62.9587C54.6182 61.9318 52.1108 56.4963 49.0336 61.8441C34.5844 58.9635 19.9706 59.1013 5.3441 59.3643C3.60918 59.3894 1.62099 59.6524 0.785196 57.4481C2.54544 57.2603 4.17904 56.1957 3.49521 54.5801C1.55768 50.0214 3.72315 45.663 3.59652 41.2294C3.84979 36.1572 5.19213 31.7362 10.5615 29.6697C13.6894 29.9327 16.8047 30.1832 19.8819 30.4337C20.0719 25.0859 13.1069 27.9539 12.9549 23.4953L12.9169 23.558C14.1833 23.082 14.4366 22.0425 14.4746 20.8653C17.0833 18.1726 18.4383 14.2025 22.5919 13.0628L22.554 13.0753Z" fill="#BEBD89"/>
<path d="M56.5811 26.7641C51.7563 23.7333 52.744 16.0185 46.2982 14.2526C45.4624 14.0271 45.3865 13.2005 46.2982 12.7872C51.9969 10.2073 49.8694 5.04736 50.4012 0.751597C50.4012 0.751597 50.3759 -0.0123718 50.3759 0.000152319C50.9204 0.125393 51.465 0.23811 52.0095 0.363351C54.4789 1.4279 56.9357 2.49244 59.4051 3.55699C59.3164 6.28724 60.0256 8.41634 62.9382 9.56855C65.7242 10.6707 66.1041 13.2632 66.0281 15.9057C58.164 15.505 57.2396 21.0281 56.5684 26.7766L56.5811 26.7641Z" fill="#BEBD89"/>
<path d="M56.7457 76.0714C57.7461 76.5724 58.7466 77.0734 59.7597 77.5743C58.1134 89.9982 53.1493 101.495 49.4388 113.331C48.8943 115.096 48.0205 117.827 45.3358 116.75C43.4616 115.998 44.1581 113.619 44.3987 111.903C45.1205 106.968 48.9323 103.374 50.3126 98.74C52.5667 91.2131 54.6056 83.636 56.7331 76.0714H56.7457Z" fill="#F2EEDA"/>
<path d="M95.8383 11.1842C90.089 11.7477 84.2891 7.94042 78.5778 11.372C75.4245 10.6581 73.753 12.3113 72.8412 15.004C72.1827 16.9578 71.7394 18.9867 69.1054 19.1495C68.6369 18.9741 68.143 18.874 67.6364 18.8489C67.6364 17.8595 67.6491 16.8701 67.6618 15.8807C68.4342 7.77761 73.4997 5.66104 80.8193 6.53772C86.1253 7.17645 91.52 7.45198 95.8383 11.1842Z" fill="#868D73"/>
<path d="M12.9296 23.5079C13.0816 27.9664 20.0339 25.1109 19.8566 30.4462C16.7793 30.1957 13.6641 29.9327 10.5362 29.6822C10.7768 27.4154 10.4855 24.9356 12.9296 23.5079Z" fill="#B4AB68"/>
<path d="M60.0256 76.0965C59.823 73.4915 60.95 71.4501 62.8242 69.7217C62.6723 72.1765 64.1793 75.3576 60.0256 76.0965Z" fill="#F2EEDA"/>
<path d="M67.6618 15.8932C67.6618 16.8826 67.6491 17.872 67.6364 18.8614C66.6571 19.0117 66.1252 18.0265 66.0408 15.9057C66.5853 15.9057 67.1299 15.9057 67.6744 15.8932H67.6618Z" fill="#BEBD89"/>
<path d="M28.6325 11.2593C28.2906 12.0984 27.8094 12.4366 27.0495 11.6726C27.5814 11.5348 28.1006 11.3971 28.6325 11.2593Z" fill="#BEBD89"/>
<path d="M69.1054 19.1495C71.7394 18.9867 72.1827 16.9452 72.8412 15.004C73.753 12.3113 75.4245 10.6581 78.5778 11.372C83.352 17.1707 83.5673 17.2959 79.8188 24.3971C78.2232 27.4154 77.78 29.9202 78.0966 33.4395C78.7551 40.6032 71.9674 43.3836 67.4465 47.241C65.7875 48.6562 64.7111 46.9905 64.5972 45.2246C64.3565 41.4549 64.3186 37.6726 65.6356 34.216C60.95 31.6986 60.8614 40.741 56.923 37.1716C54.5422 35.0175 53.8078 31.2728 56.7331 28.2169C61.3553 31.899 64.8884 31.8364 66.7373 25.4616C67.3578 23.3075 68.3203 21.2535 69.1181 19.1495H69.1054Z" fill="#BEBD89"/>
<path d="M69.1054 19.1495C68.3076 21.2535 67.3578 23.3075 66.7246 25.4616C64.8757 31.8364 61.3426 31.899 56.7204 28.2169C56.7077 27.7285 56.6571 27.24 56.5937 26.7516C57.2649 21.0156 58.1767 15.4924 66.0535 15.8932C66.1294 18.014 66.6613 18.9992 67.6491 18.8489C68.1556 18.8739 68.6369 18.9741 69.1181 19.1495H69.1054Z" fill="#D2CEA3"/>
<path d="M117.227 52.9896C114.302 51.7121 109.021 51.925 112.985 46.3017C113.897 45.0117 112.947 43.4212 111.997 43.0329C107.489 41.1919 104.5 39.0753 108.844 34.2285C103.677 29.7574 112.098 26.3884 109.857 22.1553C114.061 23.6707 115.391 26.7892 114.682 30.8971C114.327 32.951 114.277 34.8296 115.834 36.4327C116.1 38.136 117.113 39.0127 118.848 39.1003C118.481 43.7468 120.165 48.6312 117.227 52.9896Z" fill="#868D73"/>
<path d="M106.856 18.8113C101.879 18.0474 97.8012 16.0059 95.7497 11.0965C100.574 12.0859 104.867 13.8267 106.856 18.8113Z" fill="#868D73"/>
<path d="M3.57132 41.242C3.71062 45.6755 1.53248 50.0339 3.47001 54.5926C4.15385 56.2082 2.52024 57.2603 0.759999 57.4607C0.405418 51.8373 -1.87403 45.8884 3.55866 41.242H3.57132Z" fill="#B4AB68"/>
<path d="M14.4492 20.8778C14.4112 22.0425 14.158 23.0946 12.8916 23.5705C12.7396 22.293 13.2209 21.3788 14.4492 20.8778Z" fill="#B4AB68"/>
</g>
<defs>
<clipPath id="clip0_101_122">
<rect width="119" height="117" fill="white"/>
</clipPath>
</defs>
</svg>
