<svg width="154" height="122" viewBox="0 0 154 122" fill="none" xmlns="http://www.w3.org/2000/svg">
<g clip-path="url(#clip0_101_107)">
<path d="M89.0567 92.494C87.9945 91.9369 86.9324 91.3797 85.8702 90.8225C84.631 88.1505 82.4561 87.454 79.7249 87.8972C77.6511 87.4287 75.5774 86.9728 73.5037 86.5042C73.529 86.1496 73.5669 85.7951 73.6175 85.4532C75.9062 80.3498 83.67 80.1598 84.277 73.5495C85.9714 71.5486 88.8797 70.4596 89.0061 67.2684C88.4624 62.7475 89.9039 59.1764 94.1272 57.1249C97.7183 55.3774 100.538 52.5787 102.764 49.5395C107.151 43.575 111.046 37.2306 114.877 30.8862C116.116 28.822 116.041 26.2007 113.651 24.7064C111.476 23.3514 109.857 25.0483 109.731 26.8465C109.187 34.6473 106.987 37.066 100.917 30.215C100.412 29.6452 98.8943 30.1137 97.9333 29.8098C93.457 28.4042 89.9798 26.1374 90.5993 20.6161C93.4191 16.1839 94.5698 11.4351 93.3938 6.21773C96.3653 4.48283 99.9564 10.5993 102.65 5.48324C104.357 5.86315 106.076 6.24305 107.784 6.62296C110.047 8.9657 112.209 11.4351 114.612 13.6259C117.659 16.3992 115.307 22.0724 120.213 23.744C120.808 24.7571 121.402 25.7701 121.984 26.7832C121.895 27.8343 121.819 28.898 121.731 29.9618C118.14 33.4062 114.7 36.9267 115.775 42.5873L115.712 42.4986C113.79 42.372 112.626 43.1065 112.626 45.1833C110.439 46.8169 108.239 48.4378 106.051 50.0714L107.67 52.0089C115.977 49.7421 121.427 41.9794 129.684 39.5987C136.828 43.689 145.806 45.4872 148.778 54.8328C147.475 54.0224 146.173 53.2499 144.896 52.4141C142.658 50.9451 140.862 48.0705 137.562 50.0081C134.35 51.8949 131.922 54.0604 132.63 58.5306C133.149 61.8104 132.656 65.2549 132.605 68.636C131.075 68.75 129.558 68.864 128.028 68.978C125.79 66.5466 125.296 68.3701 124.829 70.2823C122.198 71.2447 119.138 71.1561 117.09 73.5115V73.5495L112.348 73.5875C109.389 73.5875 108.074 75.335 107.657 78.0323C103.598 78.7162 99.5391 79.4127 95.4928 80.0965C93.4317 80.4384 91.1178 76.8673 89.436 80.1218C88.2221 82.4519 90.0177 84.5161 91.4845 86.3776C94.5698 90.3033 98.9575 90.2273 103.282 90.3792C104.256 90.5185 105.242 90.6578 106.216 90.7971C107.303 93.8364 109.769 95.3433 112.31 97.1415C115.016 99.0537 119.379 98.8891 120.34 103.119C115.863 101.434 111.45 102.891 107.012 103.321C101.638 98.6738 95.5181 95.28 89.0314 92.494H89.0567Z" fill="#B4AB68"/>
<path d="M90.5993 20.6161C89.9798 26.1247 93.457 28.4042 97.9333 29.8098C98.8943 30.1137 100.424 29.6452 100.917 30.215C106.987 37.066 109.187 34.6473 109.731 26.8465C109.857 25.0483 111.476 23.3514 113.651 24.7064C116.04 26.188 116.116 28.822 114.877 30.8862C111.046 37.2306 107.151 43.575 102.764 49.5395C100.525 52.5787 97.7183 55.39 94.1272 57.1249C89.9039 59.1764 88.4497 62.7475 89.0061 67.2684C88.0704 67.2684 87.122 67.243 86.1863 67.243C84.6943 62.1523 82.5067 65.926 80.6985 66.8885C77.5626 68.5601 74.8061 69.7757 75.059 64.2798C75.021 63.7099 74.9958 63.1527 74.9578 62.5829C75.021 61.5698 75.0969 60.5694 75.1601 59.5563C80.433 54.7695 80.5721 40.2318 75.3877 34.4066C75.3877 33.4569 75.4004 32.4945 75.413 31.5447C78.7512 31.0002 79.0168 28.0622 78.0558 26.2387C75.7418 21.8571 74.8567 18.0328 77.5879 13.3853C78.7259 11.4604 76.7534 8.94038 74.9578 7.42076C73.3266 6.04044 71.7081 6.52165 70.2793 8.1679C68.8251 9.85215 67.2066 9.80149 65.7272 8.0666C66.9158 3.77367 70.2287 3.07718 73.9968 3.15316C77.9673 3.24181 81.9503 3.33045 85.9208 3.4191C87.6531 4.5968 90.4223 3.62171 91.535 6.11642C88.0451 6.78758 82.5447 5.71119 85.1874 12.2835C86.4013 15.2974 88.7659 17.8428 90.612 20.6034L90.5993 20.6161Z" fill="#CEA246"/>
<path d="M51.3248 80.1851C48.72 68.7753 40.3998 62.7982 30.1702 59.8856C20.8005 57.2136 12.2527 53.5158 4.69113 47.3867C-0.467911 43.1951 -2.35197 39.0668 4.1727 34.4953C6.36024 34.5459 8.20636 34.1787 8.05463 31.3421L8.02934 31.3547C13.0493 29.0753 19.8774 28.6194 18.9417 20.3882V20.4388C25.6814 21.7052 32.4336 22.7562 39.325 21.9964L39.3756 22.0977C40.0078 27.9736 38.7434 33.115 34.3809 37.4585C32.6107 39.2188 31.2324 41.5742 30.284 43.9043C28.0839 49.3369 31.4853 53.9591 37.0995 52.6421C40.463 51.8569 42.3977 52.6041 44.5726 54.7442C45.7106 55.8712 46.7727 58.2013 48.8971 56.6184C50.7938 55.2001 49.2005 53.3639 48.8971 51.6796C48.2016 47.602 45.9129 42.6506 53.3227 42.448C53.8411 44.6894 54.5998 46.8928 54.8274 49.1596C55.5861 56.707 53.3101 59.1004 46.0141 60.2908C42.7391 60.8227 44.4082 63.1781 45.6094 64.8117C48.1637 68.2435 52.4882 70.3329 53.3606 75.0564C51.4387 76.1455 51.9065 77.969 51.9444 79.6533C51.7421 79.8306 51.5272 80.0205 51.3248 80.1851Z" fill="#BEBD89"/>
<path d="M120.378 103.119C119.417 98.9018 115.042 99.0537 112.336 97.1542C109.794 95.356 107.341 93.849 106.241 90.8098C107.973 88.505 109.288 90.3159 110.768 91.2024C116.736 94.8115 123.096 96.1791 129.899 94.9887C130.253 91.6076 123.956 87.5933 129.204 86.6309C139.534 84.744 142.076 75.4617 148.183 69.6871C148.689 69.2186 152.685 68.6614 150.156 66.1667C148.651 64.685 146.691 64.2038 144.466 65.4195C140.811 67.433 136.702 68.0155 132.63 68.636C132.681 65.2676 133.174 61.8104 132.656 58.5306C131.948 54.0604 134.375 51.8949 137.587 50.0081C140.887 48.0705 142.683 50.9325 144.921 52.4141C146.198 53.2499 147.513 54.035 148.803 54.8328C154.999 64.6344 156.554 72.2958 148.462 78.7668C142.582 83.465 138.864 89.0242 140.546 96.9896C139.332 101.954 133.781 101.523 131.075 104.626C127.358 105.208 123.842 104.398 120.378 103.119Z" fill="#BEBD89"/>
<path d="M65.7145 8.0666C67.194 9.80149 68.8125 9.85215 70.2666 8.1679C71.6955 6.52165 73.314 6.04044 74.9452 7.42076C76.7407 8.94038 78.7133 11.4477 77.5753 13.3853C74.844 18.0328 75.7418 21.8571 78.0431 26.2387C79.0041 28.0622 78.7386 31.0002 75.4004 31.5447C71.3414 29.7718 76.3108 22.541 70.6839 22.6296C65.7145 22.7056 68.2561 29.4046 65.0317 31.7346C64.5006 32.1145 64.4248 33.115 64.1213 33.8241C62.9327 36.5974 60.8463 35.8376 60.3532 33.9508C58.5576 27.1758 54.3975 31.57 51.1605 31.6333C50.2374 29.5059 49.6557 27.1251 48.328 25.3016C43.776 19.0712 46.6969 11.3338 43.9024 4.79942C44.3576 3.35578 45.5715 3.2798 46.7854 3.21648C49.0741 5.54656 51.5651 7.57272 54.8527 8.31986C55.3964 12.0049 53.3227 16.2472 56.8 19.6157C60.3658 15.842 58.153 12.0556 57.9254 8.40851C60.5176 8.29454 63.1097 8.18057 65.7019 8.0666H65.7145Z" fill="#E8C350"/>
<path d="M75.059 64.2798C74.8187 69.7884 77.5626 68.5601 80.6985 66.8885C82.5067 65.926 84.6943 62.1523 86.1863 67.243C83.4424 68.8386 79.6743 69.4592 79.8766 73.8661C79.3582 76.6267 77.4994 76.9433 75.236 76.3354C73.529 75.8795 71.6196 71.9792 70.3046 76.7153C69.4447 79.7926 65.5628 82.9331 70.5322 85.8584C66.6123 86.9601 62.0223 86.3776 59.291 90.4299L59.2152 90.4046C56.231 91.3543 53.6262 92.8739 51.6663 95.3813C51.2237 95.6472 50.7685 95.9132 50.3259 96.1665C49.8707 95.9385 49.4534 95.9892 49.0488 96.2931C47.4682 95.3433 47.1774 93.7097 46.8107 92.1141C48.2775 88.4671 51.1099 85.4278 51.6283 81.3502C52.2226 81.3122 52.8169 81.2868 53.4112 81.2615C53.4239 81.8061 53.4365 82.3379 53.4492 82.8698C53.8664 83.4523 54.2711 84.0222 54.6883 84.6047C55.5103 85.8077 56.6988 86.0737 58.0518 85.9723C63.35 84.9213 65.4111 80.8183 67.194 76.3734C68.9136 72.1058 69.9252 67.4583 73.529 64.1658C74.0348 64.2291 74.5405 64.2798 75.0463 64.2925L75.059 64.2798Z" fill="#B4AB68"/>
<path d="M43.915 4.78675C46.7095 11.3211 43.7886 19.0585 48.3407 25.2889C49.6684 27.1125 50.25 29.4932 51.1731 31.6207C51.2363 33.5329 51.2996 35.445 51.3628 37.3699C48.4418 37.9271 46.9877 36.2808 45.2048 34.1534C42.1827 30.5443 41.6769 25.9221 39.3629 22.0977L39.3124 21.9964C38.1617 16.3105 31.5612 17.235 28.9184 13.3599C28.9816 12.9547 29.1966 12.6634 29.5759 12.4988C32.7877 12.7901 37.6559 16.7917 37.3145 9.05435C39.5147 7.63604 41.7022 6.20506 43.9024 4.78675H43.915Z" fill="#AE8433"/>
<path d="M46.8107 92.1141C47.1774 93.7097 47.4682 95.3433 49.0488 96.2931C48.9603 97.0529 48.8718 97.8127 48.7959 98.5852C47.228 101.207 44.2438 102.853 43.6874 106.158C41.6264 108.019 38.8319 109.932 44.0668 111.249C41.424 114.832 38.7813 118.416 36.1385 122C34.5074 120.518 34.8867 118.48 34.6465 116.618C38.3387 108.273 41.4367 99.6236 46.8233 92.1141H46.8107Z" fill="#D2CEA3"/>
<path d="M129.709 39.5987C121.452 41.9667 116.003 49.7421 107.695 52.0089L106.076 50.0714C108.264 48.4378 110.464 46.8169 112.652 45.1833C113.676 44.2842 114.713 43.3977 115.737 42.4986L115.8 42.5873C119.568 41.1689 120.896 37.6865 122.628 34.5459C125.473 35.559 128.521 36.2808 129.709 39.6113V39.5987Z" fill="#F2EEDA"/>
<path d="M28.9184 13.3599C31.5612 17.235 38.1743 16.3232 39.3124 21.9964C32.421 22.7562 25.6687 21.7052 18.9291 20.4388C21.5465 17.083 25.3652 15.4114 28.9058 13.3599L28.9184 13.3599Z" fill="#B4AB68"/>
<path d="M65.7145 8.0666C63.1224 8.18057 60.5302 8.29454 57.938 8.39585C56.9138 8.35785 55.8896 8.33253 54.8654 8.3072C51.5777 7.56006 49.0994 5.5339 46.798 3.20382C55.0297 6.21773 62.4396 3.74835 69.862 0.151917C71.4173 -0.595228 72.9347 1.63354 73.9842 3.15316C70.216 3.07718 66.9031 3.77367 65.7145 8.0666Z" fill="#B4AB68"/>
<path d="M137.537 108.323C136.904 114.668 133.705 116.77 127.535 114.82C121.769 112.996 114.473 115.086 110.844 108.019C111.122 107.703 111.4 107.386 111.678 107.057C119.151 109.159 126.03 116.225 134.54 109.83C135.539 109.324 136.538 108.83 137.537 108.323Z" fill="#F2EEDA"/>
<path d="M89.0567 92.494C95.5434 95.28 101.663 98.6738 107.037 103.321C107.872 104.271 108.694 105.234 109.528 106.196L109.149 106.639C101.714 105.955 97.7689 98.028 90.1062 97.4708C88.6521 97.3695 89.2716 94.2543 89.0567 92.494Z" fill="#F2EEDA"/>
<path d="M18.9417 20.3882C19.8774 28.6068 13.0493 29.0753 8.02934 31.3547C8.30752 24.3518 15.1357 23.8833 18.9417 20.3882Z" fill="#B4AB68"/>
<path d="M137.537 108.323C136.538 108.83 135.539 109.324 134.54 109.83C133.389 108.095 132.226 106.361 131.075 104.626C133.781 101.523 139.332 101.954 140.546 96.9896C141.886 101.396 138.814 104.626 137.537 108.323Z" fill="#B4AB68"/>
<path d="M91.5224 6.11642C90.4097 3.62171 87.6531 4.60946 85.9081 3.4191C91.6615 2.7606 97.2757 3.12784 102.65 5.48324C99.9438 10.5993 96.3527 4.48283 93.3938 6.21773C92.7742 6.17974 92.142 6.15441 91.5098 6.11642H91.5224Z" fill="#F2EEDA"/>
<path d="M122.628 34.5333C120.896 37.6738 119.568 41.1689 115.8 42.5746C114.713 36.914 118.152 33.3936 121.756 29.9491C121.971 30.443 122.198 30.9242 122.413 31.4181C122.489 32.4565 122.565 33.4949 122.628 34.5333Z" fill="#868D73"/>
<path d="M59.291 90.4299C62.0096 86.3776 66.6123 86.9601 70.5195 85.8584C71.5437 85.7191 72.568 85.5924 73.6048 85.4531C73.5543 85.8077 73.5163 86.1496 73.491 86.5042C69.1665 89.3155 64.6903 91.557 59.2784 90.4299H59.291Z" fill="#F2EEDA"/>
<path d="M37.3271 9.05435C37.6686 16.7917 32.8003 12.7901 29.5886 12.4988C31.1186 8.99103 34.3809 9.3836 37.3271 9.05435Z" fill="#B4AB68"/>
<path d="M59.2152 90.4046C56.231 91.3543 53.6262 92.8739 51.6663 95.3813C55.1309 95.166 58.937 95.4573 59.2152 90.4046Z" fill="#F2EEDA"/>
<path d="M79.7249 87.8972C82.4435 87.454 84.6184 88.1505 85.8702 90.8225C83.5057 90.5312 80.433 91.7089 79.7249 87.8972Z" fill="#F2EEDA"/>
<path d="M8.05463 31.3294C8.20636 34.166 6.36024 34.5333 4.1727 34.4826C5.08312 32.963 5.20957 30.4683 8.05463 31.3294Z" fill="#B4AB68"/>
<path d="M122.401 31.4181C122.186 30.9242 121.958 30.443 121.743 29.9491C121.832 28.898 121.908 27.8343 121.996 26.7832C123.817 28.1762 123.728 29.7465 122.401 31.4181Z" fill="#F2EEDA"/>
<path d="M48.7959 98.5852C48.8844 97.8254 48.9603 97.0656 49.0488 96.2931C49.4534 95.9892 49.8707 95.9512 50.3259 96.1665C49.8201 96.9643 49.3017 97.7747 48.7959 98.5725L48.7959 98.5852Z" fill="#F2EEDA"/>
<path d="M53.4112 81.2489C52.8169 81.2869 52.2226 81.3122 51.6283 81.3502C51.3501 81.0083 51.249 80.6157 51.3248 80.1851C51.5398 80.0079 51.7421 79.8306 51.9444 79.6533C52.4249 79.8432 52.9181 79.9572 53.4239 80.0078C53.4618 80.4257 53.4618 80.831 53.4239 81.2489H53.4112Z" fill="#BEBD89"/>
<path d="M110.831 108.019C110.275 107.551 109.706 107.095 109.149 106.626L109.528 106.183C110.237 106.475 110.957 106.766 111.665 107.044C111.387 107.374 111.109 107.69 110.831 108.007V108.019Z" fill="#F2EEDA"/>
<path d="M132.63 68.6234C136.702 68.0029 140.812 67.4203 144.466 65.4069C146.679 64.1912 148.651 64.6597 150.156 66.154C152.685 68.6487 148.689 69.2059 148.183 69.6744C142.076 75.449 139.534 84.7313 129.204 86.6182C123.956 87.5806 130.266 91.5949 129.899 94.9761C123.109 96.1791 116.749 94.7988 110.768 91.1897C109.276 90.2906 107.973 88.4797 106.241 90.7971C105.267 90.6578 104.281 90.5185 103.307 90.3919C103.408 84.9086 96.6562 84.6427 95.5181 80.0965C99.5771 79.4127 103.636 78.7162 107.682 78.0323C111.223 78.8555 114.51 75.7149 118.241 77.5638C119.619 78.2476 120.618 76.4241 120.618 75.2211C120.605 72.739 118.317 74.056 117.115 73.4988C119.164 71.1434 122.224 71.2321 124.854 70.2696C126.169 70.4343 127.32 70.2316 128.053 68.9653C129.583 68.8513 131.1 68.7373 132.63 68.6234Z" fill="#D2CEA3"/>
<path d="M111.665 107.057C110.957 106.766 110.237 106.475 109.528 106.196C108.707 105.234 107.872 104.284 107.037 103.321C111.476 102.891 115.901 101.434 120.365 103.119C123.817 104.398 127.345 105.208 131.062 104.626C132.213 106.361 133.376 108.095 134.527 109.83C126.017 116.225 119.138 109.159 111.665 107.057Z" fill="#AE8433"/>
<path d="M73.6048 85.4531C72.5806 85.5924 71.5437 85.7318 70.5195 85.8584C65.5375 82.9331 69.4321 79.7799 70.2919 76.7027C71.607 71.9792 73.5163 75.8669 75.2234 76.3228C77.4868 76.9306 79.3455 76.614 79.864 73.8534C81.3308 73.7521 82.7975 73.6381 84.2643 73.5368C83.6447 80.1471 75.8935 80.3371 73.6048 85.4405V85.4531Z" fill="#CEA246"/>
<path d="M91.5224 6.11642C92.1546 6.15441 92.7869 6.1924 93.4065 6.21773C94.5824 11.4224 93.4191 16.1839 90.5993 20.6161C88.7532 17.8555 86.3886 15.3101 85.1748 12.2962C82.5194 5.72385 88.0198 6.80025 91.5224 6.12908L91.5224 6.11642Z" fill="#E8C350"/>
<path d="M95.5308 80.0965C96.6688 84.63 103.421 84.9086 103.32 90.3919C98.9828 90.2399 94.5951 90.3033 91.5224 86.3776C90.0556 84.5034 88.2601 82.4519 89.474 80.1218C91.1557 76.8673 93.4823 80.4384 95.5308 80.0965Z" fill="#BEBD89"/>
<path d="M117.128 73.4988C118.329 74.056 120.618 72.739 120.631 75.2211C120.631 76.4241 119.632 78.2476 118.253 77.5638C114.523 75.7023 111.236 78.8428 107.695 78.0323C108.1 75.3224 109.427 73.5875 112.386 73.5875C113.979 75.563 115.573 75.7276 117.128 73.5495V73.4988Z" fill="#BEBD89"/>
<path d="M84.277 73.5495C82.8102 73.6508 81.3434 73.7521 79.8766 73.8661C79.6743 69.4592 83.4424 68.8386 86.1863 67.243C87.1347 67.243 88.0704 67.2684 89.0061 67.2684C88.8797 70.4596 85.9714 71.5486 84.277 73.5495Z" fill="#F0CB72"/>
<path d="M128.053 68.9653C127.332 70.2316 126.169 70.4469 124.854 70.2696C125.322 68.3574 125.815 66.5212 128.053 68.9653Z" fill="#BEBD89"/>
<path d="M117.128 73.5495C115.56 75.7276 113.979 75.5756 112.386 73.5875C113.967 73.5748 115.547 73.5621 117.128 73.5495Z" fill="#D2CEA3"/>
<path d="M115.737 42.4859C114.713 43.3851 113.676 44.2842 112.652 45.1706C112.652 43.0938 113.815 42.3593 115.737 42.4859Z" fill="#868D73"/>
<path d="M51.3628 37.3699C51.2996 35.4577 51.2363 33.5455 51.1731 31.6333C54.4102 31.57 58.5703 27.1758 60.3658 33.9508C60.8716 35.8376 62.9453 36.5974 64.1339 33.8241C64.4374 33.115 64.5133 32.1145 65.0444 31.7346C68.2688 29.4046 65.7272 22.7056 70.6965 22.6296C76.3108 22.541 71.3541 29.7718 75.413 31.5447C75.413 32.4945 75.4004 33.4569 75.3877 34.4066C72.4795 42.7645 74.3635 51.1604 75.1601 59.5563C75.0969 60.5694 75.021 61.5698 74.9578 62.5829C74.49 63.1021 74.0095 63.634 73.529 64.1532C69.9252 67.4457 68.9136 72.0932 67.194 76.3608C65.3984 80.8056 63.35 84.9086 58.0518 85.9723C58.0518 84.1361 57.9127 82.1986 59.9865 81.2995C65.9295 78.7415 64.9558 73.7394 63.4511 69.4212C61.3395 63.3807 60.7072 57.3149 61.0866 51.0844C61.39 46.2343 59.5439 41.9667 58.0898 37.5598C56.3574 32.3045 54.9918 37.1673 53.4618 37.6738C52.7663 37.5725 52.0709 37.4712 51.3628 37.3572L51.3628 37.3699Z" fill="#F0CB72"/>
<path d="M75.1601 59.5563C74.3509 51.1604 72.4795 42.7645 75.3877 34.4066C80.5721 40.2318 80.4456 54.7695 75.1601 59.5563Z" fill="#E8C350"/>
<path d="M73.529 64.1532C74.0095 63.634 74.4773 63.1021 74.9578 62.5829C74.9958 63.1527 75.021 63.7099 75.059 64.2798C74.5532 64.2798 74.0474 64.2291 73.5416 64.1532H73.529Z" fill="#E8C350"/>
<path d="M53.4618 37.6738C54.9918 37.1673 56.3574 32.3045 58.0898 37.5598C59.5439 41.9667 61.3774 46.2343 61.0866 51.0844C60.7072 57.3149 61.3395 63.3807 63.4511 69.4212C64.9558 73.7268 65.9295 78.7288 59.9865 81.2995C57.9127 82.1986 58.0392 84.1361 58.0518 85.9723C56.7115 86.0737 55.5103 85.8077 54.6883 84.6047C54.2711 84.0222 53.8664 83.4523 53.4492 82.8698C53.4365 82.3379 53.4239 81.7934 53.4112 81.2615C53.4618 80.8436 53.4618 80.4384 53.4112 80.0205C53.3986 78.3616 53.3733 76.7153 53.3606 75.0564C52.4882 70.3456 48.1637 68.2561 45.6094 64.8117C44.3955 63.1908 42.7391 60.8353 46.0141 60.2908C53.3227 59.0878 55.5861 56.707 54.8274 49.1596C54.5998 46.8928 53.8411 44.6767 53.3227 42.448C53.3606 40.865 53.4112 39.2694 53.4492 37.6865L53.4618 37.6738Z" fill="#D2CEA3"/>
<path d="M53.4618 37.6738C53.4239 39.2568 53.3733 40.8524 53.3354 42.4353C45.9129 42.6379 48.2142 47.602 48.9097 51.667C49.2005 53.3639 50.7938 55.2001 48.9097 56.6057C46.7854 58.1887 45.7232 55.8586 44.5852 54.7315C42.423 52.6041 40.4883 51.8443 37.1122 52.6294C31.4979 53.9464 28.0965 49.3242 30.2967 43.8916C31.245 41.5615 32.6233 39.1934 34.3936 37.4459C38.7686 33.1023 40.0205 27.9483 39.3882 22.0851C41.6896 25.9094 42.208 30.5316 45.2301 34.1407C47.013 36.2808 48.4671 37.9144 51.3881 37.3572C52.0835 37.4585 52.779 37.5598 53.4871 37.6612L53.4618 37.6738Z" fill="#B4AB68"/>
<path d="M53.3733 75.0438C53.3859 76.7027 53.4112 78.3489 53.4239 80.0078C52.9181 79.9572 52.4249 79.8306 51.9444 79.6533C51.9192 77.9564 51.4386 76.1328 53.3733 75.0564V75.0438Z" fill="#B4AB68"/>
<path d="M54.8654 8.3072C55.8896 8.33253 56.9138 8.35785 57.938 8.39585C58.1656 12.0429 60.3785 15.8293 56.8127 19.603C53.3354 16.2345 55.3964 11.9923 54.8654 8.3072Z" fill="#F0CB72"/>
</g>
<defs>
<clipPath id="clip0_101_107">
<rect width="154" height="122" fill="white"/>
</clipPath>
</defs>
</svg>
