<svg width="113" height="104" viewBox="0 0 113 104" fill="none" xmlns="http://www.w3.org/2000/svg">
<g clip-path="url(#clip0_101_112)">
<path d="M57.9122 101.476C49.5778 107.364 43.9164 101.753 38.0786 96.8941L38.1542 96.3292C39.6168 96.4798 42.2647 96.869 42.0125 95.3876C41.3064 91.3326 38.6838 87.6792 39.9194 83.122C40.0581 82.6073 36.8807 81.038 36.5529 84.277C35.5442 84.3021 34.5481 84.3398 33.5394 84.3649C33.5394 80.7744 33.5394 77.1713 33.5394 73.5807C35.9603 72.953 38.9612 73.0033 40.6886 71.5595C44.4838 68.3582 52.5282 67.743 49.2247 59.4948C50.2082 59.1307 51.1917 58.7666 52.1752 58.39C54.7095 60.7502 57.2817 58.9299 59.1604 57.7749C62.7287 55.5653 65.1496 53.5064 67.3562 59.432C68.5036 62.5204 71.9836 64.2529 75.4258 61.0264C76.901 61.152 78.3763 61.2901 79.8515 61.4156C81.0745 61.8676 82.2976 62.307 83.5206 62.7589C86.4837 66.2365 89.4594 69.7266 92.4225 73.2167C92.4225 75.2003 92.4224 77.1838 92.4098 79.1674C90.4807 78.4267 90.2789 74.6353 87.4546 75.8907C85.3363 76.8198 86.4963 79.3683 86.0676 81.1761C81.6419 80.925 79.511 81.9168 80.5702 87.3277C81.5032 92.0984 72.1727 97.9236 69.3357 94.5339C61.43 85.0931 62.754 96.2664 59.9926 98.1621C58.7822 98.8024 58.3535 99.882 58.3283 101.175L57.8996 101.451L57.9374 101.489L57.9122 101.476Z" fill="#F0CB72"/>
<path d="M33.5394 84.3649C34.5481 84.3398 35.5442 84.3021 36.5529 84.277C36.3007 88.3948 36.7294 92.4373 38.1542 96.3292L38.0786 96.8941C32.7072 92.362 25.3815 90.7425 20.6784 85.1307C16.2906 79.883 16.6058 76.0539 22.7715 73.1037C30.8537 69.237 38.1542 64.1399 45.7699 59.5199C46.9173 61.3026 48.0521 59.5827 49.1995 59.5074C52.4904 67.7555 44.4586 68.3707 40.6634 71.5721C38.936 73.0284 35.9351 72.9656 33.5142 73.5933C32.5307 72.4383 30.8789 71.9863 30.7907 73.6812C30.5133 78.8284 26.5793 77.8994 22.7841 77.9873C25.1419 80.3099 25.785 82.3186 25.848 84.7039C25.8985 87.1645 27.9789 88.1689 30.0089 88.3697C32.6316 88.6208 33.2872 86.5494 33.5394 84.39L33.5394 84.3649Z" fill="#CEA246"/>
<path d="M50.5613 45.5344C60.9887 34.4238 53.9026 23.6271 49.9182 12.8178C48.9347 10.1438 48.0017 7.53246 48.2034 4.61985C48.3673 2.32241 48.9978 0.439265 51.7717 0.740569C63.2457 1.97089 74.7449 -1.55687 86.2189 0.891221C85.702 1.38084 85.1976 1.8579 84.6807 2.34752C82.7389 2.42285 80.7845 2.48562 78.8302 2.56095C72.1853 5.71208 65.2253 3.70339 58.4039 3.84149C56.0965 3.8917 52.0743 4.39388 52.9948 6.44023C54.9239 10.7338 51.7087 15.6174 54.5709 18.9443C60.3205 25.6232 59.3496 33.545 60.0178 41.2408C59.8665 44.2664 60.2574 47.7063 55.4535 47.1916C53.9026 46.4132 52.503 45.1829 50.5613 45.5469V45.5344Z" fill="#CEA246"/>
<path d="M108.045 28.4982C108.511 29.3393 108.978 30.1679 109.444 31.009C109.722 33.3567 108.486 36.081 111.184 37.8135C116.152 43.0612 109.129 48.0829 110.882 53.2679C110.403 52.4393 109.936 51.6107 109.457 50.7821C109.003 50.0037 108.49 50.3385 107.919 51.7864C106.923 50.8072 105.939 49.828 104.943 48.8487C109.003 40.2239 108.259 37.8009 100.189 33.3065C98.2477 33.2186 97.239 32.2519 97.3021 30.2683C102.03 29.038 99.5086 25.096 100.278 22.3842C103.543 23.5643 103.606 28.7869 108.045 28.4982Z" fill="#CEA246"/>
<path d="M107.919 51.7864C108.49 50.3469 109.007 50.0121 109.47 50.7821C109.949 51.6107 110.428 52.4393 110.894 53.2679C110.453 55.6406 110.44 58.2017 109.47 60.3359C107.679 64.278 106.103 69.1616 99.8238 66.0105C98.2729 65.2321 97.1003 66.8893 95.8016 67.5672C91.0985 67.517 88.6146 61.8173 83.5206 62.7589C82.2976 62.307 81.0745 61.8676 79.8515 61.4156C81.0115 56.0675 84.1006 58.7918 86.7737 59.7584C97.9577 63.8009 103.796 61.6039 107.931 51.7739L107.919 51.7864Z" fill="#AE8433"/>
<path d="M38.2929 40.588C25.1041 37.0853 13.0501 32.5407 0 35.0013C3.16481 28.4982 31.8246 32.1515 38.2929 40.588Z" fill="#9EACA3"/>
<path d="M58.3031 101.163C58.3283 99.8695 58.757 98.7898 59.9674 98.1496C64.9983 97.7604 69.6257 100.937 74.9341 99.3046C83.2306 96.7686 85.6137 90.0269 87.8581 82.9588C89.1694 83.0593 90.4807 83.1597 91.7794 83.2727C90.5185 85.7961 89.0559 88.2316 88.0346 90.8429C84.3906 100.083 78.9058 103.473 68.9575 101.74C65.364 101.112 61.8713 100.836 58.2904 101.163H58.3031Z" fill="#B4AB68"/>
<path d="M108.045 28.4982C103.606 28.7869 103.543 23.5643 100.278 22.3842C99.6599 21.0911 98.5882 20.6894 97.239 20.8777L97.1255 20.7898C97.3651 18.643 96.142 17.8144 94.2255 17.6136C94.1499 15.0902 94.0868 12.5793 94.0112 10.0559L94.4777 9.66669C99.0042 15.9439 103.531 22.221 108.045 28.4856L108.045 28.4982Z" fill="#B4AB68"/>
<path d="M50.5613 45.5344C52.503 45.1703 53.9026 46.4006 55.4409 47.179C55.7183 51.3219 54.7726 55.1008 52.15 58.4026C51.1665 58.7666 50.183 59.1307 49.1995 59.5074C48.0647 59.5827 46.9299 61.3026 45.7699 59.5199C49.3634 55.5402 53.9908 51.912 50.5486 45.5469L50.5613 45.5344Z" fill="#AE8433"/>
<path d="M83.508 62.7715C88.602 61.8299 91.0859 67.5296 95.789 67.5798C95.1081 69.601 94.4399 71.6223 93.759 73.631C93.2798 73.6059 92.8259 73.4678 92.3972 73.2167C89.4342 69.7391 86.4585 66.249 83.4954 62.7715H83.508Z" fill="#D2CEA3"/>
<path d="M84.6807 2.33497C85.1976 1.84535 85.702 1.36829 86.2189 0.878667C90.405 2.47307 93.2042 5.36056 94.4777 9.66669L94.0112 10.0559C92.019 9.42816 90.0268 8.80045 88.0472 8.17273C88.0976 5.91295 85.7524 5.4861 84.8193 3.96703L84.6807 2.32241V2.33497Z" fill="#B4AB68"/>
<path d="M91.792 83.2852C90.4807 83.1848 89.1694 83.0844 87.8707 82.9714C87.2654 82.3688 86.6602 81.7787 86.055 81.1761C86.4837 79.3809 85.3237 76.8323 87.442 75.8907C90.2789 74.6479 90.4681 78.4267 92.3972 79.18C92.4477 80.3475 92.4855 81.5151 92.5359 82.6826C92.4098 83.0216 92.1577 83.2225 91.792 83.2727V83.2852Z" fill="#CEA246"/>
<path d="M92.5233 82.6826C92.4729 81.5151 92.4351 80.3475 92.3846 79.18C92.3846 77.1964 92.3846 75.2128 92.3972 73.2167C92.8133 73.4552 93.2672 73.5933 93.759 73.631C94.3516 76.7821 96.5329 80.1592 92.5233 82.6826Z" fill="#B4AB68"/>
<path d="M111.184 37.8135C108.486 36.081 109.722 33.3441 109.444 31.009C110.024 33.2814 110.604 35.5537 111.184 37.8135Z" fill="#B4AB68"/>
<path d="M52.15 58.4026C54.7726 55.1133 55.7183 51.3219 55.4409 47.179C60.2448 47.6937 59.8539 44.2538 60.0052 41.2283C64.7714 30.7956 72.6645 21.8946 75.3628 10.4702C75.8293 8.51169 76.2832 7.11816 78.4519 6.86708L78.6536 7.05539C78.4771 18.7184 81.0115 31.0718 70.004 40.2114C79.6497 44.4045 88.5515 42.7222 97.4281 38.1022C99.786 36.8719 100.278 35.4784 100.177 33.2939C108.246 37.7884 108.99 40.2114 104.93 48.8362C95.8268 46.589 87.7068 52.7782 78.6915 51.8994C75.8923 51.6232 71.7062 50.1795 70.294 53.2804C68.8314 56.4943 74.2406 55.5653 75.0349 58.0134C75.3375 58.955 75.2997 60.0221 75.4132 61.0264C71.9584 64.2403 68.491 62.5204 67.3436 59.432C65.137 53.5064 62.7161 55.5653 59.1478 57.7748C57.2691 58.9298 54.6969 60.7628 52.1626 58.39L52.15 58.4026Z" fill="#E8C350"/>
<path d="M75.4132 61.039C75.2997 60.0346 75.3501 58.9675 75.0349 58.0259C74.2406 55.5779 68.8314 56.5069 70.294 53.293C71.7062 50.192 75.8923 51.6358 78.6915 51.912C87.7194 52.7908 95.8268 46.6141 104.93 48.8487C105.926 49.828 106.91 50.8072 107.906 51.7864C103.77 61.6039 97.9325 63.8135 86.7485 59.771C84.0754 58.8043 80.9737 56.08 79.8263 61.4282C78.351 61.3026 76.8758 61.1771 75.4006 61.039H75.4132Z" fill="#DDB22E"/>
<path d="M86.0424 81.1761C86.6476 81.7787 87.2528 82.3688 87.8581 82.9714C85.6137 90.0269 83.2306 96.7811 74.9341 99.3171C69.6131 100.949 64.9983 97.7729 59.9674 98.1621C62.7287 96.2664 61.4048 85.0931 69.3105 94.5339C72.1475 97.9236 81.478 92.0984 80.545 87.3277C79.4858 81.9294 81.6293 80.925 86.0424 81.1761Z" fill="#E8C350"/>
<path d="M33.5394 84.3649C33.2872 86.5242 32.6442 88.5957 30.0089 88.3446C27.9789 88.1563 25.8985 87.1394 25.848 84.6788C25.7976 82.2934 25.1545 80.2848 22.7841 77.9622C26.5919 77.8743 30.5259 78.8033 30.7907 73.6561C30.8789 71.9738 32.5307 72.4132 33.5142 73.5682C33.5142 77.1587 33.5142 80.7618 33.5142 84.3524L33.5394 84.3649Z" fill="#E8C350"/>
<path d="M38.1542 96.3292C36.7168 92.4248 36.3007 88.3948 36.5529 84.277C36.8807 81.038 40.0581 82.6199 39.9194 83.122C38.6712 87.6793 41.3064 91.3326 42.0125 95.3876C42.2647 96.869 39.6294 96.4798 38.1542 96.3292Z" fill="#E8C350"/>
<path d="M78.4645 6.86708C76.2958 7.11816 75.8419 8.51169 75.3754 10.4702C72.6771 21.8946 64.784 30.7831 60.0178 41.2283C59.3622 33.5325 60.3205 25.6107 54.5709 18.9318C51.7087 15.6049 54.9365 10.7213 52.9948 6.42768C52.0743 4.38132 56.0965 3.87915 58.4039 3.82893C65.2379 3.69083 72.1979 5.69953 78.8302 2.54839C78.7041 3.99214 78.578 5.43589 78.4519 6.87963L78.4645 6.86708Z" fill="#DDB22E"/>
<path d="M78.4645 6.86708C78.5906 5.42333 78.7167 3.97958 78.8428 2.53584C80.7971 2.46051 82.7389 2.39774 84.6933 2.32241C84.7437 2.8748 84.7815 3.41464 84.832 3.95448C82.7767 4.98393 80.7341 6.01338 78.6789 7.04284L78.4771 6.85452L78.4645 6.86708Z" fill="#E8C350"/>
<path d="M78.6663 7.06795C80.7215 6.03849 82.7641 5.00904 84.8193 3.97958C85.7524 5.49866 88.0976 5.9255 88.0472 8.18528C86.1559 17.6261 88.5894 25.2592 97.3147 30.2683C97.2516 32.2519 98.2603 33.2186 100.202 33.3065C100.303 35.4909 99.8112 36.8845 97.4534 38.1148C88.5768 42.7348 79.6624 44.4045 70.0292 40.2239C81.0241 31.0844 78.4897 18.7309 78.6789 7.06795H78.6663Z" fill="#F0CB72"/>
<path d="M97.3021 30.2683C88.5768 25.2592 86.1559 17.6136 88.0346 8.18528C90.0268 8.813 92.019 9.44071 93.9986 10.0559C94.0742 12.5793 94.1372 15.0902 94.2129 17.6136C94.0112 19.7227 94.919 20.8526 97.1129 20.7898L97.2264 20.8777C97.819 22.2085 98.9664 22.4595 100.265 22.3842C99.496 25.096 102.018 29.038 97.2894 30.2683H97.3021Z" fill="#E8C350"/>
<path d="M97.1255 20.7898C94.9316 20.8526 94.0238 19.7227 94.2255 17.6136C96.1294 17.8144 97.3651 18.643 97.1255 20.7898Z" fill="#CEA246"/>
<path d="M100.278 22.3842C98.979 22.4595 97.8316 22.2085 97.239 20.8777C98.6008 20.6894 99.6599 21.0911 100.278 22.3842Z" fill="#CEA246"/>
</g>
<defs>
<clipPath id="clip0_101_112">
<rect width="113" height="104" fill="white"/>
</clipPath>
</defs>
</svg>
