<svg width="640" height="480" viewBox="0 0 640 480" fill="none" xmlns="http://www.w3.org/2000/svg">
  <rect width="640" height="480" rx="24" fill="#F3F4F6"/>
  <g transform="translate(40,40)">
    <rect x="0" y="0" width="400" height="280" rx="12" fill="#111827"/>
    <rect x="0" y="0" width="400" height="36" rx="12" fill="#1F2937"/>
    <circle cx="18" cy="18" r="6" fill="#EF4444"/>
    <circle cx="38" cy="18" r="6" fill="#F59E0B"/>
    <circle cx="58" cy="18" r="6" fill="#10B981"/>

    <g transform="translate(16,56)">
      <rect x="0" y="0" width="8" height="20" fill="#10B981">
        <animate attributeName="opacity" values="1;0;1" dur="1.4s" repeatCount="indefinite"/>
      </rect>
      <rect x="16" y="4" width="280" height="12" rx="6" fill="#374151"/>
      <rect x="16" y="28" width="220" height="12" rx="6" fill="#374151"/>
      <rect x="16" y="52" width="180" height="12" rx="6" fill="#374151"/>
    </g>

    <g transform="translate(16,160)">
      <rect x="0" y="0" width="8" height="20" fill="#60A5FA">
        <animate attributeName="opacity" values="1;0;1" dur="1.4s" begin="0.2s" repeatCount="indefinite"/>
      </rect>
      <rect x="16" y="4" width="260" height="12" rx="6" fill="#374151"/>
      <rect x="16" y="28" width="200" height="12" rx="6" fill="#374151"/>
    </g>
  </g>
  <g transform="translate(468,56)">
    <rect x="0" y="0" width="132" height="96" rx="16" fill="#FFFFFF" stroke="#E5E7EB"/>
    <circle cx="24" cy="28" r="8" fill="#E5E7EB"/>
    <rect x="40" y="22" width="72" height="12" rx="6" fill="#E5E7EB"/>
    <rect x="16" y="48" width="100" height="12" rx="6" fill="#F3F4F6"/>
    <rect x="16" y="68" width="84" height="12" rx="6" fill="#F3F4F6"/>
  </g>
</svg>

