<svg width="1156" height="150" viewBox="0 0 1156 150" fill="none" xmlns="http://www.w3.org/2000/svg">
<g clip-path="url(#clip0_362_2772)">
<path d="M553.47 93.2181C553.47 101.759 553.47 110.301 553.47 118.842C553.47 129.812 549.649 133.535 538.762 132.759C533.508 132.381 528.273 131.604 523.039 130.967C520.213 130.628 518.76 129.175 518.441 126.149C517.028 113.168 517.188 100.226 518.262 87.2451C518.84 80.3763 518.78 73.4676 519.317 66.5788C520.591 50.3922 523.138 34.4047 525.626 18.3972C526.044 15.7692 527.696 13.818 530.264 13.0614C545.867 8.46229 561.71 7.02879 577.552 11.2895C589.255 14.4352 599.624 29.9648 600.321 41.9704C601.037 54.0954 597.574 64.1897 588.22 71.7753C583.762 75.3988 583.184 79.2414 584.438 84.179C587.284 95.3285 592.041 105.582 598.868 114.82C604.5 122.426 612.74 124.437 623.348 121.171C627.289 119.957 631.17 118.503 634.911 116.811C637.598 115.597 639.23 115.935 640.424 118.683C642.335 123.103 645.698 127.085 643.987 132.48C643.668 133.495 644.046 134.77 644.285 135.885C645.718 142.395 643.987 145.64 637.399 147.711C627.726 150.737 617.696 150.12 607.844 149.403C597.773 148.667 587.941 146.238 579.363 140.404C566.108 131.365 560.157 117.827 556.276 103.034C555.42 99.7485 554.744 96.4235 553.987 93.1185C553.788 93.1384 553.609 93.1782 553.41 93.1982L553.47 93.2181ZM569.213 46.4501C569.113 38.964 563.74 32.6327 556.217 31.0997C553.39 30.5223 552.117 31.4979 552.495 34.4246C553.012 38.3269 553.609 42.2093 553.49 46.1913C553.331 51.2881 553.49 56.4049 553.49 61.5218C553.49 64.3489 554.863 64.9263 557.331 63.9707C563.501 61.6213 569.292 53.1198 569.213 46.4899V46.4501Z" fill="#BCD6C9"/>
<path d="M104.927 118.464C101.483 128.837 94.0001 132.878 83.3124 133.914C66.1763 135.566 49.2989 133.595 32.3619 132.042C22.6295 131.146 12.8972 130.33 3.12502 130.569C0.259056 130.628 -0.537046 130.33 0.318763 127.025C3.18473 116.134 8.79725 106.418 12.8773 96.0652C13.7928 93.7357 15.6039 94.0144 17.3752 94.1339C26.7693 94.7909 36.2031 95.1493 45.5374 96.2642C55.7872 97.4986 65.9972 97.3195 76.8242 97.0208C74.8339 94.6715 72.2665 94.2135 70.0573 93.238C53.16 85.7917 37.5166 76.4341 24.1819 63.5924C12.2802 52.1443 10.688 38.526 16.5592 23.6932C20.1417 14.6144 28.7595 9.05957 38.5914 8.99984C56.444 8.88039 74.0975 11.6478 91.8506 12.5637C99.0553 12.942 100.17 15.1918 100.528 21.4633C101.205 32.8915 103.673 44.1804 104.21 55.9868C102.001 55.7678 100.807 54.3343 99.4534 53.3588C88.308 45.4347 76.0679 39.7604 62.8526 36.3757C56.8818 34.8427 50.712 35.0617 44.9602 37.9287C39.7855 40.4971 38.054 45.355 40.4025 50.7108C42.0146 54.414 44.5422 57.3606 47.8063 59.7896C61.3002 69.8639 75.63 78.7437 89.4424 88.3601C99.0553 95.0298 105.146 103.75 105.165 115.855C105.086 116.712 105.006 117.568 104.927 118.424V118.464ZM43.567 15.9284C39.0093 15.4108 34.4914 16.2669 30.5507 18.9746C25.5353 22.4389 21.3558 26.5602 21.6145 33.3296C21.6543 34.7033 21.7538 36.1368 23.4853 36.2762C24.9183 36.3956 25.2368 35.2409 25.595 34.0463C29.1775 22.3195 37.1186 17.8199 49.2989 20.667C53.2994 21.6027 57.2401 22.8371 61.2206 23.8525C62.5142 24.1711 64.1064 24.2905 64.5642 22.6778C64.9822 21.1647 63.8875 20.3484 62.4744 19.8706C56.3843 17.8597 50.3936 15.4108 43.5471 15.9284H43.567ZM26.2717 46.0519C26.0528 44.7777 25.3562 43.8618 24.0227 43.9215C22.5101 44.0012 21.714 45.0166 21.7339 46.5297C21.7339 47.9433 22.5897 48.6202 23.9232 48.5804C25.4955 48.5207 26.2319 47.565 26.2717 46.032V46.0519Z" fill="#DA704A"/>
<path d="M417.098 44.4986C409.495 47.3258 403.325 52.6616 396.18 56.325C394.887 56.982 393.613 58.5748 392.259 57.9377C390.508 57.1015 391.682 54.991 391.384 53.4779C389.473 43.9212 393.115 37.6895 402.31 34.1455C406.251 32.6324 409.714 29.8848 413.396 27.7147C419.824 23.9318 422.233 17.7598 423.108 10.9109C423.586 7.26738 424.979 5.87369 428.761 5.87369C432.323 5.87369 435.926 5.13703 439.468 4.44019C442.434 3.8429 443.727 4.57956 442.732 7.64566C441.956 10.0547 442.115 12.5036 442.095 14.9525C441.976 14.9924 441.837 15.0123 441.757 15.0919C441.697 15.1317 441.717 15.2711 441.697 15.3706C441.837 15.2313 441.996 15.1118 442.135 14.9724C453.102 9.61673 464.207 4.61938 476.069 1.5931C488.468 -1.57255 500.072 -0.517333 509.645 9.01943C514.441 13.7779 517.566 19.2729 517.765 26.3608C518.123 39.0234 517.148 51.3675 510.321 62.4771C503.853 72.9894 494.777 80.8737 483.632 86.0502C466.257 94.1336 448.066 100.107 429.557 105.044C425.417 106.139 423.566 107.891 422.989 112.65C422.054 120.176 423.009 127.781 421.476 135.267C421.019 137.497 420.382 138.811 418.312 139.627C415.088 140.882 411.883 142.216 408.719 143.649C405.992 144.884 405.156 143.908 405.355 141.18C406.251 128.737 407.346 116.313 407.883 103.869C408.759 83.7606 413.953 64.3884 417.376 44.7176C417.595 44.3393 417.834 43.961 418.033 43.5628C418.033 43.523 417.814 43.3637 417.695 43.2642C417.496 43.6823 417.317 44.1004 417.118 44.4986H417.098ZM483.115 13.957C480.308 14.0367 477.562 14.0765 474.775 14.7933C463.073 17.72 452.485 23.0956 442.414 29.4269C438.135 32.1147 434.174 35.8777 433.259 41.2732C430.751 56.2852 428.681 71.3568 426.034 86.3489C425.278 90.6892 426.751 90.2114 429.676 89.2557C449.439 82.785 469.024 75.9162 487.234 65.6029C496.39 60.4264 501.385 52.7412 503.614 42.7465C507.435 25.5445 499.295 13.957 483.134 13.977L483.115 13.957Z" fill="#BCD6C9"/>
<path d="M963.065 35.6783C963.065 42.6069 963.105 49.5355 963.026 56.4641C962.946 62.7357 960.896 64.4678 953.93 64.4479C948.158 64.428 947.521 63.3927 947.103 56.8225C946.487 47.3454 946.506 37.7489 943.024 28.6701C940.456 21.9406 936.515 18.9541 930.783 18.8944C928.296 18.8745 926.783 19.7704 925.668 21.9605C924.375 24.509 923.698 27.2366 923.38 29.9841C921.429 47.2459 922.822 64.3882 925.071 81.5305C926.445 91.9234 926.982 102.416 929.37 112.649C930.365 116.91 931.898 120.733 936.953 122.067C939.64 122.764 940.993 122.107 942.068 119.837C944.576 114.501 945.511 108.906 945.233 103.033C945.073 99.509 944.974 95.6266 949.89 95.2483C956.677 94.7306 960.339 97.0003 960.876 102.296C961.553 109.026 961.413 115.775 958.886 122.266C956.458 128.498 951.601 132.44 945.412 133.555C932.794 135.824 920.175 136.063 908.234 129.792C895.078 122.883 889.764 111.196 887.615 97.4184C884.749 79.0816 885.087 60.8442 889.486 42.7264C894.621 21.622 904.95 11.4681 926.405 8.38207C938.804 6.6101 956.298 15.5894 961.175 30.3226C961.772 32.1344 961.513 34.3046 963.145 35.758L963.085 35.6982L963.065 35.6783ZM915.359 118.841C915.478 118.921 915.618 118.981 915.737 119.06C915.598 119.001 915.458 118.961 915.319 118.901C915.339 116.432 915.2 114.043 914.782 111.574C911.359 91.8636 908.731 72.0335 908.652 52.0242C908.612 42.8259 909.368 33.5679 911.159 23.175C906.045 28.4909 903.855 33.8865 902.442 39.6005C897.765 58.6542 898.979 77.668 903.079 96.642C904.95 105.303 907.318 113.605 915.359 118.841Z" fill="#E9C4AA"/>
<path d="M644.883 74.0643C644.485 64.2288 646.376 53.1789 650.774 42.567C655.033 32.3334 661.86 24.1704 671.672 18.9541C685.922 11.3685 700.889 6.61005 717.348 10.0146C726.822 11.9658 734.026 16.2065 738.365 25.8628C741.987 33.9262 746.983 41.3326 748.436 50.2721C750.028 60.0876 749.909 69.8832 748.018 79.639C746.963 85.0943 745.689 90.5097 744.475 95.9252C739.818 116.691 721.09 133.196 695.933 134.032C671.114 134.869 649.958 114.381 645.878 90.8681C645.002 85.7712 645.062 80.734 644.903 74.0443L644.883 74.0643ZM704.61 121.987C705.665 121.211 706.82 120.534 707.775 119.658C728.255 100.584 735.161 86.1495 726.662 60.6451C720.672 42.6865 709.467 28.7895 694.321 17.7396C696.351 15.5097 695.794 14.0563 692.848 14.116C691.296 14.1359 689.684 15.012 688.27 15.7884C680.469 20.0292 674.876 26.4402 670.796 34.1651C663.094 48.7789 660.745 64.3483 663.85 80.4752C666.338 93.3966 671.751 105.123 680.847 114.939C685.922 120.434 692.132 124.097 699.476 125.531C701.924 126.009 705.506 126.825 704.61 121.967V121.987ZM717.587 23.4736C724.752 30.1035 730.424 37.5498 732.414 47.2657C732.952 49.8938 735.32 48.759 736.912 48.4802C738.723 48.1617 739.5 47.1662 738.962 44.9363C736.972 36.6738 732.534 29.9841 726.583 24.0908C723.836 21.3632 721.11 20.8853 717.607 23.4736H717.587ZM742.823 60.008C742.485 57.7383 742.385 55.2097 739.022 55.4287C737.191 55.5482 734.683 55.8668 735.559 58.2957C736.275 60.2867 734.544 64.0298 738.445 64.1492C740.734 64.2089 743.162 63.313 742.823 60.0279V60.008Z" fill="#EDC646"/>
<path d="M963.125 35.758C963.105 30.4819 962.985 25.2058 963.085 19.9497C963.184 15.2311 965.951 12.4437 970.11 12.2247C1004.16 10.3532 1038.24 11.2093 1072.31 11.05C1079.57 11.0102 1081.03 11.8464 1081.96 19.0936C1082.96 26.9181 1082.96 34.8023 1079.67 42.3481C1078.2 45.7726 1076.35 48.6993 1072.27 48.4405C1068.23 48.1817 1065.8 45.4341 1064.55 41.7309C1064.03 40.178 1063.77 38.5454 1063.37 36.9526C1063 35.4793 1062.14 34.7227 1060.51 34.9218C1054.95 35.5788 1049.38 36.2159 1043.83 36.853C1041.4 37.1318 1040.51 38.4259 1040.55 40.8549C1040.72 53.1989 1039.77 65.4833 1038.5 77.7277C1037.46 87.7623 1035.81 97.7569 1034.08 107.712C1033.54 110.838 1033.44 112.53 1037.22 113.227C1041.38 113.983 1045.5 115.337 1049.44 116.91C1054.5 118.941 1054.78 122.744 1050.62 126.128C1047.77 128.438 1044.41 129.533 1041 129.613C1026.63 129.931 1012.38 132.619 997.954 131.803C992.799 131.504 988.679 128.717 988.122 124.595C987.625 120.992 990.61 117.607 995.645 116.074C996.74 115.735 997.854 115.417 998.969 115.158C1007.65 113.247 1007.49 113.227 1007.89 104.447C1008.82 84.0789 1009.92 63.7312 1010.95 43.3635C1011.27 37.0721 1011.17 37.1517 1005.02 36.7336C998.432 36.2757 991.884 35.4992 985.336 34.7824C981.654 34.3842 979.763 35.6585 979.743 39.6404C979.743 42.0694 979.246 44.578 978.449 46.8676C977.594 49.3564 976.181 51.6062 972.936 51.8053C969.513 52.0044 967.603 50.093 966.588 47.3057C965.214 43.5228 964.219 39.5807 963.045 35.7182L963.105 35.7779L963.125 35.758ZM996.282 124.018C1012.3 128.159 1027.93 124.217 1044.33 121.609C1039.51 119.399 1035.01 119.14 1030.73 118.025C1027.11 117.069 1024.9 115.118 1025.78 110.977C1028.96 95.7859 1028.11 80.2563 1029.66 64.9258C1030.51 56.4243 1031.11 47.903 1031.91 39.3816C1032.37 34.5037 1034.36 31.3779 1039.95 30.462C1046.64 29.367 1053.36 28.8095 1060.05 28.0529C1069.76 26.9579 1069.78 27.1769 1072.39 36.6539C1072.51 37.092 1072.69 37.5101 1073.05 38.5653C1074.58 32.7516 1075.67 27.6547 1074.74 22.0601C1074.16 18.6555 1073.13 17.8392 1069.84 17.8591C1045.18 17.9985 1020.5 17.9587 995.844 17.899C989.058 17.899 982.45 19.3126 975.763 20.1488C972.101 20.6067 970.27 22.7968 970.09 26.281C969.832 31.2385 969.772 36.2159 971.862 41.5916C972.877 39.6205 973.812 38.2467 974.27 36.7535C976.419 29.7851 981.335 27.9335 988.082 28.7896C997.078 29.9245 1006.09 30.8204 1015.09 31.8159C1018.23 32.1543 1019.01 34.0059 1018.89 36.9526C1018.08 54.513 1017.84 72.0933 1016.5 89.6139C1015.87 97.8366 1016.01 106.019 1015.81 114.222C1015.71 118.284 1014.33 120.414 1009.84 120.972C1005.32 121.529 1000.56 121.131 996.282 123.998V124.018Z" fill="#EDC646"/>
<path d="M1119.22 8.12376C1123.32 8.52195 1129.27 7.34728 1135.18 8.86042C1142.73 10.7917 1145.77 13.4596 1146.75 21.0651C1147.88 29.8652 1148.36 38.7449 1147.96 47.6446C1147.74 52.1641 1144.78 54.5732 1140.81 55.3099C1137.55 55.9071 1134.9 54.4537 1134.96 50.4917C1135.08 42.269 1134.01 34.1259 1133.13 25.9828C1132.63 21.3836 1131.14 18.9347 1125.87 18.7755C1119.66 18.5963 1113.47 17.342 1107.3 16.446C1102.18 15.7094 1100.19 17.3818 1100.31 22.4389C1100.71 38.6852 1108.59 49.6356 1123.78 55.6284C1132.18 58.9334 1141.01 61.5018 1147.58 68.3507C1153 74.0051 1155.62 80.8142 1155.86 88.3799C1156.2 98.7529 1155.8 109.146 1156 119.519C1156.1 125.193 1153.69 129.394 1148.58 131.146C1136.77 135.188 1124.59 137.477 1112.14 134.79C1099.54 132.062 1082.36 115.278 1082.38 98.5936C1082.38 94.6316 1082.32 90.6895 1082.4 86.7274C1082.48 82.626 1084.59 80.5554 1088.77 80.2169C1099.1 79.4006 1099.3 79.5002 1099.3 89.8533C1099.3 98.7728 1099.54 107.613 1104.89 115.397C1106.44 117.647 1108.25 119.419 1110.7 120.614C1120.24 125.233 1129.95 125.87 1139.8 121.729C1141.95 120.833 1143.98 119.658 1144.4 117.03C1146.23 105.602 1147.32 94.2135 1142.94 83.064C1140.62 77.1309 1136.36 73.0494 1130.7 70.1028C1123.04 66.1009 1114.74 63.8511 1106.82 60.5262C1087.48 52.4229 1082.4 36.3558 1089.37 18.0985C1091.93 11.4089 1097.35 8.26313 1104.49 8.14367C1108.79 8.06403 1113.11 8.14367 1119.22 8.14367V8.12376Z" fill="#E9C4AA"/>
<path d="M813.637 87.2246C810.114 90.8282 812.204 95.5668 811.149 99.7279C809.656 105.601 808.701 111.614 806.671 117.348C802.452 129.274 792.679 132.698 781.335 133.634C774.986 134.152 768.836 132.878 762.826 131.006C751.979 127.641 744.973 110.001 750.804 100.285C753.412 95.9649 758.109 97.0799 762.149 97.2392C765.333 97.3586 767.881 98.7523 768.279 102.475C768.418 103.75 768.916 105.024 769.393 106.238C772.001 112.809 778.25 114.362 783.703 109.782C788.719 105.561 790.649 99.9071 791.008 93.6156C792.142 74.0045 788.858 54.5328 788.898 34.9416C788.898 27.5551 787.465 26.9578 780.081 28.3116C773.215 29.566 770.349 27.2962 770.19 20.4871C769.971 11.3087 770.11 10.8309 778.987 10.154C786.39 9.59648 793.754 8.6209 801.238 8.89964C805.138 9.03901 807.328 10.811 807.766 14.2753C809.318 26.6392 811.069 38.9633 812.065 51.387C812.9 61.76 812.781 72.1131 812.9 82.4661C812.9 83.4417 812.841 84.4571 813.776 85.154C813.716 85.8309 813.677 86.5078 813.617 87.1848L813.637 87.2246Z" fill="#BCD6C9"/>
<path d="M170.705 86.4685C169.869 74.5425 171.262 59.5903 171.839 44.6182C172.197 35.1212 173.969 25.7039 173.81 16.1472C173.77 13.5988 174.944 12.1653 178.029 11.8866C183.383 11.3888 188.319 8.92001 193.971 8.88019C208.161 8.78064 221.695 11.9662 232.841 20.0894C245.538 29.3275 254.833 41.4724 255.37 58.6944C255.928 76.852 253.639 94.0939 244.304 110.022C241.538 114.72 238.553 119.26 235.09 123.441C229.875 129.693 222.432 131.644 214.809 132.56C202.469 134.053 190.05 133.834 177.651 133.655C174.765 133.615 172.974 132.48 172.635 129.394C172.078 124.357 171.003 119.339 170.824 114.282C170.506 106.04 170.745 97.7971 170.745 86.4884L170.705 86.4685ZM182.726 94.1536C182.388 94.1536 182.069 94.1536 181.731 94.1536C181.731 101.062 181.83 107.991 181.691 114.9C181.611 118.742 182.408 120.833 186.866 122.306C190.13 123.381 192.817 122.824 195.702 122.784C225.198 122.366 245.737 100.983 246.135 71.8945C246.374 54.6129 239.09 40.2579 225.397 29.6062C215.386 21.8215 203.783 17.7798 190.906 18.0188C185.652 18.1183 183.721 20.0695 183.721 25.1863C183.721 30.6216 182.965 36.0172 182.865 41.3928C182.547 58.9731 182.746 76.5733 182.746 94.1536H182.726Z" fill="#BCD6C9"/>
<path d="M104.927 118.463C105.006 117.607 105.086 116.751 105.166 115.895C110.619 115.895 116.092 115.815 121.545 115.935C124.153 115.994 124.949 114.999 125.008 112.47C125.188 103.272 125.964 94.0737 125.824 84.8754C125.586 69.5648 127.019 54.2941 126.919 39.0034C126.899 35.3997 126.441 31.7761 126.282 28.2123C126.083 23.6131 123.695 23.414 120.53 23.9914C117.107 24.6285 113.684 24.8475 110.201 24.967C107.076 25.0665 106.161 24.4892 106.36 20.8059C106.678 14.7732 108.609 12.8818 114.938 12.5632C129.546 11.8067 144.035 8.99939 158.723 9.05912C160.375 9.05912 163.042 8.04372 163.381 10.4528C163.858 13.9569 165.789 17.461 164.256 21.0448C163.759 22.2394 162.206 21.8213 161.072 21.7416C157.649 21.4828 154.225 21.2439 150.822 20.8656C146.842 20.4276 145.866 22.2195 145.707 26.0023C144.593 52.323 144.931 78.6636 144.732 105.004C144.732 105.661 144.752 106.318 144.732 106.975C144.44 112.895 147.253 115.868 153.171 115.895C157.469 115.895 161.768 115.955 166.087 115.935C168.555 115.935 169.749 117.05 169.71 119.518C169.67 120.992 169.61 122.505 169.789 123.958C170.466 129.752 170.068 130.27 163.938 130.648C157.191 131.066 150.444 130.807 143.657 131.424C132.173 132.48 120.57 132.261 109.027 132.719C106.001 132.838 104.867 131.823 105.026 128.776C105.205 125.332 104.986 121.868 104.927 118.403V118.463ZM139.179 92.0429C139.318 92.0429 139.478 92.0429 139.617 92.0429V57.6588H139.179V92.0429ZM139.716 95.9452C139.239 95.9452 138.741 95.9651 138.264 95.985V114.82C138.642 108.528 138.821 102.217 139.716 95.9253V95.9452Z" fill="#BCD6C9"/>
<path d="M813.637 87.2252C813.697 86.5483 813.736 85.8714 813.796 85.1944C815.806 62.8557 815.727 40.4373 816.782 18.0588C817.06 11.9465 818.851 10.0352 824.822 10.0352C843.71 10.0352 862.597 10.075 881.465 10.1148C883.395 10.1148 885.425 9.63696 885.605 12.8225C885.804 16.1275 883.774 16.2271 881.584 16.2669C870.339 16.5257 859.094 16.8244 847.849 16.8642C844.784 16.8642 843.511 17.4018 843.69 20.8661C844.386 33.8472 844.844 46.8483 845.262 59.8294C845.362 63.0747 846.655 63.8114 849.879 63.6919C859.473 63.3335 869.085 63.4132 878.698 63.3734C880.748 63.3734 883.356 62.8955 883.216 66.2603C883.097 69.3463 881.206 69.8241 878.479 69.3861C868.926 67.8331 859.373 68.4304 849.8 69.3662C847.033 69.6449 845.68 70.4214 845.66 73.5074C845.541 89.6542 845.859 105.801 844.765 121.928C844.526 125.512 846.257 126.109 849.243 125.83C859.154 124.875 869.085 124.795 879.017 124.835C881.007 124.835 883.495 124.018 883.575 127.622C883.654 131.007 881.525 130.788 879.315 130.768C859.114 130.708 838.953 132.301 818.752 131.863C814.115 131.763 812.682 130.29 812.841 125.79C813.299 112.949 812.284 100.067 813.617 87.2451L813.637 87.2252ZM835.808 73.4477H835.689C835.689 60.0882 835.769 46.7487 835.649 33.3893C835.609 28.4716 835.51 23.5738 833.997 18.7357C833.002 15.5502 830.892 15.8289 828.604 15.9683C825.758 16.1275 826.952 18.3375 826.912 19.7113C826.295 39.5414 825.141 59.3317 825.758 79.2016C826.195 93.6561 825.101 108.17 824.583 122.645C824.544 123.839 824.106 125.014 825.499 125.512C828.186 126.467 830.952 126.965 833.679 125.532C836.007 124.297 835.828 122.107 835.828 119.937C835.808 104.447 835.828 88.9375 835.828 73.4477H835.808Z" fill="#2F2C2B"/>
<path d="M278.079 85.8707C278.079 93.3568 278.258 100.604 277.999 107.851C277.88 111.276 278.716 112.41 282.358 112.012C293.702 110.758 305.087 110.181 316.511 109.862C321.247 109.723 323.039 111.136 322.74 115.994C322.501 119.717 322.521 123.52 323.556 127.263C324.452 130.488 322.879 132.26 319.416 132.28C306.181 132.36 293.026 133.375 279.85 134.59C273.441 135.187 266.973 135.167 260.545 135.585C256.684 135.844 255.131 134.331 255.29 130.449C255.868 115.636 256.206 100.823 256.763 86.0101C257.679 62.1582 258.654 38.2864 259.709 14.4346C260.007 7.7648 260.584 7.22723 267.311 7.08787C283.85 6.76931 300.37 6.98832 316.829 8.85983C320.531 9.27794 322.262 10.811 321.825 14.554C321.446 17.8192 321.068 21.0844 320.69 24.3496C320.292 27.8139 317.705 27.7542 315.137 27.7343C305.047 27.6347 294.976 27.4754 284.905 28.5705C282.019 28.889 281.004 29.4465 280.945 32.5126C280.726 43.8014 281.004 44.1996 291.911 43.8811C295.056 43.7815 298.22 44.0204 301.305 43.6422C305.405 43.1444 306.5 45.4141 306.878 48.7191C307.554 54.7186 304.861 57.6785 298.797 57.5989C294.16 57.5392 289.523 57.579 284.885 57.4396C281.024 57.3201 279.014 58.9129 279.034 62.875C279.094 70.6199 278.775 78.3448 278.039 85.8309L278.079 85.8707ZM273.601 93.098C274.695 80.1566 273.203 69.9031 275.054 59.7491C275.631 56.5437 276.666 54.8513 280.567 54.3337C286.537 53.5373 292.329 53.6368 298.22 54.4731C300.21 54.7518 302.181 54.9111 302.041 51.6857C301.922 49.0377 301.743 47.3454 298.34 47.5246C293.384 47.7834 288.408 47.7237 283.452 47.5246C274.835 47.1463 274.835 47.0069 275.551 38.4457C275.83 35.0212 275.989 31.5768 275.929 28.1325C275.87 25.2256 277.243 24.6483 279.85 24.708C288.448 24.9071 297.066 24.9071 305.664 24.9867C311.462 25.0398 314.626 22.2989 315.157 16.764C315.197 16.4454 315.157 16.0871 315.257 15.7884C316.471 12.6626 314.958 11.906 312.092 11.6273C298.061 10.3132 284.01 11.0897 269.978 11.249C266.595 11.2888 265.122 13.7775 265.122 17.3613C265.162 27.0573 264.465 36.7733 264.366 46.4494C264.087 72.6307 262.575 98.7921 263.052 124.973C263.112 128.04 263.709 129.234 267.112 129.115C283.134 128.517 299.175 128.059 315.217 127.84C319.775 127.781 320.949 125.591 320.79 121.768C320.551 116.572 318.7 114.8 313.525 114.74C312.371 114.74 311.217 114.74 310.042 114.74C299.474 114.68 288.926 115.078 278.457 116.771C276.447 117.089 273.561 117.806 273.581 113.963C273.621 106.079 273.581 98.1948 273.581 93.098H273.601Z" fill="#DA704A"/>
<path d="M569.213 46.4501C569.313 53.0801 563.501 61.5815 557.332 63.9309C554.844 64.8866 553.49 64.3092 553.49 61.482C553.49 56.3652 553.331 51.2683 553.49 46.1515C553.61 42.1695 553.013 38.2871 552.495 34.3848C552.097 31.4581 553.391 30.4825 556.217 31.0599C563.74 32.6129 569.114 38.9242 569.213 46.4103V46.4501Z" fill="#FEFEFE"/>
<path d="M43.5674 15.9284C50.394 15.4107 56.4046 17.8397 62.4947 19.8705C63.9078 20.3285 65.0025 21.1647 64.5845 22.6778C64.1268 24.3104 62.5146 24.1909 61.2409 23.8525C57.2604 22.857 53.3197 21.6027 49.3192 20.6669C37.1389 17.8198 29.1978 22.3194 25.6153 34.0463C25.2571 35.2409 24.9386 36.3956 23.5056 36.2762C21.7741 36.1368 21.6746 34.7033 21.6348 33.3295C21.396 26.5602 25.5556 22.4389 30.571 18.9746C34.5117 16.2669 39.0296 15.4107 43.5873 15.9284H43.5674Z" fill="#E9C4AA"/>
<path d="M26.2722 46.0517C26.2124 47.5847 25.4761 48.5404 23.9237 48.6001C22.5902 48.6399 21.7543 47.963 21.7344 46.5494C21.7344 45.0164 22.5106 44.001 24.0232 43.9412C25.3367 43.8815 26.0532 44.7974 26.2722 46.0716V46.0517Z" fill="#E9C4AA"/>
<path d="M483.115 13.9574C499.276 13.9574 507.436 25.525 503.595 42.727C501.366 52.7416 496.37 60.4068 487.215 65.5834C469.024 75.8966 449.44 82.7655 429.657 89.2362C426.731 90.1918 425.258 90.6497 426.015 86.3293C428.662 71.3572 430.732 56.2656 433.239 41.2537C434.135 35.8382 438.116 32.0952 442.395 29.4074C452.465 23.0761 463.053 17.7004 474.756 14.7737C477.542 14.0769 480.289 14.0171 483.095 13.9375L483.115 13.9574Z" fill="#FEFEFE"/>
<path d="M417.098 44.4991C417.297 44.0809 417.476 43.6628 417.675 43.2646C417.794 43.3642 418.033 43.5235 418.013 43.5633C417.814 43.9615 417.575 44.3398 417.356 44.7181L417.098 44.4991Z" fill="#FEFEFE"/>
<path d="M442.135 14.9926C441.996 15.1319 441.837 15.2514 441.697 15.3908C441.697 15.2912 441.697 15.1718 441.757 15.112C441.857 15.0324 441.976 15.0125 442.095 14.9727L442.115 14.9926H442.135Z" fill="#FEFEFE"/>
<path d="M915.359 118.841C907.318 113.605 904.969 105.322 903.079 96.6418C898.979 77.6479 897.765 58.654 902.442 39.6003C903.835 33.8862 906.044 28.4907 911.159 23.1748C909.368 33.5478 908.612 42.8257 908.651 52.024C908.731 72.0333 911.338 91.8634 914.781 111.574C915.219 114.043 915.358 116.452 915.319 118.901L915.378 118.841H915.359Z" fill="#FEFEFE"/>
<path d="M915.319 118.881C915.458 118.941 915.597 118.981 915.737 119.04C915.617 118.961 915.478 118.901 915.359 118.821L915.299 118.881H915.319Z" fill="#FEFEFE"/>
<path d="M694.321 17.7201C709.467 28.77 720.672 42.6471 726.662 60.6256C735.161 86.1499 728.275 100.565 707.775 119.638C706.82 120.534 705.665 121.211 704.591 121.968C697.207 121.012 691.256 117.348 686.4 111.973C667.432 91.0676 664.149 56.3052 678.817 32.2343C682.618 26.0026 687.176 20.4676 694.301 17.7002L694.321 17.7201Z" fill="#FEFEFE"/>
<path d="M694.32 17.7203C687.195 20.4877 682.618 26.0227 678.836 32.2544C664.168 56.3253 667.452 91.0877 686.419 111.993C691.275 117.349 697.226 121.032 704.61 121.988C705.506 126.846 701.923 126.029 699.475 125.551C692.131 124.098 685.921 120.435 680.846 114.959C671.771 105.144 666.337 93.4171 663.85 80.4957C660.745 64.3688 663.093 48.7994 670.796 34.1857C674.876 26.4408 680.468 20.0497 688.27 15.809C689.703 15.0325 691.315 14.1764 692.848 14.1365C695.793 14.0768 696.331 15.5302 694.32 17.7601V17.7203Z" fill="#2F2C2B"/>
<path d="M717.587 23.4741C721.09 20.9058 723.817 21.3637 726.563 24.0913C732.514 29.9846 736.952 36.6942 738.943 44.9368C739.48 47.1667 738.704 48.1423 736.893 48.4808C735.32 48.7595 732.932 49.8944 732.395 47.2663C730.404 37.5503 724.732 30.1041 717.567 23.4741H717.587Z" fill="#2F2C2B"/>
<path d="M742.823 60.0079C743.142 63.313 740.734 64.2089 738.445 64.1293C734.544 64.0098 736.275 60.2668 735.559 58.2758C734.683 55.8468 737.191 55.5482 739.022 55.4088C742.386 55.1898 742.485 57.7183 742.823 59.988V60.0079Z" fill="#2F2C2B"/>
<path d="M996.283 124.018C1000.56 121.151 1005.32 121.549 1009.84 120.991C1014.33 120.434 1015.71 118.304 1015.81 114.242C1016.01 106.039 1015.89 97.8564 1016.5 89.6336C1017.86 72.133 1018.1 54.5327 1018.89 36.9724C1019.03 34.0257 1018.26 32.194 1015.09 31.8356C1006.07 30.8402 997.059 29.9243 988.083 28.8094C981.336 27.9532 976.42 29.8048 974.27 36.7733C973.813 38.2864 972.857 39.6403 971.862 41.6113C969.753 36.2357 969.812 31.2583 970.091 26.3007C970.27 22.8165 972.101 20.6265 975.763 20.1685C982.45 19.3323 989.038 17.8988 995.845 17.9187C1020.5 17.9785 1045.18 17.9984 1069.84 17.8789C1073.13 17.8789 1074.18 18.6753 1074.74 22.0799C1075.67 27.6745 1074.58 32.7714 1073.05 38.585C1072.69 37.5298 1072.51 37.1117 1072.39 36.6737C1069.78 27.1768 1069.76 26.9777 1060.05 28.0727C1053.34 28.8293 1046.62 29.3668 1039.95 30.4818C1034.38 31.3976 1032.37 34.5235 1031.91 39.4013C1031.11 47.9028 1030.52 56.4441 1029.66 64.9455C1028.11 80.276 1028.96 95.8056 1025.78 110.997C1024.9 115.138 1027.11 117.089 1030.73 118.045C1035.01 119.18 1039.51 119.419 1044.33 121.629C1027.93 124.237 1012.3 128.159 996.283 124.038V124.018Z" fill="#FEFEFE"/>
<path d="M182.726 94.1537C182.726 76.5734 182.527 58.9731 182.845 41.3928C182.945 36.0172 183.701 30.6018 183.701 25.1863C183.701 20.0695 185.652 18.0984 190.886 18.0188C203.763 17.7799 215.366 21.8216 225.377 29.6063C239.07 40.258 246.354 54.6129 246.115 71.8946C245.717 101.003 225.198 122.366 195.682 122.784C192.797 122.824 190.11 123.401 186.846 122.306C182.407 120.833 181.611 118.762 181.671 114.9C181.81 107.991 181.711 101.062 181.711 94.1537C182.049 94.1537 182.368 94.1537 182.706 94.1537H182.726ZM189.652 94.4324C189.333 94.4324 188.995 94.4324 188.677 94.4324C188.677 100.684 188.736 106.956 188.637 113.207C188.597 116.074 189.333 117.448 192.617 118.085C199.723 119.459 206.41 117.787 212.5 115.158C244.404 101.381 247.25 57.6591 223.705 36.5349C223.148 36.0371 222.292 34.8624 221.795 35.5792C218.61 40.2978 219.506 34.8824 218.909 34.2851C218.053 33.4489 218.172 31.8561 216.918 31.0199C210.072 26.4406 202.608 23.6134 194.369 22.837C191.642 22.5781 190.468 23.5139 190.508 26.4008C190.587 31.9755 189.911 37.5702 189.771 43.1051C189.353 60.2075 189.612 77.31 189.612 94.4125L189.652 94.4324Z" fill="#FEFEFE"/>
<path d="M139.179 92.0433V57.6592H139.617V92.0433C139.477 92.0433 139.318 92.0433 139.179 92.0433Z" fill="#FEFEFE"/>
<path d="M139.717 95.9453C138.801 102.217 138.642 108.528 138.264 114.84V96.005C138.741 96.005 139.239 95.9851 139.717 95.9652V95.9453Z" fill="#FEFEFE"/>
<path d="M835.808 73.4472C835.808 88.9369 835.808 104.447 835.808 119.936C835.808 122.107 835.987 124.317 833.658 125.531C830.952 126.965 828.185 126.467 825.479 125.511C824.085 125.013 824.523 123.839 824.563 122.644C825.08 108.17 826.175 93.6555 825.737 79.2011C825.12 59.3311 826.295 39.5409 826.892 19.7108C826.931 18.337 825.717 16.127 828.583 15.9677C830.872 15.8483 832.982 15.5496 833.977 18.7352C835.489 23.5733 835.589 28.4711 835.629 33.3888C835.768 46.7482 835.669 60.0877 835.669 73.4472H835.788H835.808Z" fill="#FEFEFE"/>
<path d="M273.601 93.0986C273.601 98.2154 273.62 106.08 273.601 113.964C273.601 117.807 276.486 117.09 278.477 116.771C288.945 115.079 299.494 114.681 310.062 114.741C311.216 114.741 312.371 114.741 313.545 114.741C318.72 114.8 320.571 116.552 320.809 121.769C320.989 125.591 319.794 127.781 315.237 127.841C299.195 128.06 283.154 128.518 267.132 129.115C263.729 129.235 263.112 128.04 263.072 124.974C262.594 98.7928 264.107 72.6314 264.386 46.4501C264.485 36.774 265.182 27.058 265.142 17.362C265.142 13.7782 266.615 11.2895 269.998 11.2497C284.029 11.0904 298.081 10.3139 312.112 11.628C314.978 11.8868 316.491 12.6633 315.276 15.7891C315.157 16.0878 315.197 16.4461 315.177 16.7647C314.646 22.2996 311.482 25.0405 305.683 24.9874C297.086 24.9078 288.468 24.9277 279.87 24.7087C277.263 24.6489 275.889 25.2064 275.949 28.1331C276.009 31.5576 275.85 35.0219 275.571 38.4464C274.854 47.0076 274.854 47.147 283.472 47.5252C288.428 47.7442 293.423 47.804 298.359 47.5252C301.783 47.3461 301.962 49.0185 302.061 51.6864C302.201 54.9118 300.23 54.7525 298.24 54.4737C292.349 53.6375 286.557 53.538 280.586 54.3344C276.685 54.852 275.67 56.5444 275.073 59.7498C273.242 69.8839 274.715 80.1374 273.62 93.0986H273.601Z" fill="#FEFEFE"/>
<path d="M189.651 94.4325C189.651 77.33 189.373 60.2276 189.811 43.1251C189.95 37.5703 190.646 31.9955 190.547 26.4208C190.507 23.5538 191.681 22.6181 194.408 22.857C202.648 23.6335 210.111 26.4606 216.958 31.0399C218.192 31.8761 218.092 33.4689 218.948 34.3051C219.545 34.9024 218.649 40.3178 221.834 35.5992C222.331 34.8825 223.187 36.0571 223.744 36.5549C247.269 57.6791 244.443 101.401 212.539 115.178C206.449 117.807 199.742 119.479 192.657 118.105C189.353 117.468 188.616 116.114 188.676 113.227C188.776 106.976 188.716 100.704 188.716 94.4524C189.034 94.4524 189.373 94.4524 189.691 94.4524L189.651 94.4325ZM211.007 107.971C211.365 105.403 213.614 103.551 211.086 101.62C210.39 101.102 209.335 100.923 208.937 101.819C208.002 103.91 209.255 105.542 211.007 107.951V107.971Z" fill="#BCD6C9"/>
<path d="M211.007 107.971C209.275 105.562 208.021 103.929 208.937 101.838C209.335 100.942 210.41 101.102 211.086 101.639C213.594 103.551 211.345 105.422 211.007 107.991V107.971Z" fill="#FEFEFE"/>
</g>
<defs>
<clipPath id="clip0_362_2772">
<rect width="1156" height="150" fill="white"/>
</clipPath>
</defs>
</svg>
